G75*
%MOIN*%
%OFA0B0*%
%FSLAX25Y25*%
%IPPOS*%
%LPD*%
%AMOC8*
5,1,8,0,0,1.08239X$1,22.5*
%
%ADD10C,0.00000*%
%ADD11C,0.12661*%
%ADD12C,0.07400*%
%ADD13R,0.03762X0.03762*%
%ADD14C,0.01600*%
%ADD15C,0.02800*%
%ADD16C,0.00800*%
D10*
X0025300Y0008800D02*
X0362800Y0008800D01*
X0362981Y0008802D01*
X0363162Y0008809D01*
X0363343Y0008820D01*
X0363524Y0008835D01*
X0363704Y0008855D01*
X0363884Y0008879D01*
X0364063Y0008907D01*
X0364241Y0008940D01*
X0364418Y0008977D01*
X0364595Y0009018D01*
X0364770Y0009063D01*
X0364945Y0009113D01*
X0365118Y0009167D01*
X0365289Y0009225D01*
X0365460Y0009287D01*
X0365628Y0009354D01*
X0365795Y0009424D01*
X0365961Y0009498D01*
X0366124Y0009577D01*
X0366285Y0009659D01*
X0366445Y0009745D01*
X0366602Y0009835D01*
X0366757Y0009929D01*
X0366910Y0010026D01*
X0367060Y0010128D01*
X0367208Y0010232D01*
X0367354Y0010341D01*
X0367496Y0010452D01*
X0367636Y0010568D01*
X0367773Y0010686D01*
X0367908Y0010808D01*
X0368039Y0010933D01*
X0368167Y0011061D01*
X0368292Y0011192D01*
X0368414Y0011327D01*
X0368532Y0011464D01*
X0368648Y0011604D01*
X0368759Y0011746D01*
X0368868Y0011892D01*
X0368972Y0012040D01*
X0369074Y0012190D01*
X0369171Y0012343D01*
X0369265Y0012498D01*
X0369355Y0012655D01*
X0369441Y0012815D01*
X0369523Y0012976D01*
X0369602Y0013139D01*
X0369676Y0013305D01*
X0369746Y0013472D01*
X0369813Y0013640D01*
X0369875Y0013811D01*
X0369933Y0013982D01*
X0369987Y0014155D01*
X0370037Y0014330D01*
X0370082Y0014505D01*
X0370123Y0014682D01*
X0370160Y0014859D01*
X0370193Y0015037D01*
X0370221Y0015216D01*
X0370245Y0015396D01*
X0370265Y0015576D01*
X0370280Y0015757D01*
X0370291Y0015938D01*
X0370298Y0016119D01*
X0370300Y0016300D01*
X0370300Y0142300D01*
X0370298Y0142481D01*
X0370291Y0142662D01*
X0370280Y0142843D01*
X0370265Y0143024D01*
X0370245Y0143204D01*
X0370221Y0143384D01*
X0370193Y0143563D01*
X0370160Y0143741D01*
X0370123Y0143918D01*
X0370082Y0144095D01*
X0370037Y0144270D01*
X0369987Y0144445D01*
X0369933Y0144618D01*
X0369875Y0144789D01*
X0369813Y0144960D01*
X0369746Y0145128D01*
X0369676Y0145295D01*
X0369602Y0145461D01*
X0369523Y0145624D01*
X0369441Y0145785D01*
X0369355Y0145945D01*
X0369265Y0146102D01*
X0369171Y0146257D01*
X0369074Y0146410D01*
X0368972Y0146560D01*
X0368868Y0146708D01*
X0368759Y0146854D01*
X0368648Y0146996D01*
X0368532Y0147136D01*
X0368414Y0147273D01*
X0368292Y0147408D01*
X0368167Y0147539D01*
X0368039Y0147667D01*
X0367908Y0147792D01*
X0367773Y0147914D01*
X0367636Y0148032D01*
X0367496Y0148148D01*
X0367354Y0148259D01*
X0367208Y0148368D01*
X0367060Y0148472D01*
X0366910Y0148574D01*
X0366757Y0148671D01*
X0366602Y0148765D01*
X0366445Y0148855D01*
X0366285Y0148941D01*
X0366124Y0149023D01*
X0365961Y0149102D01*
X0365795Y0149176D01*
X0365628Y0149246D01*
X0365460Y0149313D01*
X0365289Y0149375D01*
X0365118Y0149433D01*
X0364945Y0149487D01*
X0364770Y0149537D01*
X0364595Y0149582D01*
X0364418Y0149623D01*
X0364241Y0149660D01*
X0364063Y0149693D01*
X0363884Y0149721D01*
X0363704Y0149745D01*
X0363524Y0149765D01*
X0363343Y0149780D01*
X0363162Y0149791D01*
X0362981Y0149798D01*
X0362800Y0149800D01*
X0025300Y0149800D01*
X0025119Y0149798D01*
X0024938Y0149791D01*
X0024757Y0149780D01*
X0024576Y0149765D01*
X0024396Y0149745D01*
X0024216Y0149721D01*
X0024037Y0149693D01*
X0023859Y0149660D01*
X0023682Y0149623D01*
X0023505Y0149582D01*
X0023330Y0149537D01*
X0023155Y0149487D01*
X0022982Y0149433D01*
X0022811Y0149375D01*
X0022640Y0149313D01*
X0022472Y0149246D01*
X0022305Y0149176D01*
X0022139Y0149102D01*
X0021976Y0149023D01*
X0021815Y0148941D01*
X0021655Y0148855D01*
X0021498Y0148765D01*
X0021343Y0148671D01*
X0021190Y0148574D01*
X0021040Y0148472D01*
X0020892Y0148368D01*
X0020746Y0148259D01*
X0020604Y0148148D01*
X0020464Y0148032D01*
X0020327Y0147914D01*
X0020192Y0147792D01*
X0020061Y0147667D01*
X0019933Y0147539D01*
X0019808Y0147408D01*
X0019686Y0147273D01*
X0019568Y0147136D01*
X0019452Y0146996D01*
X0019341Y0146854D01*
X0019232Y0146708D01*
X0019128Y0146560D01*
X0019026Y0146410D01*
X0018929Y0146257D01*
X0018835Y0146102D01*
X0018745Y0145945D01*
X0018659Y0145785D01*
X0018577Y0145624D01*
X0018498Y0145461D01*
X0018424Y0145295D01*
X0018354Y0145128D01*
X0018287Y0144960D01*
X0018225Y0144789D01*
X0018167Y0144618D01*
X0018113Y0144445D01*
X0018063Y0144270D01*
X0018018Y0144095D01*
X0017977Y0143918D01*
X0017940Y0143741D01*
X0017907Y0143563D01*
X0017879Y0143384D01*
X0017855Y0143204D01*
X0017835Y0143024D01*
X0017820Y0142843D01*
X0017809Y0142662D01*
X0017802Y0142481D01*
X0017800Y0142300D01*
X0017800Y0016300D01*
X0017802Y0016119D01*
X0017809Y0015938D01*
X0017820Y0015757D01*
X0017835Y0015576D01*
X0017855Y0015396D01*
X0017879Y0015216D01*
X0017907Y0015037D01*
X0017940Y0014859D01*
X0017977Y0014682D01*
X0018018Y0014505D01*
X0018063Y0014330D01*
X0018113Y0014155D01*
X0018167Y0013982D01*
X0018225Y0013811D01*
X0018287Y0013640D01*
X0018354Y0013472D01*
X0018424Y0013305D01*
X0018498Y0013139D01*
X0018577Y0012976D01*
X0018659Y0012815D01*
X0018745Y0012655D01*
X0018835Y0012498D01*
X0018929Y0012343D01*
X0019026Y0012190D01*
X0019128Y0012040D01*
X0019232Y0011892D01*
X0019341Y0011746D01*
X0019452Y0011604D01*
X0019568Y0011464D01*
X0019686Y0011327D01*
X0019808Y0011192D01*
X0019933Y0011061D01*
X0020061Y0010933D01*
X0020192Y0010808D01*
X0020327Y0010686D01*
X0020464Y0010568D01*
X0020604Y0010452D01*
X0020746Y0010341D01*
X0020892Y0010232D01*
X0021040Y0010128D01*
X0021190Y0010026D01*
X0021343Y0009929D01*
X0021498Y0009835D01*
X0021655Y0009745D01*
X0021815Y0009659D01*
X0021976Y0009577D01*
X0022139Y0009498D01*
X0022305Y0009424D01*
X0022472Y0009354D01*
X0022640Y0009287D01*
X0022811Y0009225D01*
X0022982Y0009167D01*
X0023155Y0009113D01*
X0023330Y0009063D01*
X0023505Y0009018D01*
X0023682Y0008977D01*
X0023859Y0008940D01*
X0024037Y0008907D01*
X0024216Y0008879D01*
X0024396Y0008855D01*
X0024576Y0008835D01*
X0024757Y0008820D01*
X0024938Y0008809D01*
X0025119Y0008802D01*
X0025300Y0008800D01*
X0050550Y0015550D02*
X0140550Y0015550D01*
X0140698Y0015568D01*
X0140845Y0015590D01*
X0140992Y0015616D01*
X0141137Y0015646D01*
X0141282Y0015680D01*
X0141427Y0015718D01*
X0141570Y0015759D01*
X0141712Y0015804D01*
X0141852Y0015853D01*
X0141991Y0015906D01*
X0142129Y0015962D01*
X0142266Y0016022D01*
X0142401Y0016085D01*
X0142534Y0016152D01*
X0142665Y0016222D01*
X0142794Y0016296D01*
X0142921Y0016373D01*
X0143047Y0016454D01*
X0143170Y0016537D01*
X0143291Y0016624D01*
X0143409Y0016715D01*
X0143525Y0016808D01*
X0143639Y0016904D01*
X0143750Y0017003D01*
X0143859Y0017105D01*
X0143964Y0017210D01*
X0144067Y0017318D01*
X0144167Y0017428D01*
X0144264Y0017541D01*
X0144358Y0017656D01*
X0144449Y0017774D01*
X0144537Y0017894D01*
X0144622Y0018017D01*
X0144703Y0018141D01*
X0144782Y0018268D01*
X0144856Y0018397D01*
X0144928Y0018528D01*
X0144996Y0018660D01*
X0145060Y0018794D01*
X0145121Y0018930D01*
X0145178Y0019068D01*
X0145232Y0019207D01*
X0145282Y0019347D01*
X0145328Y0019489D01*
X0145370Y0019631D01*
X0145409Y0019775D01*
X0145444Y0019920D01*
X0145475Y0020065D01*
X0145502Y0020212D01*
X0145526Y0020359D01*
X0145545Y0020506D01*
X0145561Y0020655D01*
X0145573Y0020803D01*
X0145581Y0020952D01*
X0145585Y0021101D01*
X0145585Y0021249D01*
X0145581Y0021398D01*
X0145573Y0021547D01*
X0145561Y0021695D01*
X0145545Y0021844D01*
X0145526Y0021991D01*
X0145502Y0022138D01*
X0145475Y0022285D01*
X0145444Y0022430D01*
X0145409Y0022575D01*
X0145370Y0022719D01*
X0145328Y0022861D01*
X0145282Y0023003D01*
X0145232Y0023143D01*
X0145178Y0023282D01*
X0145121Y0023420D01*
X0145060Y0023556D01*
X0144996Y0023690D01*
X0144928Y0023822D01*
X0144856Y0023953D01*
X0144782Y0024082D01*
X0144703Y0024209D01*
X0144622Y0024333D01*
X0144537Y0024456D01*
X0144449Y0024576D01*
X0144358Y0024694D01*
X0144264Y0024809D01*
X0144167Y0024922D01*
X0144067Y0025032D01*
X0143964Y0025140D01*
X0143859Y0025245D01*
X0143750Y0025347D01*
X0143639Y0025446D01*
X0143525Y0025542D01*
X0143409Y0025635D01*
X0143291Y0025726D01*
X0143170Y0025813D01*
X0143047Y0025896D01*
X0142921Y0025977D01*
X0142794Y0026054D01*
X0142665Y0026128D01*
X0142534Y0026198D01*
X0142401Y0026265D01*
X0142266Y0026328D01*
X0142129Y0026388D01*
X0141991Y0026444D01*
X0141852Y0026497D01*
X0141712Y0026546D01*
X0141570Y0026591D01*
X0141427Y0026632D01*
X0141282Y0026670D01*
X0141137Y0026704D01*
X0140992Y0026734D01*
X0140845Y0026760D01*
X0140698Y0026782D01*
X0140550Y0026800D01*
X0050550Y0026800D01*
X0050402Y0026782D01*
X0050255Y0026760D01*
X0050108Y0026734D01*
X0049963Y0026704D01*
X0049818Y0026670D01*
X0049673Y0026632D01*
X0049530Y0026591D01*
X0049388Y0026546D01*
X0049248Y0026497D01*
X0049109Y0026444D01*
X0048971Y0026388D01*
X0048834Y0026328D01*
X0048699Y0026265D01*
X0048566Y0026198D01*
X0048435Y0026128D01*
X0048306Y0026054D01*
X0048179Y0025977D01*
X0048053Y0025896D01*
X0047930Y0025813D01*
X0047809Y0025726D01*
X0047691Y0025635D01*
X0047575Y0025542D01*
X0047461Y0025446D01*
X0047350Y0025347D01*
X0047241Y0025245D01*
X0047136Y0025140D01*
X0047033Y0025032D01*
X0046933Y0024922D01*
X0046836Y0024809D01*
X0046742Y0024694D01*
X0046651Y0024576D01*
X0046563Y0024456D01*
X0046478Y0024333D01*
X0046397Y0024209D01*
X0046318Y0024082D01*
X0046244Y0023953D01*
X0046172Y0023822D01*
X0046104Y0023690D01*
X0046040Y0023556D01*
X0045979Y0023420D01*
X0045922Y0023282D01*
X0045868Y0023143D01*
X0045818Y0023003D01*
X0045772Y0022861D01*
X0045730Y0022719D01*
X0045691Y0022575D01*
X0045656Y0022430D01*
X0045625Y0022285D01*
X0045598Y0022138D01*
X0045574Y0021991D01*
X0045555Y0021844D01*
X0045539Y0021695D01*
X0045527Y0021547D01*
X0045519Y0021398D01*
X0045515Y0021249D01*
X0045515Y0021101D01*
X0045519Y0020952D01*
X0045527Y0020803D01*
X0045539Y0020655D01*
X0045555Y0020506D01*
X0045574Y0020359D01*
X0045598Y0020212D01*
X0045625Y0020065D01*
X0045656Y0019920D01*
X0045691Y0019775D01*
X0045730Y0019631D01*
X0045772Y0019489D01*
X0045818Y0019347D01*
X0045868Y0019207D01*
X0045922Y0019068D01*
X0045979Y0018930D01*
X0046040Y0018794D01*
X0046104Y0018660D01*
X0046172Y0018528D01*
X0046244Y0018397D01*
X0046318Y0018268D01*
X0046397Y0018141D01*
X0046478Y0018017D01*
X0046563Y0017894D01*
X0046651Y0017774D01*
X0046742Y0017656D01*
X0046836Y0017541D01*
X0046933Y0017428D01*
X0047033Y0017318D01*
X0047136Y0017210D01*
X0047241Y0017105D01*
X0047350Y0017003D01*
X0047461Y0016904D01*
X0047575Y0016808D01*
X0047691Y0016715D01*
X0047809Y0016624D01*
X0047930Y0016537D01*
X0048053Y0016454D01*
X0048179Y0016373D01*
X0048306Y0016296D01*
X0048435Y0016222D01*
X0048566Y0016152D01*
X0048699Y0016085D01*
X0048834Y0016022D01*
X0048971Y0015962D01*
X0049109Y0015906D01*
X0049248Y0015853D01*
X0049388Y0015804D01*
X0049530Y0015759D01*
X0049673Y0015718D01*
X0049818Y0015680D01*
X0049963Y0015646D01*
X0050108Y0015616D01*
X0050255Y0015590D01*
X0050402Y0015568D01*
X0050550Y0015550D01*
X0248050Y0015550D02*
X0338050Y0015550D01*
X0338198Y0015568D01*
X0338345Y0015590D01*
X0338492Y0015616D01*
X0338637Y0015646D01*
X0338782Y0015680D01*
X0338927Y0015718D01*
X0339070Y0015759D01*
X0339212Y0015804D01*
X0339352Y0015853D01*
X0339491Y0015906D01*
X0339629Y0015962D01*
X0339766Y0016022D01*
X0339901Y0016085D01*
X0340034Y0016152D01*
X0340165Y0016222D01*
X0340294Y0016296D01*
X0340421Y0016373D01*
X0340547Y0016454D01*
X0340670Y0016537D01*
X0340791Y0016624D01*
X0340909Y0016715D01*
X0341025Y0016808D01*
X0341139Y0016904D01*
X0341250Y0017003D01*
X0341359Y0017105D01*
X0341464Y0017210D01*
X0341567Y0017318D01*
X0341667Y0017428D01*
X0341764Y0017541D01*
X0341858Y0017656D01*
X0341949Y0017774D01*
X0342037Y0017894D01*
X0342122Y0018017D01*
X0342203Y0018141D01*
X0342282Y0018268D01*
X0342356Y0018397D01*
X0342428Y0018528D01*
X0342496Y0018660D01*
X0342560Y0018794D01*
X0342621Y0018930D01*
X0342678Y0019068D01*
X0342732Y0019207D01*
X0342782Y0019347D01*
X0342828Y0019489D01*
X0342870Y0019631D01*
X0342909Y0019775D01*
X0342944Y0019920D01*
X0342975Y0020065D01*
X0343002Y0020212D01*
X0343026Y0020359D01*
X0343045Y0020506D01*
X0343061Y0020655D01*
X0343073Y0020803D01*
X0343081Y0020952D01*
X0343085Y0021101D01*
X0343085Y0021249D01*
X0343081Y0021398D01*
X0343073Y0021547D01*
X0343061Y0021695D01*
X0343045Y0021844D01*
X0343026Y0021991D01*
X0343002Y0022138D01*
X0342975Y0022285D01*
X0342944Y0022430D01*
X0342909Y0022575D01*
X0342870Y0022719D01*
X0342828Y0022861D01*
X0342782Y0023003D01*
X0342732Y0023143D01*
X0342678Y0023282D01*
X0342621Y0023420D01*
X0342560Y0023556D01*
X0342496Y0023690D01*
X0342428Y0023822D01*
X0342356Y0023953D01*
X0342282Y0024082D01*
X0342203Y0024209D01*
X0342122Y0024333D01*
X0342037Y0024456D01*
X0341949Y0024576D01*
X0341858Y0024694D01*
X0341764Y0024809D01*
X0341667Y0024922D01*
X0341567Y0025032D01*
X0341464Y0025140D01*
X0341359Y0025245D01*
X0341250Y0025347D01*
X0341139Y0025446D01*
X0341025Y0025542D01*
X0340909Y0025635D01*
X0340791Y0025726D01*
X0340670Y0025813D01*
X0340547Y0025896D01*
X0340421Y0025977D01*
X0340294Y0026054D01*
X0340165Y0026128D01*
X0340034Y0026198D01*
X0339901Y0026265D01*
X0339766Y0026328D01*
X0339629Y0026388D01*
X0339491Y0026444D01*
X0339352Y0026497D01*
X0339212Y0026546D01*
X0339070Y0026591D01*
X0338927Y0026632D01*
X0338782Y0026670D01*
X0338637Y0026704D01*
X0338492Y0026734D01*
X0338345Y0026760D01*
X0338198Y0026782D01*
X0338050Y0026800D01*
X0248050Y0026800D01*
X0247902Y0026782D01*
X0247755Y0026760D01*
X0247608Y0026734D01*
X0247463Y0026704D01*
X0247318Y0026670D01*
X0247173Y0026632D01*
X0247030Y0026591D01*
X0246888Y0026546D01*
X0246748Y0026497D01*
X0246609Y0026444D01*
X0246471Y0026388D01*
X0246334Y0026328D01*
X0246199Y0026265D01*
X0246066Y0026198D01*
X0245935Y0026128D01*
X0245806Y0026054D01*
X0245679Y0025977D01*
X0245553Y0025896D01*
X0245430Y0025813D01*
X0245309Y0025726D01*
X0245191Y0025635D01*
X0245075Y0025542D01*
X0244961Y0025446D01*
X0244850Y0025347D01*
X0244741Y0025245D01*
X0244636Y0025140D01*
X0244533Y0025032D01*
X0244433Y0024922D01*
X0244336Y0024809D01*
X0244242Y0024694D01*
X0244151Y0024576D01*
X0244063Y0024456D01*
X0243978Y0024333D01*
X0243897Y0024209D01*
X0243818Y0024082D01*
X0243744Y0023953D01*
X0243672Y0023822D01*
X0243604Y0023690D01*
X0243540Y0023556D01*
X0243479Y0023420D01*
X0243422Y0023282D01*
X0243368Y0023143D01*
X0243318Y0023003D01*
X0243272Y0022861D01*
X0243230Y0022719D01*
X0243191Y0022575D01*
X0243156Y0022430D01*
X0243125Y0022285D01*
X0243098Y0022138D01*
X0243074Y0021991D01*
X0243055Y0021844D01*
X0243039Y0021695D01*
X0243027Y0021547D01*
X0243019Y0021398D01*
X0243015Y0021249D01*
X0243015Y0021101D01*
X0243019Y0020952D01*
X0243027Y0020803D01*
X0243039Y0020655D01*
X0243055Y0020506D01*
X0243074Y0020359D01*
X0243098Y0020212D01*
X0243125Y0020065D01*
X0243156Y0019920D01*
X0243191Y0019775D01*
X0243230Y0019631D01*
X0243272Y0019489D01*
X0243318Y0019347D01*
X0243368Y0019207D01*
X0243422Y0019068D01*
X0243479Y0018930D01*
X0243540Y0018794D01*
X0243604Y0018660D01*
X0243672Y0018528D01*
X0243744Y0018397D01*
X0243818Y0018268D01*
X0243897Y0018141D01*
X0243978Y0018017D01*
X0244063Y0017894D01*
X0244151Y0017774D01*
X0244242Y0017656D01*
X0244336Y0017541D01*
X0244433Y0017428D01*
X0244533Y0017318D01*
X0244636Y0017210D01*
X0244741Y0017105D01*
X0244850Y0017003D01*
X0244961Y0016904D01*
X0245075Y0016808D01*
X0245191Y0016715D01*
X0245309Y0016624D01*
X0245430Y0016537D01*
X0245553Y0016454D01*
X0245679Y0016373D01*
X0245806Y0016296D01*
X0245935Y0016222D01*
X0246066Y0016152D01*
X0246199Y0016085D01*
X0246334Y0016022D01*
X0246471Y0015962D01*
X0246609Y0015906D01*
X0246748Y0015853D01*
X0246888Y0015804D01*
X0247030Y0015759D01*
X0247173Y0015718D01*
X0247318Y0015680D01*
X0247463Y0015646D01*
X0247608Y0015616D01*
X0247755Y0015590D01*
X0247902Y0015568D01*
X0248050Y0015550D01*
D11*
X0363050Y0016800D03*
X0363050Y0141800D03*
X0025550Y0141800D03*
X0025550Y0016800D03*
D12*
X0158300Y0059850D02*
X0158300Y0067250D01*
X0168300Y0067250D02*
X0168300Y0059850D01*
X0178300Y0059850D02*
X0178300Y0067250D01*
X0188300Y0067250D02*
X0188300Y0059850D01*
X0198300Y0059850D02*
X0198300Y0067250D01*
X0208300Y0067250D02*
X0208300Y0059850D01*
X0218300Y0059850D02*
X0218300Y0067250D01*
X0228300Y0067250D02*
X0228300Y0059850D01*
D13*
X0311800Y0042300D03*
X0113800Y0042300D03*
D14*
X0009300Y0001800D02*
X0009300Y0151800D01*
X0013163Y0151800D01*
X0013057Y0151694D01*
X0011043Y0148206D01*
X0011043Y0148206D01*
X0010680Y0146854D01*
X0010583Y0146663D01*
X0010517Y0146242D01*
X0010000Y0144314D01*
X0010000Y0142981D01*
X0009813Y0141800D01*
X0010000Y0140619D01*
X0010000Y0017981D01*
X0009813Y0016800D01*
X0010000Y0015619D01*
X0010000Y0014748D01*
X0010000Y0014286D01*
X0010517Y0012358D01*
X0010583Y0011937D01*
X0010680Y0011746D01*
X0011043Y0010394D01*
X0013057Y0006906D01*
X0013057Y0006906D01*
X0015906Y0004057D01*
X0019394Y0002043D01*
X0019394Y0002043D01*
X0020300Y0001800D01*
X0009300Y0001800D01*
X0009300Y0001948D02*
X0019746Y0001948D01*
X0016789Y0003547D02*
X0009300Y0003547D01*
X0009300Y0005145D02*
X0014817Y0005145D01*
X0015906Y0004057D02*
X0015906Y0004057D01*
X0015906Y0004057D01*
X0013219Y0006744D02*
X0009300Y0006744D01*
X0009300Y0008342D02*
X0012227Y0008342D01*
X0011304Y0009941D02*
X0009300Y0009941D01*
X0009300Y0011539D02*
X0010736Y0011539D01*
X0010308Y0013138D02*
X0009300Y0013138D01*
X0009300Y0014737D02*
X0010000Y0014737D01*
X0009887Y0016335D02*
X0009300Y0016335D01*
X0009300Y0017934D02*
X0009993Y0017934D01*
X0010000Y0019532D02*
X0009300Y0019532D01*
X0009300Y0021131D02*
X0010000Y0021131D01*
X0010000Y0022729D02*
X0009300Y0022729D01*
X0009300Y0024328D02*
X0010000Y0024328D01*
X0010000Y0025926D02*
X0009300Y0025926D01*
X0009300Y0027525D02*
X0010000Y0027525D01*
X0010000Y0029123D02*
X0009300Y0029123D01*
X0009300Y0030722D02*
X0010000Y0030722D01*
X0010000Y0032320D02*
X0009300Y0032320D01*
X0009300Y0033919D02*
X0010000Y0033919D01*
X0010000Y0035517D02*
X0009300Y0035517D01*
X0009300Y0037116D02*
X0010000Y0037116D01*
X0010000Y0038714D02*
X0009300Y0038714D01*
X0009300Y0040313D02*
X0010000Y0040313D01*
X0010000Y0041911D02*
X0009300Y0041911D01*
X0009300Y0043510D02*
X0010000Y0043510D01*
X0010000Y0045108D02*
X0009300Y0045108D01*
X0009300Y0046707D02*
X0010000Y0046707D01*
X0010000Y0048305D02*
X0009300Y0048305D01*
X0009300Y0049904D02*
X0010000Y0049904D01*
X0010000Y0051502D02*
X0009300Y0051502D01*
X0009300Y0053101D02*
X0010000Y0053101D01*
X0010000Y0054699D02*
X0009300Y0054699D01*
X0009300Y0056298D02*
X0010000Y0056298D01*
X0010000Y0057896D02*
X0009300Y0057896D01*
X0009300Y0059495D02*
X0010000Y0059495D01*
X0010000Y0061093D02*
X0009300Y0061093D01*
X0009300Y0062692D02*
X0010000Y0062692D01*
X0010000Y0064290D02*
X0009300Y0064290D01*
X0009300Y0065889D02*
X0010000Y0065889D01*
X0010000Y0067487D02*
X0009300Y0067487D01*
X0009300Y0069086D02*
X0010000Y0069086D01*
X0010000Y0070684D02*
X0009300Y0070684D01*
X0009300Y0072283D02*
X0010000Y0072283D01*
X0010000Y0073881D02*
X0009300Y0073881D01*
X0009300Y0075480D02*
X0010000Y0075480D01*
X0010000Y0077078D02*
X0009300Y0077078D01*
X0009300Y0078677D02*
X0010000Y0078677D01*
X0010000Y0080275D02*
X0009300Y0080275D01*
X0009300Y0081874D02*
X0010000Y0081874D01*
X0010000Y0083472D02*
X0009300Y0083472D01*
X0009300Y0085071D02*
X0010000Y0085071D01*
X0010000Y0086670D02*
X0009300Y0086670D01*
X0009300Y0088268D02*
X0010000Y0088268D01*
X0010000Y0089867D02*
X0009300Y0089867D01*
X0009300Y0091465D02*
X0010000Y0091465D01*
X0010000Y0093064D02*
X0009300Y0093064D01*
X0009300Y0094662D02*
X0010000Y0094662D01*
X0010000Y0096261D02*
X0009300Y0096261D01*
X0009300Y0097859D02*
X0010000Y0097859D01*
X0010000Y0099458D02*
X0009300Y0099458D01*
X0009300Y0101056D02*
X0010000Y0101056D01*
X0010000Y0102655D02*
X0009300Y0102655D01*
X0009300Y0104253D02*
X0010000Y0104253D01*
X0010000Y0105852D02*
X0009300Y0105852D01*
X0009300Y0107450D02*
X0010000Y0107450D01*
X0010000Y0109049D02*
X0009300Y0109049D01*
X0009300Y0110647D02*
X0010000Y0110647D01*
X0010000Y0112246D02*
X0009300Y0112246D01*
X0009300Y0113844D02*
X0010000Y0113844D01*
X0010000Y0115443D02*
X0009300Y0115443D01*
X0009300Y0117041D02*
X0010000Y0117041D01*
X0010000Y0118640D02*
X0009300Y0118640D01*
X0009300Y0120238D02*
X0010000Y0120238D01*
X0010000Y0121837D02*
X0009300Y0121837D01*
X0009300Y0123435D02*
X0010000Y0123435D01*
X0010000Y0125034D02*
X0009300Y0125034D01*
X0009300Y0126632D02*
X0010000Y0126632D01*
X0010000Y0128231D02*
X0009300Y0128231D01*
X0009300Y0129829D02*
X0010000Y0129829D01*
X0010000Y0131428D02*
X0009300Y0131428D01*
X0009300Y0133026D02*
X0010000Y0133026D01*
X0010000Y0134625D02*
X0009300Y0134625D01*
X0009300Y0136223D02*
X0010000Y0136223D01*
X0010000Y0137822D02*
X0009300Y0137822D01*
X0009300Y0139420D02*
X0010000Y0139420D01*
X0009937Y0141019D02*
X0009300Y0141019D01*
X0009300Y0142617D02*
X0009942Y0142617D01*
X0010000Y0144216D02*
X0009300Y0144216D01*
X0009300Y0145814D02*
X0010402Y0145814D01*
X0010830Y0147413D02*
X0009300Y0147413D01*
X0009300Y0149011D02*
X0011508Y0149011D01*
X0012431Y0150610D02*
X0009300Y0150610D01*
X0013057Y0151694D02*
X0013057Y0151694D01*
X0041255Y0142000D02*
X0347345Y0142000D01*
X0347313Y0141800D01*
X0348083Y0136937D01*
X0350318Y0132550D01*
X0353800Y0129068D01*
X0358187Y0126833D01*
X0362500Y0126150D01*
X0362500Y0032450D01*
X0358187Y0031767D01*
X0353800Y0029531D01*
X0350318Y0026050D01*
X0350198Y0025814D01*
X0348291Y0029418D01*
X0345096Y0032452D01*
X0341101Y0034309D01*
X0340012Y0034430D01*
X0339602Y0034600D01*
X0338482Y0034600D01*
X0337369Y0034724D01*
X0336943Y0034600D01*
X0327611Y0034600D01*
X0329599Y0036589D01*
X0331000Y0039970D01*
X0331000Y0043630D01*
X0330000Y0046044D01*
X0330000Y0048431D01*
X0328752Y0051445D01*
X0326445Y0053752D01*
X0323431Y0055000D01*
X0307669Y0055000D01*
X0304655Y0053752D01*
X0302348Y0051445D01*
X0300903Y0050000D01*
X0234239Y0050000D01*
X0235361Y0050648D01*
X0237502Y0052789D01*
X0239016Y0055411D01*
X0239800Y0058336D01*
X0239800Y0068764D01*
X0239016Y0071689D01*
X0237502Y0074311D01*
X0235361Y0076452D01*
X0232739Y0077966D01*
X0229814Y0078750D01*
X0226786Y0078750D01*
X0223861Y0077966D01*
X0223300Y0077642D01*
X0222739Y0077966D01*
X0219814Y0078750D01*
X0216786Y0078750D01*
X0216250Y0078606D01*
X0216250Y0081100D01*
X0290739Y0081100D01*
X0291589Y0080251D01*
X0294970Y0078850D01*
X0298630Y0078850D01*
X0302011Y0080251D01*
X0304599Y0082839D01*
X0304838Y0083415D01*
X0307155Y0081098D01*
X0309009Y0080331D01*
X0309089Y0080251D01*
X0312470Y0078850D01*
X0316130Y0078850D01*
X0319511Y0080251D01*
X0322099Y0082839D01*
X0323500Y0086220D01*
X0323500Y0089880D01*
X0322705Y0091800D01*
X0323500Y0093720D01*
X0323500Y0097380D01*
X0322500Y0099794D01*
X0322500Y0103431D01*
X0321252Y0106445D01*
X0317502Y0110195D01*
X0315195Y0112502D01*
X0312181Y0113750D01*
X0160169Y0113750D01*
X0157155Y0112502D01*
X0147155Y0102502D01*
X0144848Y0100195D01*
X0143600Y0097181D01*
X0143600Y0068419D01*
X0144848Y0065405D01*
X0146800Y0063453D01*
X0146800Y0058336D01*
X0147584Y0055411D01*
X0149098Y0052789D01*
X0151239Y0050648D01*
X0153861Y0049134D01*
X0156786Y0048350D01*
X0159814Y0048350D01*
X0162739Y0049134D01*
X0163300Y0049458D01*
X0163861Y0049134D01*
X0166786Y0048350D01*
X0169814Y0048350D01*
X0172739Y0049134D01*
X0173300Y0049458D01*
X0173861Y0049134D01*
X0176786Y0048350D01*
X0179814Y0048350D01*
X0182739Y0049134D01*
X0183300Y0049458D01*
X0183861Y0049134D01*
X0185700Y0048641D01*
X0185700Y0044900D01*
X0123481Y0044900D01*
X0123481Y0045733D01*
X0122500Y0048101D01*
X0122500Y0105056D01*
X0123500Y0107470D01*
X0123500Y0111130D01*
X0122099Y0114511D01*
X0119511Y0117099D01*
X0116130Y0118500D01*
X0112470Y0118500D01*
X0109089Y0117099D01*
X0106501Y0114511D01*
X0105100Y0111130D01*
X0105100Y0107470D01*
X0106100Y0105056D01*
X0106100Y0049393D01*
X0105306Y0048599D01*
X0104119Y0045733D01*
X0104119Y0038867D01*
X0105200Y0036257D01*
X0105200Y0034600D01*
X0051657Y0034600D01*
X0051231Y0034724D01*
X0050118Y0034600D01*
X0048998Y0034600D01*
X0048588Y0034430D01*
X0047499Y0034309D01*
X0043504Y0032452D01*
X0040309Y0029418D01*
X0040309Y0029418D01*
X0038402Y0025814D01*
X0038281Y0026050D01*
X0034800Y0029531D01*
X0030413Y0031767D01*
X0025600Y0032529D01*
X0025600Y0126071D01*
X0030413Y0126833D01*
X0034800Y0129068D01*
X0038281Y0132550D01*
X0040517Y0136937D01*
X0041287Y0141800D01*
X0041255Y0142000D01*
X0041163Y0141019D02*
X0347437Y0141019D01*
X0347690Y0139420D02*
X0040910Y0139420D01*
X0040657Y0137822D02*
X0347943Y0137822D01*
X0348447Y0136223D02*
X0040153Y0136223D01*
X0039339Y0134625D02*
X0349261Y0134625D01*
X0350076Y0133026D02*
X0038524Y0133026D01*
X0037159Y0131428D02*
X0351441Y0131428D01*
X0353039Y0129829D02*
X0035561Y0129829D01*
X0033156Y0128231D02*
X0355444Y0128231D01*
X0359456Y0126632D02*
X0029144Y0126632D01*
X0025600Y0125034D02*
X0362500Y0125034D01*
X0362500Y0123435D02*
X0025600Y0123435D01*
X0025600Y0121837D02*
X0362500Y0121837D01*
X0362500Y0120238D02*
X0025600Y0120238D01*
X0025600Y0118640D02*
X0362500Y0118640D01*
X0362500Y0117041D02*
X0119570Y0117041D01*
X0121168Y0115443D02*
X0362500Y0115443D01*
X0362500Y0113844D02*
X0122376Y0113844D01*
X0123038Y0112246D02*
X0156899Y0112246D01*
X0155301Y0110647D02*
X0123500Y0110647D01*
X0123500Y0109049D02*
X0153702Y0109049D01*
X0152104Y0107450D02*
X0123492Y0107450D01*
X0122830Y0105852D02*
X0150505Y0105852D01*
X0148907Y0104253D02*
X0122500Y0104253D01*
X0122500Y0102655D02*
X0147308Y0102655D01*
X0145710Y0101056D02*
X0122500Y0101056D01*
X0122500Y0099458D02*
X0144543Y0099458D01*
X0143881Y0097859D02*
X0122500Y0097859D01*
X0122500Y0096261D02*
X0143600Y0096261D01*
X0143600Y0094662D02*
X0122500Y0094662D01*
X0122500Y0093064D02*
X0143600Y0093064D01*
X0143600Y0091465D02*
X0122500Y0091465D01*
X0122500Y0089867D02*
X0143600Y0089867D01*
X0143600Y0088268D02*
X0122500Y0088268D01*
X0122500Y0086670D02*
X0143600Y0086670D01*
X0143600Y0085071D02*
X0122500Y0085071D01*
X0122500Y0083472D02*
X0143600Y0083472D01*
X0143600Y0081874D02*
X0122500Y0081874D01*
X0122500Y0080275D02*
X0143600Y0080275D01*
X0143600Y0078677D02*
X0122500Y0078677D01*
X0122500Y0077078D02*
X0143600Y0077078D01*
X0143600Y0075480D02*
X0122500Y0075480D01*
X0122500Y0073881D02*
X0143600Y0073881D01*
X0143600Y0072283D02*
X0122500Y0072283D01*
X0122500Y0070684D02*
X0143600Y0070684D01*
X0143600Y0069086D02*
X0122500Y0069086D01*
X0122500Y0067487D02*
X0143986Y0067487D01*
X0144648Y0065889D02*
X0122500Y0065889D01*
X0122500Y0064290D02*
X0145963Y0064290D01*
X0146800Y0062692D02*
X0122500Y0062692D01*
X0122500Y0061093D02*
X0146800Y0061093D01*
X0146800Y0059495D02*
X0122500Y0059495D01*
X0122500Y0057896D02*
X0146918Y0057896D01*
X0147346Y0056298D02*
X0122500Y0056298D01*
X0122500Y0054699D02*
X0147995Y0054699D01*
X0148918Y0053101D02*
X0122500Y0053101D01*
X0122500Y0051502D02*
X0150384Y0051502D01*
X0152527Y0049904D02*
X0122500Y0049904D01*
X0122500Y0048305D02*
X0185700Y0048305D01*
X0185700Y0046707D02*
X0123078Y0046707D01*
X0123481Y0045108D02*
X0185700Y0045108D01*
X0194300Y0049300D02*
X0194300Y0038050D01*
X0195550Y0036300D01*
X0311800Y0036300D01*
X0311800Y0042300D01*
X0328528Y0035517D02*
X0362500Y0035517D01*
X0362500Y0033919D02*
X0341941Y0033919D01*
X0345096Y0032452D02*
X0345096Y0032452D01*
X0345235Y0032320D02*
X0361681Y0032320D01*
X0356136Y0030722D02*
X0346918Y0030722D01*
X0348447Y0029123D02*
X0353392Y0029123D01*
X0351793Y0027525D02*
X0349293Y0027525D01*
X0350139Y0025926D02*
X0350255Y0025926D01*
X0362500Y0037116D02*
X0329818Y0037116D01*
X0330480Y0038714D02*
X0362500Y0038714D01*
X0362500Y0040313D02*
X0331000Y0040313D01*
X0331000Y0041911D02*
X0362500Y0041911D01*
X0362500Y0043510D02*
X0331000Y0043510D01*
X0330388Y0045108D02*
X0362500Y0045108D01*
X0362500Y0046707D02*
X0330000Y0046707D01*
X0330000Y0048305D02*
X0362500Y0048305D01*
X0362500Y0049904D02*
X0329390Y0049904D01*
X0328694Y0051502D02*
X0362500Y0051502D01*
X0362500Y0053101D02*
X0327096Y0053101D01*
X0324157Y0054699D02*
X0362500Y0054699D01*
X0362500Y0056298D02*
X0239254Y0056298D01*
X0239682Y0057896D02*
X0362500Y0057896D01*
X0362500Y0059495D02*
X0239800Y0059495D01*
X0239800Y0061093D02*
X0362500Y0061093D01*
X0362500Y0062692D02*
X0239800Y0062692D01*
X0239800Y0064290D02*
X0362500Y0064290D01*
X0362500Y0065889D02*
X0239800Y0065889D01*
X0239800Y0067487D02*
X0362500Y0067487D01*
X0362500Y0069086D02*
X0239714Y0069086D01*
X0239285Y0070684D02*
X0362500Y0070684D01*
X0362500Y0072283D02*
X0238673Y0072283D01*
X0237750Y0073881D02*
X0362500Y0073881D01*
X0362500Y0075480D02*
X0236334Y0075480D01*
X0234277Y0077078D02*
X0362500Y0077078D01*
X0362500Y0078677D02*
X0230087Y0078677D01*
X0226513Y0078677D02*
X0220087Y0078677D01*
X0216513Y0078677D02*
X0216250Y0078677D01*
X0216250Y0080275D02*
X0291564Y0080275D01*
X0302036Y0080275D02*
X0309064Y0080275D01*
X0306379Y0081874D02*
X0303635Y0081874D01*
X0319536Y0080275D02*
X0362500Y0080275D01*
X0362500Y0081874D02*
X0321135Y0081874D01*
X0322362Y0083472D02*
X0362500Y0083472D01*
X0362500Y0085071D02*
X0323024Y0085071D01*
X0323500Y0086670D02*
X0362500Y0086670D01*
X0362500Y0088268D02*
X0323500Y0088268D01*
X0323500Y0089867D02*
X0362500Y0089867D01*
X0362500Y0091465D02*
X0322843Y0091465D01*
X0323228Y0093064D02*
X0362500Y0093064D01*
X0362500Y0094662D02*
X0323500Y0094662D01*
X0323500Y0096261D02*
X0362500Y0096261D01*
X0362500Y0097859D02*
X0323302Y0097859D01*
X0322639Y0099458D02*
X0362500Y0099458D01*
X0362500Y0101056D02*
X0322500Y0101056D01*
X0322500Y0102655D02*
X0362500Y0102655D01*
X0362500Y0104253D02*
X0322159Y0104253D01*
X0321497Y0105852D02*
X0362500Y0105852D01*
X0362500Y0107450D02*
X0320246Y0107450D01*
X0318648Y0109049D02*
X0362500Y0109049D01*
X0362500Y0110647D02*
X0317049Y0110647D01*
X0317502Y0110195D02*
X0317502Y0110195D01*
X0315451Y0112246D02*
X0362500Y0112246D01*
X0376800Y0149051D02*
X0375781Y0151050D01*
X0375031Y0151800D01*
X0376800Y0151800D01*
X0376800Y0149051D01*
X0376800Y0150610D02*
X0376006Y0150610D01*
X0189850Y0092350D02*
X0189850Y0078740D01*
X0189814Y0078750D01*
X0186786Y0078750D01*
X0186316Y0078624D01*
X0185252Y0081195D01*
X0183750Y0082697D01*
X0183750Y0092153D01*
X0183947Y0092350D01*
X0189850Y0092350D01*
X0189850Y0091465D02*
X0183750Y0091465D01*
X0183750Y0089867D02*
X0189850Y0089867D01*
X0189850Y0088268D02*
X0183750Y0088268D01*
X0183750Y0086670D02*
X0189850Y0086670D01*
X0189850Y0085071D02*
X0183750Y0085071D01*
X0183750Y0083472D02*
X0189850Y0083472D01*
X0189850Y0081874D02*
X0184573Y0081874D01*
X0185632Y0080275D02*
X0189850Y0080275D01*
X0186513Y0078677D02*
X0186295Y0078677D01*
X0167350Y0087500D02*
X0162294Y0087500D01*
X0160000Y0088450D01*
X0160000Y0092153D01*
X0165197Y0097350D01*
X0167420Y0097350D01*
X0167350Y0097181D01*
X0167350Y0087500D01*
X0167350Y0088268D02*
X0160440Y0088268D01*
X0160000Y0089867D02*
X0167350Y0089867D01*
X0167350Y0091465D02*
X0160000Y0091465D01*
X0160910Y0093064D02*
X0167350Y0093064D01*
X0167350Y0094662D02*
X0162509Y0094662D01*
X0164107Y0096261D02*
X0167350Y0096261D01*
X0109030Y0117041D02*
X0025600Y0117041D01*
X0025600Y0115443D02*
X0107432Y0115443D01*
X0106224Y0113844D02*
X0025600Y0113844D01*
X0025600Y0112246D02*
X0105562Y0112246D01*
X0105100Y0110647D02*
X0025600Y0110647D01*
X0025600Y0109049D02*
X0105100Y0109049D01*
X0105108Y0107450D02*
X0025600Y0107450D01*
X0025600Y0105852D02*
X0105770Y0105852D01*
X0106100Y0104253D02*
X0025600Y0104253D01*
X0025600Y0102655D02*
X0106100Y0102655D01*
X0106100Y0101056D02*
X0025600Y0101056D01*
X0025600Y0099458D02*
X0106100Y0099458D01*
X0106100Y0097859D02*
X0025600Y0097859D01*
X0025600Y0096261D02*
X0106100Y0096261D01*
X0106100Y0094662D02*
X0025600Y0094662D01*
X0025600Y0093064D02*
X0106100Y0093064D01*
X0106100Y0091465D02*
X0025600Y0091465D01*
X0025600Y0089867D02*
X0106100Y0089867D01*
X0106100Y0088268D02*
X0025600Y0088268D01*
X0025600Y0086670D02*
X0106100Y0086670D01*
X0106100Y0085071D02*
X0025600Y0085071D01*
X0025600Y0083472D02*
X0106100Y0083472D01*
X0106100Y0081874D02*
X0025600Y0081874D01*
X0025600Y0080275D02*
X0106100Y0080275D01*
X0106100Y0078677D02*
X0025600Y0078677D01*
X0025600Y0077078D02*
X0106100Y0077078D01*
X0106100Y0075480D02*
X0025600Y0075480D01*
X0025600Y0073881D02*
X0106100Y0073881D01*
X0106100Y0072283D02*
X0025600Y0072283D01*
X0025600Y0070684D02*
X0106100Y0070684D01*
X0106100Y0069086D02*
X0025600Y0069086D01*
X0025600Y0067487D02*
X0106100Y0067487D01*
X0106100Y0065889D02*
X0025600Y0065889D01*
X0025600Y0064290D02*
X0106100Y0064290D01*
X0106100Y0062692D02*
X0025600Y0062692D01*
X0025600Y0061093D02*
X0106100Y0061093D01*
X0106100Y0059495D02*
X0025600Y0059495D01*
X0025600Y0057896D02*
X0106100Y0057896D01*
X0106100Y0056298D02*
X0025600Y0056298D01*
X0025600Y0054699D02*
X0106100Y0054699D01*
X0106100Y0053101D02*
X0025600Y0053101D01*
X0025600Y0051502D02*
X0106100Y0051502D01*
X0106100Y0049904D02*
X0025600Y0049904D01*
X0025600Y0048305D02*
X0105185Y0048305D01*
X0104522Y0046707D02*
X0025600Y0046707D01*
X0025600Y0045108D02*
X0104119Y0045108D01*
X0104119Y0043510D02*
X0025600Y0043510D01*
X0025600Y0041911D02*
X0104119Y0041911D01*
X0104119Y0040313D02*
X0025600Y0040313D01*
X0025600Y0038714D02*
X0104182Y0038714D01*
X0104844Y0037116D02*
X0025600Y0037116D01*
X0025600Y0035517D02*
X0105200Y0035517D01*
X0113800Y0036300D02*
X0195550Y0036300D01*
X0194838Y0027700D02*
X0195824Y0027536D01*
X0196533Y0027700D01*
X0236900Y0027700D01*
X0235748Y0025523D01*
X0235036Y0021175D01*
X0235748Y0016827D01*
X0235748Y0016827D01*
X0235868Y0016600D01*
X0152732Y0016600D01*
X0152852Y0016827D01*
X0153564Y0021175D01*
X0152852Y0025523D01*
X0152852Y0025523D01*
X0151700Y0027700D01*
X0194838Y0027700D01*
X0235044Y0021131D02*
X0153556Y0021131D01*
X0153564Y0021175D02*
X0153564Y0021175D01*
X0153309Y0022729D02*
X0235291Y0022729D01*
X0235036Y0021175D02*
X0235036Y0021175D01*
X0235305Y0019532D02*
X0153295Y0019532D01*
X0153033Y0017934D02*
X0235567Y0017934D01*
X0235552Y0024328D02*
X0153048Y0024328D01*
X0152639Y0025926D02*
X0235961Y0025926D01*
X0235748Y0025523D02*
X0235748Y0025523D01*
X0236807Y0027525D02*
X0151793Y0027525D01*
X0152852Y0016827D02*
X0152852Y0016827D01*
X0113800Y0036300D02*
X0113800Y0042300D01*
X0047499Y0034309D02*
X0047499Y0034309D01*
X0046659Y0033919D02*
X0025600Y0033919D01*
X0026919Y0032320D02*
X0043365Y0032320D01*
X0043504Y0032452D02*
X0043504Y0032452D01*
X0041682Y0030722D02*
X0032464Y0030722D01*
X0035208Y0029123D02*
X0040153Y0029123D01*
X0039307Y0027525D02*
X0036807Y0027525D01*
X0038345Y0025926D02*
X0038461Y0025926D01*
X0194300Y0049300D02*
X0218050Y0049300D01*
X0218050Y0063550D01*
X0218300Y0063550D01*
X0238605Y0054699D02*
X0306943Y0054699D01*
X0304004Y0053101D02*
X0237682Y0053101D01*
X0236216Y0051502D02*
X0302406Y0051502D01*
X0376800Y0009549D02*
X0376800Y0001800D01*
X0367800Y0001800D01*
X0368706Y0002043D01*
X0371572Y0003697D01*
X0372300Y0004068D01*
X0375781Y0007550D01*
X0376800Y0009549D01*
X0376800Y0008342D02*
X0376185Y0008342D01*
X0376800Y0006744D02*
X0374975Y0006744D01*
X0373377Y0005145D02*
X0376800Y0005145D01*
X0376800Y0003547D02*
X0371311Y0003547D01*
X0368706Y0002043D02*
X0368706Y0002043D01*
X0368354Y0001948D02*
X0376800Y0001948D01*
D15*
X0321800Y0041800D03*
X0314300Y0088050D03*
X0296800Y0088050D03*
X0293050Y0095550D03*
X0314300Y0095550D03*
X0208050Y0089300D03*
X0198050Y0096800D03*
X0158050Y0079300D03*
X0114300Y0109300D03*
X0203050Y0041800D03*
D16*
X0304300Y0041800D01*
X0309300Y0046800D01*
X0321800Y0046800D01*
X0321800Y0041800D01*
X0208300Y0063550D02*
X0208050Y0063800D01*
X0208050Y0089300D01*
X0295550Y0089300D01*
X0296800Y0088050D01*
X0299300Y0100550D02*
X0311800Y0088050D01*
X0314300Y0088050D01*
X0314300Y0095550D02*
X0314300Y0101800D01*
X0310550Y0105550D01*
X0161800Y0105550D01*
X0151800Y0095550D01*
X0151800Y0070050D01*
X0158300Y0063550D01*
X0178300Y0063550D02*
X0178300Y0076550D01*
X0175550Y0079300D01*
X0175550Y0095550D01*
X0180550Y0100550D01*
X0299300Y0100550D01*
X0293050Y0095550D02*
X0291800Y0096800D01*
X0198050Y0096800D01*
X0198050Y0063800D01*
X0198300Y0063550D01*
X0175550Y0079300D02*
X0158050Y0079300D01*
X0114300Y0109300D02*
X0114300Y0042800D01*
X0113800Y0042300D01*
M02*
