G75*
%MOIN*%
%OFA0B0*%
%FSLAX25Y25*%
%IPPOS*%
%LPD*%
%AMOC8*
5,1,8,0,0,1.08239X$1,22.5*
%
%ADD10C,0.00400*%
%ADD11C,0.00300*%
%ADD12C,0.00800*%
%ADD13C,0.00000*%
%ADD14C,0.00591*%
D10*
X0037784Y0122215D02*
X0038551Y0122215D01*
X0037784Y0122215D02*
X0037016Y0122983D01*
X0037016Y0126819D01*
X0040086Y0126819D02*
X0040086Y0124517D01*
X0039318Y0123750D01*
X0037016Y0123750D01*
X0041620Y0123750D02*
X0043922Y0123750D01*
X0044690Y0124517D01*
X0044690Y0126052D01*
X0043922Y0126819D01*
X0041620Y0126819D01*
X0041620Y0122983D01*
X0042388Y0122215D01*
X0043155Y0122215D01*
X0046224Y0124517D02*
X0046992Y0123750D01*
X0048526Y0123750D01*
X0049294Y0124517D01*
X0049294Y0126052D01*
X0048526Y0126819D01*
X0046992Y0126819D01*
X0046224Y0126052D01*
X0046224Y0124517D01*
X0050828Y0123750D02*
X0052363Y0123750D01*
X0051596Y0123750D02*
X0051596Y0128354D01*
X0052363Y0128354D01*
X0054665Y0126819D02*
X0056199Y0126819D01*
X0056967Y0126052D01*
X0056967Y0124517D01*
X0056199Y0123750D01*
X0054665Y0123750D01*
X0053898Y0124517D01*
X0053898Y0126052D01*
X0054665Y0126819D01*
X0058501Y0126052D02*
X0058501Y0123750D01*
X0061571Y0123750D02*
X0061571Y0126819D01*
X0059269Y0126819D01*
X0058501Y0126052D01*
X0063105Y0126052D02*
X0063105Y0123750D01*
X0066175Y0123750D02*
X0066175Y0128354D01*
X0065407Y0126819D02*
X0063873Y0126819D01*
X0063105Y0126052D01*
X0065407Y0126819D02*
X0066175Y0126052D01*
X0067709Y0126819D02*
X0070011Y0126819D01*
X0070779Y0126052D01*
X0070779Y0124517D01*
X0070011Y0123750D01*
X0067709Y0123750D01*
X0072313Y0125285D02*
X0075382Y0125285D01*
X0075382Y0126052D02*
X0075382Y0124517D01*
X0074615Y0123750D01*
X0073081Y0123750D01*
X0072313Y0125285D02*
X0072313Y0126052D01*
X0073081Y0126819D01*
X0074615Y0126819D01*
X0075382Y0126052D01*
X0076917Y0126819D02*
X0078452Y0126819D01*
X0077684Y0127587D02*
X0077684Y0124517D01*
X0076917Y0123750D01*
X0079986Y0123750D02*
X0080754Y0123750D01*
X0080754Y0124517D01*
X0079986Y0124517D01*
X0079986Y0123750D01*
X0082288Y0123750D02*
X0083823Y0123750D01*
X0083056Y0123750D02*
X0083056Y0126819D01*
X0083823Y0126819D01*
X0085358Y0126052D02*
X0085358Y0123750D01*
X0086892Y0123750D02*
X0086892Y0126052D01*
X0086125Y0126819D01*
X0085358Y0126052D01*
X0086892Y0126052D02*
X0087660Y0126819D01*
X0088427Y0126819D01*
X0088427Y0123750D01*
X0089962Y0125285D02*
X0093031Y0125285D01*
X0093031Y0126052D02*
X0093031Y0124517D01*
X0092264Y0123750D01*
X0090729Y0123750D01*
X0089962Y0125285D02*
X0089962Y0126052D01*
X0090729Y0126819D01*
X0092264Y0126819D01*
X0093031Y0126052D01*
X0094566Y0126052D02*
X0094566Y0124517D01*
X0095333Y0123750D01*
X0097635Y0123750D01*
X0099169Y0123750D02*
X0099937Y0123750D01*
X0099937Y0124517D01*
X0099169Y0124517D01*
X0099169Y0123750D01*
X0097635Y0122215D02*
X0097635Y0126819D01*
X0095333Y0126819D01*
X0094566Y0126052D01*
X0101471Y0126819D02*
X0101471Y0124517D01*
X0102239Y0123750D01*
X0103006Y0124517D01*
X0103773Y0123750D01*
X0104541Y0124517D01*
X0104541Y0126819D01*
X0106075Y0126819D02*
X0106075Y0124517D01*
X0106843Y0123750D01*
X0107610Y0124517D01*
X0108377Y0123750D01*
X0109145Y0124517D01*
X0109145Y0126819D01*
X0110679Y0126819D02*
X0110679Y0124517D01*
X0111447Y0123750D01*
X0112214Y0124517D01*
X0112981Y0123750D01*
X0113749Y0124517D01*
X0113749Y0126819D01*
X0119887Y0127587D02*
X0120654Y0128354D01*
X0122189Y0128354D01*
X0122956Y0127587D01*
X0122956Y0126819D01*
X0122189Y0126052D01*
X0120654Y0126052D01*
X0119887Y0125285D01*
X0119887Y0124517D01*
X0120654Y0123750D01*
X0122189Y0123750D01*
X0122956Y0124517D01*
X0124491Y0124517D02*
X0124491Y0128354D01*
X0127560Y0128354D02*
X0127560Y0124517D01*
X0126793Y0123750D01*
X0125258Y0123750D01*
X0124491Y0124517D01*
X0129095Y0123750D02*
X0130630Y0123750D01*
X0129862Y0123750D02*
X0129862Y0128354D01*
X0129095Y0128354D02*
X0130630Y0128354D01*
X0132164Y0127587D02*
X0132932Y0128354D01*
X0134466Y0128354D01*
X0135233Y0127587D01*
X0135233Y0124517D01*
X0134466Y0123750D01*
X0132932Y0123750D01*
X0132164Y0124517D01*
X0136768Y0123750D02*
X0138303Y0123750D01*
X0137535Y0123750D02*
X0137535Y0128354D01*
X0136768Y0128354D02*
X0138303Y0128354D01*
X0139837Y0127587D02*
X0139837Y0126052D01*
X0140605Y0125285D01*
X0142907Y0125285D01*
X0144441Y0125285D02*
X0144441Y0124517D01*
X0145209Y0123750D01*
X0147511Y0123750D01*
X0147511Y0128354D01*
X0145209Y0128354D01*
X0144441Y0127587D01*
X0144441Y0126819D01*
X0145209Y0126052D01*
X0147511Y0126052D01*
X0149045Y0124517D02*
X0149045Y0127587D01*
X0149813Y0128354D01*
X0151347Y0128354D01*
X0152115Y0127587D01*
X0152115Y0124517D01*
X0151347Y0123750D01*
X0149813Y0123750D01*
X0149045Y0124517D01*
X0145209Y0126052D02*
X0144441Y0125285D01*
X0142907Y0123750D02*
X0142907Y0128354D01*
X0140605Y0128354D01*
X0139837Y0127587D01*
X0141372Y0125285D02*
X0139837Y0123750D01*
X0153649Y0124517D02*
X0154417Y0123750D01*
X0156718Y0123750D01*
X0156718Y0128354D01*
X0154417Y0128354D01*
X0153649Y0127587D01*
X0153649Y0126819D01*
X0154417Y0126052D01*
X0156718Y0126052D01*
X0154417Y0126052D02*
X0153649Y0125285D01*
X0153649Y0124517D01*
X0083056Y0128354D02*
X0083056Y0129121D01*
X0248328Y0126337D02*
X0249096Y0127104D01*
X0250630Y0127104D01*
X0251397Y0126337D01*
X0251397Y0125569D01*
X0250630Y0124802D01*
X0249096Y0124802D01*
X0248328Y0124035D01*
X0248328Y0123267D01*
X0249096Y0122500D01*
X0250630Y0122500D01*
X0251397Y0123267D01*
X0252932Y0122500D02*
X0256001Y0122500D01*
X0256001Y0127104D01*
X0252932Y0127104D01*
X0254467Y0124802D02*
X0256001Y0124802D01*
X0260605Y0127104D02*
X0260605Y0122500D01*
X0257536Y0122500D01*
X0262140Y0123267D02*
X0262140Y0124802D01*
X0263675Y0124802D01*
X0265209Y0126337D02*
X0264442Y0127104D01*
X0262907Y0127104D01*
X0262140Y0126337D01*
X0265209Y0126337D02*
X0265209Y0123267D01*
X0264442Y0122500D01*
X0262907Y0122500D01*
X0262140Y0123267D01*
X0266744Y0123267D02*
X0267511Y0122500D01*
X0269046Y0122500D01*
X0269813Y0123267D01*
X0269813Y0126337D01*
X0269046Y0127104D01*
X0267511Y0127104D01*
X0266744Y0126337D01*
X0266744Y0124802D02*
X0268279Y0124802D01*
X0266744Y0124802D02*
X0266744Y0123267D01*
X0271348Y0123267D02*
X0272115Y0122500D01*
X0273650Y0122500D01*
X0274417Y0123267D01*
X0274417Y0126337D01*
X0273650Y0127104D01*
X0272115Y0127104D01*
X0271348Y0126337D01*
X0271348Y0123267D01*
X0275952Y0123267D02*
X0275952Y0124802D01*
X0277486Y0124802D01*
X0275952Y0126337D02*
X0276719Y0127104D01*
X0278254Y0127104D01*
X0279021Y0126337D01*
X0279021Y0123267D01*
X0278254Y0122500D01*
X0276719Y0122500D01*
X0275952Y0123267D01*
X0285160Y0123267D02*
X0285927Y0122500D01*
X0287462Y0122500D01*
X0288229Y0123267D01*
X0287462Y0124802D02*
X0285927Y0124802D01*
X0285160Y0124035D01*
X0285160Y0123267D01*
X0287462Y0124802D02*
X0288229Y0125569D01*
X0288229Y0126337D01*
X0287462Y0127104D01*
X0285927Y0127104D01*
X0285160Y0126337D01*
X0289764Y0126337D02*
X0289764Y0124802D01*
X0290531Y0124035D01*
X0292833Y0124035D01*
X0292833Y0122500D02*
X0292833Y0127104D01*
X0290531Y0127104D01*
X0289764Y0126337D01*
X0294367Y0127104D02*
X0295902Y0127104D01*
X0295135Y0127104D02*
X0295135Y0122500D01*
X0295902Y0122500D02*
X0294367Y0122500D01*
X0302041Y0122500D02*
X0303575Y0122500D01*
X0302808Y0122500D02*
X0302808Y0127104D01*
X0303575Y0127104D02*
X0302041Y0127104D01*
X0305110Y0126337D02*
X0305110Y0124802D01*
X0305877Y0124035D01*
X0308179Y0124035D01*
X0309714Y0124035D02*
X0309714Y0123267D01*
X0310481Y0122500D01*
X0312016Y0122500D01*
X0312783Y0123267D01*
X0312016Y0124802D02*
X0310481Y0124802D01*
X0309714Y0124035D01*
X0308179Y0122500D02*
X0308179Y0127104D01*
X0305877Y0127104D01*
X0305110Y0126337D01*
X0309714Y0126337D02*
X0310481Y0127104D01*
X0312016Y0127104D01*
X0312783Y0126337D01*
X0312783Y0125569D01*
X0312016Y0124802D01*
X0318922Y0124802D02*
X0319689Y0124035D01*
X0321991Y0124035D01*
X0323526Y0124035D02*
X0325060Y0122500D01*
X0326595Y0124035D01*
X0326595Y0127104D01*
X0328130Y0127104D02*
X0331199Y0122500D01*
X0332733Y0122500D02*
X0334268Y0124035D01*
X0333501Y0124035D02*
X0335803Y0124035D01*
X0335803Y0122500D02*
X0335803Y0127104D01*
X0333501Y0127104D01*
X0332733Y0126337D01*
X0332733Y0124802D01*
X0333501Y0124035D01*
X0337337Y0124802D02*
X0340407Y0124802D01*
X0340407Y0125569D02*
X0338872Y0127104D01*
X0337337Y0125569D01*
X0337337Y0122500D01*
X0340407Y0122500D02*
X0340407Y0125569D01*
X0323526Y0124035D02*
X0323526Y0127104D01*
X0321991Y0127104D02*
X0319689Y0127104D01*
X0318922Y0126337D01*
X0318922Y0124802D01*
X0320456Y0124035D02*
X0318922Y0122500D01*
X0321991Y0122500D02*
X0321991Y0127104D01*
D11*
X0305793Y0117535D02*
X0304826Y0118502D01*
X0304826Y0115600D01*
X0305793Y0115600D02*
X0303858Y0115600D01*
X0302847Y0116084D02*
X0300912Y0118019D01*
X0300912Y0116084D01*
X0301395Y0115600D01*
X0302363Y0115600D01*
X0302847Y0116084D01*
X0302847Y0118019D01*
X0302363Y0118502D01*
X0301395Y0118502D01*
X0300912Y0118019D01*
X0299900Y0118019D02*
X0299416Y0118502D01*
X0298449Y0118502D01*
X0297965Y0118019D01*
X0299900Y0116084D01*
X0299416Y0115600D01*
X0298449Y0115600D01*
X0297965Y0116084D01*
X0297965Y0118019D01*
X0296953Y0117535D02*
X0295502Y0117535D01*
X0295019Y0117051D01*
X0295019Y0115600D01*
X0296953Y0115600D02*
X0296953Y0117535D01*
X0299900Y0118019D02*
X0299900Y0116084D01*
X0168100Y0055858D02*
X0168100Y0053923D01*
X0168100Y0054891D02*
X0171002Y0054891D01*
X0170035Y0053923D01*
X0170519Y0052912D02*
X0171002Y0052428D01*
X0171002Y0051460D01*
X0170519Y0050977D01*
X0170035Y0050977D01*
X0169551Y0051460D01*
X0169551Y0052428D01*
X0169067Y0052912D01*
X0168584Y0052912D01*
X0168100Y0052428D01*
X0168100Y0051460D01*
X0168584Y0050977D01*
X0168584Y0049965D02*
X0168100Y0049481D01*
X0168100Y0048514D01*
X0168584Y0048030D01*
X0170519Y0048030D01*
X0171002Y0048514D01*
X0171002Y0049481D01*
X0170519Y0049965D01*
X0176850Y0049503D02*
X0176850Y0050955D01*
X0177334Y0051438D01*
X0179269Y0051438D01*
X0179752Y0050955D01*
X0179752Y0049503D01*
X0176850Y0049503D01*
X0177334Y0052450D02*
X0176850Y0052934D01*
X0176850Y0053901D01*
X0177334Y0054385D01*
X0179269Y0054385D02*
X0179752Y0053901D01*
X0179752Y0052934D01*
X0179269Y0052450D01*
X0177334Y0052450D01*
X0186850Y0053641D02*
X0189752Y0053641D01*
X0189752Y0054608D02*
X0189752Y0052673D01*
X0189269Y0051662D02*
X0189752Y0051178D01*
X0189752Y0050210D01*
X0189269Y0049727D01*
X0188785Y0049727D01*
X0188301Y0050210D01*
X0188301Y0051178D01*
X0187817Y0051662D01*
X0187334Y0051662D01*
X0186850Y0051178D01*
X0186850Y0050210D01*
X0187334Y0049727D01*
X0186850Y0048715D02*
X0187817Y0047748D01*
X0187817Y0048231D02*
X0187817Y0046780D01*
X0186850Y0046780D02*
X0189752Y0046780D01*
X0189752Y0048231D01*
X0189269Y0048715D01*
X0188301Y0048715D01*
X0187817Y0048231D01*
X0196850Y0048231D02*
X0196850Y0046780D01*
X0199752Y0046780D01*
X0199752Y0048231D01*
X0199269Y0048715D01*
X0197334Y0048715D01*
X0196850Y0048231D01*
X0196850Y0049727D02*
X0198785Y0049727D01*
X0199752Y0050694D01*
X0198785Y0051662D01*
X0196850Y0051662D01*
X0198301Y0051662D02*
X0198301Y0049727D01*
X0199752Y0052673D02*
X0199752Y0054608D01*
X0199752Y0053641D02*
X0196850Y0053641D01*
X0206850Y0054608D02*
X0208301Y0053157D01*
X0207817Y0052673D02*
X0209752Y0054608D01*
X0209752Y0052673D02*
X0206850Y0052673D01*
X0207334Y0051662D02*
X0206850Y0051178D01*
X0206850Y0050210D01*
X0207334Y0049727D01*
X0209269Y0049727D01*
X0209752Y0050210D01*
X0209752Y0051178D01*
X0209269Y0051662D01*
X0209269Y0048715D02*
X0209752Y0048231D01*
X0209752Y0047264D01*
X0209269Y0046780D01*
X0208785Y0046780D01*
X0208301Y0047264D01*
X0208301Y0048231D01*
X0207817Y0048715D01*
X0207334Y0048715D01*
X0206850Y0048231D01*
X0206850Y0047264D01*
X0207334Y0046780D01*
X0216850Y0047748D02*
X0217817Y0046780D01*
X0219752Y0046780D01*
X0219752Y0048715D02*
X0217817Y0048715D01*
X0216850Y0047748D01*
X0217334Y0049727D02*
X0216850Y0050210D01*
X0216850Y0051178D01*
X0217334Y0051662D01*
X0217334Y0052673D02*
X0216850Y0053157D01*
X0216850Y0054124D01*
X0217334Y0054608D01*
X0219269Y0054608D02*
X0219752Y0054124D01*
X0219752Y0053157D01*
X0219269Y0052673D01*
X0217334Y0052673D01*
X0219269Y0051662D02*
X0219752Y0051178D01*
X0219752Y0050210D01*
X0219269Y0049727D01*
X0217334Y0049727D01*
X0226850Y0049727D02*
X0229752Y0049727D01*
X0226850Y0051662D01*
X0229752Y0051662D01*
X0229752Y0052673D02*
X0229752Y0054124D01*
X0229269Y0054608D01*
X0227334Y0054608D01*
X0226850Y0054124D01*
X0226850Y0052673D01*
X0229752Y0052673D01*
X0229269Y0048715D02*
X0229752Y0048231D01*
X0229752Y0047264D01*
X0229269Y0046780D01*
X0227334Y0046780D01*
X0226850Y0047264D01*
X0226850Y0048231D01*
X0227334Y0048715D01*
X0228301Y0048715D01*
X0228301Y0047748D01*
X0198070Y0037535D02*
X0197102Y0038502D01*
X0197102Y0035600D01*
X0196135Y0035600D02*
X0198070Y0035600D01*
X0195123Y0036084D02*
X0193188Y0038019D01*
X0193188Y0036084D01*
X0193672Y0035600D01*
X0194640Y0035600D01*
X0195123Y0036084D01*
X0195123Y0038019D01*
X0194640Y0038502D01*
X0193672Y0038502D01*
X0193188Y0038019D01*
X0192177Y0038502D02*
X0190726Y0038502D01*
X0190242Y0038019D01*
X0190242Y0037051D01*
X0190726Y0036567D01*
X0192177Y0036567D01*
X0192177Y0035600D02*
X0192177Y0038502D01*
X0191209Y0036567D02*
X0190242Y0035600D01*
X0181820Y0035600D02*
X0179885Y0035600D01*
X0180852Y0035600D02*
X0180852Y0038502D01*
X0181820Y0037535D01*
X0178873Y0038019D02*
X0178873Y0036084D01*
X0176938Y0038019D01*
X0176938Y0036084D01*
X0177422Y0035600D01*
X0178390Y0035600D01*
X0178873Y0036084D01*
X0178873Y0038019D02*
X0178390Y0038502D01*
X0177422Y0038502D01*
X0176938Y0038019D01*
X0175927Y0038502D02*
X0175927Y0035600D01*
X0175927Y0036567D02*
X0174476Y0036567D01*
X0173992Y0037051D01*
X0173992Y0038019D01*
X0174476Y0038502D01*
X0175927Y0038502D01*
X0174959Y0036567D02*
X0173992Y0035600D01*
X0158502Y0047264D02*
X0158019Y0046780D01*
X0156084Y0046780D01*
X0155600Y0047264D01*
X0155600Y0048231D01*
X0156084Y0048715D01*
X0156084Y0049727D02*
X0155600Y0050210D01*
X0155600Y0051178D01*
X0156084Y0051662D01*
X0156567Y0051662D01*
X0157051Y0051178D01*
X0157051Y0050210D01*
X0157535Y0049727D01*
X0158019Y0049727D01*
X0158502Y0050210D01*
X0158502Y0051178D01*
X0158019Y0051662D01*
X0158019Y0052673D02*
X0158502Y0053157D01*
X0158502Y0054124D01*
X0158019Y0054608D01*
X0157535Y0054608D01*
X0155600Y0052673D01*
X0155600Y0054608D01*
X0158019Y0048715D02*
X0158502Y0048231D01*
X0158502Y0047264D01*
X0107043Y0115600D02*
X0105108Y0115600D01*
X0106076Y0115600D02*
X0106076Y0118502D01*
X0107043Y0117535D01*
X0104097Y0118019D02*
X0103613Y0118502D01*
X0102645Y0118502D01*
X0102162Y0118019D01*
X0104097Y0116084D01*
X0103613Y0115600D01*
X0102645Y0115600D01*
X0102162Y0116084D01*
X0102162Y0118019D01*
X0101150Y0118019D02*
X0100666Y0118502D01*
X0099699Y0118502D01*
X0099215Y0118019D01*
X0101150Y0116084D01*
X0100666Y0115600D01*
X0099699Y0115600D01*
X0099215Y0116084D01*
X0099215Y0118019D01*
X0098203Y0117535D02*
X0096752Y0117535D01*
X0096269Y0117051D01*
X0096269Y0115600D01*
X0098203Y0115600D02*
X0098203Y0117535D01*
X0101150Y0118019D02*
X0101150Y0116084D01*
X0104097Y0116084D02*
X0104097Y0118019D01*
D12*
X0186897Y0079904D02*
X0186897Y0075700D01*
X0186197Y0075700D02*
X0187598Y0075700D01*
X0189400Y0076401D02*
X0189400Y0077802D01*
X0190100Y0078502D01*
X0192202Y0078502D01*
X0192202Y0074299D01*
X0192202Y0075700D02*
X0190100Y0075700D01*
X0189400Y0076401D01*
X0194004Y0076401D02*
X0194704Y0077101D01*
X0196105Y0077101D01*
X0196806Y0077802D01*
X0196105Y0078502D01*
X0194004Y0078502D01*
X0199175Y0078502D02*
X0199175Y0075700D01*
X0199875Y0075700D02*
X0198474Y0075700D01*
X0196806Y0075700D02*
X0194704Y0075700D01*
X0194004Y0076401D01*
X0199175Y0078502D02*
X0199875Y0078502D01*
X0199175Y0079904D02*
X0199175Y0080604D01*
X0201677Y0079203D02*
X0202377Y0079904D01*
X0204479Y0079904D01*
X0204479Y0075700D01*
X0202377Y0075700D01*
X0201677Y0076401D01*
X0201677Y0079203D01*
X0187598Y0079904D02*
X0186897Y0079904D01*
X0183828Y0078502D02*
X0182427Y0078502D01*
X0181726Y0077802D01*
X0181726Y0075700D01*
X0183828Y0075700D01*
X0184529Y0076401D01*
X0183828Y0077101D01*
X0181726Y0077101D01*
X0179925Y0076401D02*
X0179224Y0075700D01*
X0177122Y0075700D01*
X0177122Y0074999D02*
X0177823Y0074299D01*
X0178524Y0074299D01*
X0177122Y0074999D02*
X0177122Y0078502D01*
X0179925Y0078502D02*
X0179925Y0076401D01*
X0166700Y0054737D02*
X0160400Y0054737D01*
X0160401Y0054737D02*
X0160342Y0054723D01*
X0160283Y0054706D01*
X0160226Y0054685D01*
X0160171Y0054661D01*
X0160117Y0054634D01*
X0160064Y0054603D01*
X0160014Y0054569D01*
X0159966Y0054533D01*
X0159920Y0054493D01*
X0159876Y0054451D01*
X0159836Y0054406D01*
X0159798Y0054359D01*
X0159762Y0054309D01*
X0159730Y0054258D01*
X0159701Y0054205D01*
X0159676Y0054150D01*
X0159654Y0054093D01*
X0159635Y0054036D01*
X0159619Y0053977D01*
X0159608Y0053918D01*
X0159599Y0053858D01*
X0159595Y0053797D01*
X0159594Y0053737D01*
X0159597Y0053676D01*
X0159603Y0053616D01*
X0159614Y0053556D01*
X0166699Y0054737D02*
X0166758Y0054723D01*
X0166817Y0054706D01*
X0166874Y0054685D01*
X0166929Y0054661D01*
X0166983Y0054634D01*
X0167036Y0054603D01*
X0167086Y0054569D01*
X0167134Y0054533D01*
X0167180Y0054493D01*
X0167224Y0054451D01*
X0167264Y0054406D01*
X0167302Y0054359D01*
X0167338Y0054309D01*
X0167370Y0054258D01*
X0167399Y0054205D01*
X0167424Y0054150D01*
X0167446Y0054093D01*
X0167465Y0054036D01*
X0167481Y0053977D01*
X0167492Y0053918D01*
X0167501Y0053858D01*
X0167505Y0053797D01*
X0167506Y0053737D01*
X0167503Y0053676D01*
X0167497Y0053616D01*
X0167486Y0053556D01*
X0167487Y0048044D02*
X0167498Y0047985D01*
X0167504Y0047924D01*
X0167507Y0047864D01*
X0167506Y0047803D01*
X0167502Y0047743D01*
X0167493Y0047683D01*
X0167482Y0047623D01*
X0167466Y0047564D01*
X0167448Y0047507D01*
X0167425Y0047450D01*
X0167400Y0047395D01*
X0167371Y0047342D01*
X0167339Y0047291D01*
X0167303Y0047241D01*
X0167265Y0047194D01*
X0167224Y0047149D01*
X0167181Y0047107D01*
X0167135Y0047067D01*
X0167087Y0047031D01*
X0167036Y0046997D01*
X0166984Y0046966D01*
X0166930Y0046939D01*
X0166874Y0046915D01*
X0166817Y0046894D01*
X0166759Y0046877D01*
X0166700Y0046863D01*
X0160400Y0046863D01*
X0160401Y0046863D02*
X0160342Y0046877D01*
X0160283Y0046894D01*
X0160226Y0046915D01*
X0160171Y0046939D01*
X0160117Y0046966D01*
X0160064Y0046997D01*
X0160014Y0047031D01*
X0159966Y0047067D01*
X0159920Y0047107D01*
X0159876Y0047149D01*
X0159836Y0047194D01*
X0159798Y0047241D01*
X0159762Y0047291D01*
X0159730Y0047342D01*
X0159701Y0047395D01*
X0159676Y0047450D01*
X0159654Y0047507D01*
X0159635Y0047564D01*
X0159619Y0047623D01*
X0159608Y0047682D01*
X0159599Y0047742D01*
X0159595Y0047803D01*
X0159594Y0047863D01*
X0159597Y0047924D01*
X0159603Y0047984D01*
X0159614Y0048044D01*
X0178050Y0045050D02*
X0178050Y0041050D01*
X0194300Y0041050D02*
X0194300Y0045050D01*
D13*
X0362800Y0008800D02*
X0025300Y0008800D01*
X0025119Y0008802D01*
X0024938Y0008809D01*
X0024757Y0008820D01*
X0024576Y0008835D01*
X0024396Y0008855D01*
X0024216Y0008879D01*
X0024037Y0008907D01*
X0023859Y0008940D01*
X0023682Y0008977D01*
X0023505Y0009018D01*
X0023330Y0009063D01*
X0023155Y0009113D01*
X0022982Y0009167D01*
X0022811Y0009225D01*
X0022640Y0009287D01*
X0022472Y0009354D01*
X0022305Y0009424D01*
X0022139Y0009498D01*
X0021976Y0009577D01*
X0021815Y0009659D01*
X0021655Y0009745D01*
X0021498Y0009835D01*
X0021343Y0009929D01*
X0021190Y0010026D01*
X0021040Y0010128D01*
X0020892Y0010232D01*
X0020746Y0010341D01*
X0020604Y0010452D01*
X0020464Y0010568D01*
X0020327Y0010686D01*
X0020192Y0010808D01*
X0020061Y0010933D01*
X0019933Y0011061D01*
X0019808Y0011192D01*
X0019686Y0011327D01*
X0019568Y0011464D01*
X0019452Y0011604D01*
X0019341Y0011746D01*
X0019232Y0011892D01*
X0019128Y0012040D01*
X0019026Y0012190D01*
X0018929Y0012343D01*
X0018835Y0012498D01*
X0018745Y0012655D01*
X0018659Y0012815D01*
X0018577Y0012976D01*
X0018498Y0013139D01*
X0018424Y0013305D01*
X0018354Y0013472D01*
X0018287Y0013640D01*
X0018225Y0013811D01*
X0018167Y0013982D01*
X0018113Y0014155D01*
X0018063Y0014330D01*
X0018018Y0014505D01*
X0017977Y0014682D01*
X0017940Y0014859D01*
X0017907Y0015037D01*
X0017879Y0015216D01*
X0017855Y0015396D01*
X0017835Y0015576D01*
X0017820Y0015757D01*
X0017809Y0015938D01*
X0017802Y0016119D01*
X0017800Y0016300D01*
X0017800Y0142300D01*
X0017802Y0142481D01*
X0017809Y0142662D01*
X0017820Y0142843D01*
X0017835Y0143024D01*
X0017855Y0143204D01*
X0017879Y0143384D01*
X0017907Y0143563D01*
X0017940Y0143741D01*
X0017977Y0143918D01*
X0018018Y0144095D01*
X0018063Y0144270D01*
X0018113Y0144445D01*
X0018167Y0144618D01*
X0018225Y0144789D01*
X0018287Y0144960D01*
X0018354Y0145128D01*
X0018424Y0145295D01*
X0018498Y0145461D01*
X0018577Y0145624D01*
X0018659Y0145785D01*
X0018745Y0145945D01*
X0018835Y0146102D01*
X0018929Y0146257D01*
X0019026Y0146410D01*
X0019128Y0146560D01*
X0019232Y0146708D01*
X0019341Y0146854D01*
X0019452Y0146996D01*
X0019568Y0147136D01*
X0019686Y0147273D01*
X0019808Y0147408D01*
X0019933Y0147539D01*
X0020061Y0147667D01*
X0020192Y0147792D01*
X0020327Y0147914D01*
X0020464Y0148032D01*
X0020604Y0148148D01*
X0020746Y0148259D01*
X0020892Y0148368D01*
X0021040Y0148472D01*
X0021190Y0148574D01*
X0021343Y0148671D01*
X0021498Y0148765D01*
X0021655Y0148855D01*
X0021815Y0148941D01*
X0021976Y0149023D01*
X0022139Y0149102D01*
X0022305Y0149176D01*
X0022472Y0149246D01*
X0022640Y0149313D01*
X0022811Y0149375D01*
X0022982Y0149433D01*
X0023155Y0149487D01*
X0023330Y0149537D01*
X0023505Y0149582D01*
X0023682Y0149623D01*
X0023859Y0149660D01*
X0024037Y0149693D01*
X0024216Y0149721D01*
X0024396Y0149745D01*
X0024576Y0149765D01*
X0024757Y0149780D01*
X0024938Y0149791D01*
X0025119Y0149798D01*
X0025300Y0149800D01*
X0362800Y0149800D01*
X0362981Y0149798D01*
X0363162Y0149791D01*
X0363343Y0149780D01*
X0363524Y0149765D01*
X0363704Y0149745D01*
X0363884Y0149721D01*
X0364063Y0149693D01*
X0364241Y0149660D01*
X0364418Y0149623D01*
X0364595Y0149582D01*
X0364770Y0149537D01*
X0364945Y0149487D01*
X0365118Y0149433D01*
X0365289Y0149375D01*
X0365460Y0149313D01*
X0365628Y0149246D01*
X0365795Y0149176D01*
X0365961Y0149102D01*
X0366124Y0149023D01*
X0366285Y0148941D01*
X0366445Y0148855D01*
X0366602Y0148765D01*
X0366757Y0148671D01*
X0366910Y0148574D01*
X0367060Y0148472D01*
X0367208Y0148368D01*
X0367354Y0148259D01*
X0367496Y0148148D01*
X0367636Y0148032D01*
X0367773Y0147914D01*
X0367908Y0147792D01*
X0368039Y0147667D01*
X0368167Y0147539D01*
X0368292Y0147408D01*
X0368414Y0147273D01*
X0368532Y0147136D01*
X0368648Y0146996D01*
X0368759Y0146854D01*
X0368868Y0146708D01*
X0368972Y0146560D01*
X0369074Y0146410D01*
X0369171Y0146257D01*
X0369265Y0146102D01*
X0369355Y0145945D01*
X0369441Y0145785D01*
X0369523Y0145624D01*
X0369602Y0145461D01*
X0369676Y0145295D01*
X0369746Y0145128D01*
X0369813Y0144960D01*
X0369875Y0144789D01*
X0369933Y0144618D01*
X0369987Y0144445D01*
X0370037Y0144270D01*
X0370082Y0144095D01*
X0370123Y0143918D01*
X0370160Y0143741D01*
X0370193Y0143563D01*
X0370221Y0143384D01*
X0370245Y0143204D01*
X0370265Y0143024D01*
X0370280Y0142843D01*
X0370291Y0142662D01*
X0370298Y0142481D01*
X0370300Y0142300D01*
X0370300Y0016300D01*
X0370298Y0016119D01*
X0370291Y0015938D01*
X0370280Y0015757D01*
X0370265Y0015576D01*
X0370245Y0015396D01*
X0370221Y0015216D01*
X0370193Y0015037D01*
X0370160Y0014859D01*
X0370123Y0014682D01*
X0370082Y0014505D01*
X0370037Y0014330D01*
X0369987Y0014155D01*
X0369933Y0013982D01*
X0369875Y0013811D01*
X0369813Y0013640D01*
X0369746Y0013472D01*
X0369676Y0013305D01*
X0369602Y0013139D01*
X0369523Y0012976D01*
X0369441Y0012815D01*
X0369355Y0012655D01*
X0369265Y0012498D01*
X0369171Y0012343D01*
X0369074Y0012190D01*
X0368972Y0012040D01*
X0368868Y0011892D01*
X0368759Y0011746D01*
X0368648Y0011604D01*
X0368532Y0011464D01*
X0368414Y0011327D01*
X0368292Y0011192D01*
X0368167Y0011061D01*
X0368039Y0010933D01*
X0367908Y0010808D01*
X0367773Y0010686D01*
X0367636Y0010568D01*
X0367496Y0010452D01*
X0367354Y0010341D01*
X0367208Y0010232D01*
X0367060Y0010128D01*
X0366910Y0010026D01*
X0366757Y0009929D01*
X0366602Y0009835D01*
X0366445Y0009745D01*
X0366285Y0009659D01*
X0366124Y0009577D01*
X0365961Y0009498D01*
X0365795Y0009424D01*
X0365628Y0009354D01*
X0365460Y0009287D01*
X0365289Y0009225D01*
X0365118Y0009167D01*
X0364945Y0009113D01*
X0364770Y0009063D01*
X0364595Y0009018D01*
X0364418Y0008977D01*
X0364241Y0008940D01*
X0364063Y0008907D01*
X0363884Y0008879D01*
X0363704Y0008855D01*
X0363524Y0008835D01*
X0363343Y0008820D01*
X0363162Y0008809D01*
X0362981Y0008802D01*
X0362800Y0008800D01*
X0338050Y0015550D02*
X0248050Y0015550D01*
X0247902Y0015568D01*
X0247755Y0015590D01*
X0247608Y0015616D01*
X0247463Y0015646D01*
X0247318Y0015680D01*
X0247173Y0015718D01*
X0247030Y0015759D01*
X0246888Y0015804D01*
X0246748Y0015853D01*
X0246609Y0015906D01*
X0246471Y0015962D01*
X0246334Y0016022D01*
X0246199Y0016085D01*
X0246066Y0016152D01*
X0245935Y0016222D01*
X0245806Y0016296D01*
X0245679Y0016373D01*
X0245553Y0016454D01*
X0245430Y0016537D01*
X0245309Y0016624D01*
X0245191Y0016715D01*
X0245075Y0016808D01*
X0244961Y0016904D01*
X0244850Y0017003D01*
X0244741Y0017105D01*
X0244636Y0017210D01*
X0244533Y0017318D01*
X0244433Y0017428D01*
X0244336Y0017541D01*
X0244242Y0017656D01*
X0244151Y0017774D01*
X0244063Y0017894D01*
X0243978Y0018017D01*
X0243897Y0018141D01*
X0243818Y0018268D01*
X0243744Y0018397D01*
X0243672Y0018528D01*
X0243604Y0018660D01*
X0243540Y0018794D01*
X0243479Y0018930D01*
X0243422Y0019068D01*
X0243368Y0019207D01*
X0243318Y0019347D01*
X0243272Y0019489D01*
X0243230Y0019631D01*
X0243191Y0019775D01*
X0243156Y0019920D01*
X0243125Y0020065D01*
X0243098Y0020212D01*
X0243074Y0020359D01*
X0243055Y0020506D01*
X0243039Y0020655D01*
X0243027Y0020803D01*
X0243019Y0020952D01*
X0243015Y0021101D01*
X0243015Y0021249D01*
X0243019Y0021398D01*
X0243027Y0021547D01*
X0243039Y0021695D01*
X0243055Y0021844D01*
X0243074Y0021991D01*
X0243098Y0022138D01*
X0243125Y0022285D01*
X0243156Y0022430D01*
X0243191Y0022575D01*
X0243230Y0022719D01*
X0243272Y0022861D01*
X0243318Y0023003D01*
X0243368Y0023143D01*
X0243422Y0023282D01*
X0243479Y0023420D01*
X0243540Y0023556D01*
X0243604Y0023690D01*
X0243672Y0023822D01*
X0243744Y0023953D01*
X0243818Y0024082D01*
X0243897Y0024209D01*
X0243978Y0024333D01*
X0244063Y0024456D01*
X0244151Y0024576D01*
X0244242Y0024694D01*
X0244336Y0024809D01*
X0244433Y0024922D01*
X0244533Y0025032D01*
X0244636Y0025140D01*
X0244741Y0025245D01*
X0244850Y0025347D01*
X0244961Y0025446D01*
X0245075Y0025542D01*
X0245191Y0025635D01*
X0245309Y0025726D01*
X0245430Y0025813D01*
X0245553Y0025896D01*
X0245679Y0025977D01*
X0245806Y0026054D01*
X0245935Y0026128D01*
X0246066Y0026198D01*
X0246199Y0026265D01*
X0246334Y0026328D01*
X0246471Y0026388D01*
X0246609Y0026444D01*
X0246748Y0026497D01*
X0246888Y0026546D01*
X0247030Y0026591D01*
X0247173Y0026632D01*
X0247318Y0026670D01*
X0247463Y0026704D01*
X0247608Y0026734D01*
X0247755Y0026760D01*
X0247902Y0026782D01*
X0248050Y0026800D01*
X0338050Y0026800D01*
X0338198Y0026782D01*
X0338345Y0026760D01*
X0338492Y0026734D01*
X0338637Y0026704D01*
X0338782Y0026670D01*
X0338927Y0026632D01*
X0339070Y0026591D01*
X0339212Y0026546D01*
X0339352Y0026497D01*
X0339491Y0026444D01*
X0339629Y0026388D01*
X0339766Y0026328D01*
X0339901Y0026265D01*
X0340034Y0026198D01*
X0340165Y0026128D01*
X0340294Y0026054D01*
X0340421Y0025977D01*
X0340547Y0025896D01*
X0340670Y0025813D01*
X0340791Y0025726D01*
X0340909Y0025635D01*
X0341025Y0025542D01*
X0341139Y0025446D01*
X0341250Y0025347D01*
X0341359Y0025245D01*
X0341464Y0025140D01*
X0341567Y0025032D01*
X0341667Y0024922D01*
X0341764Y0024809D01*
X0341858Y0024694D01*
X0341949Y0024576D01*
X0342037Y0024456D01*
X0342122Y0024333D01*
X0342203Y0024209D01*
X0342282Y0024082D01*
X0342356Y0023953D01*
X0342428Y0023822D01*
X0342496Y0023690D01*
X0342560Y0023556D01*
X0342621Y0023420D01*
X0342678Y0023282D01*
X0342732Y0023143D01*
X0342782Y0023003D01*
X0342828Y0022861D01*
X0342870Y0022719D01*
X0342909Y0022575D01*
X0342944Y0022430D01*
X0342975Y0022285D01*
X0343002Y0022138D01*
X0343026Y0021991D01*
X0343045Y0021844D01*
X0343061Y0021695D01*
X0343073Y0021547D01*
X0343081Y0021398D01*
X0343085Y0021249D01*
X0343085Y0021101D01*
X0343081Y0020952D01*
X0343073Y0020803D01*
X0343061Y0020655D01*
X0343045Y0020506D01*
X0343026Y0020359D01*
X0343002Y0020212D01*
X0342975Y0020065D01*
X0342944Y0019920D01*
X0342909Y0019775D01*
X0342870Y0019631D01*
X0342828Y0019489D01*
X0342782Y0019347D01*
X0342732Y0019207D01*
X0342678Y0019068D01*
X0342621Y0018930D01*
X0342560Y0018794D01*
X0342496Y0018660D01*
X0342428Y0018528D01*
X0342356Y0018397D01*
X0342282Y0018268D01*
X0342203Y0018141D01*
X0342122Y0018017D01*
X0342037Y0017894D01*
X0341949Y0017774D01*
X0341858Y0017656D01*
X0341764Y0017541D01*
X0341667Y0017428D01*
X0341567Y0017318D01*
X0341464Y0017210D01*
X0341359Y0017105D01*
X0341250Y0017003D01*
X0341139Y0016904D01*
X0341025Y0016808D01*
X0340909Y0016715D01*
X0340791Y0016624D01*
X0340670Y0016537D01*
X0340547Y0016454D01*
X0340421Y0016373D01*
X0340294Y0016296D01*
X0340165Y0016222D01*
X0340034Y0016152D01*
X0339901Y0016085D01*
X0339766Y0016022D01*
X0339629Y0015962D01*
X0339491Y0015906D01*
X0339352Y0015853D01*
X0339212Y0015804D01*
X0339070Y0015759D01*
X0338927Y0015718D01*
X0338782Y0015680D01*
X0338637Y0015646D01*
X0338492Y0015616D01*
X0338345Y0015590D01*
X0338198Y0015568D01*
X0338050Y0015550D01*
X0140550Y0015550D02*
X0050550Y0015550D01*
X0050402Y0015568D01*
X0050255Y0015590D01*
X0050108Y0015616D01*
X0049963Y0015646D01*
X0049818Y0015680D01*
X0049673Y0015718D01*
X0049530Y0015759D01*
X0049388Y0015804D01*
X0049248Y0015853D01*
X0049109Y0015906D01*
X0048971Y0015962D01*
X0048834Y0016022D01*
X0048699Y0016085D01*
X0048566Y0016152D01*
X0048435Y0016222D01*
X0048306Y0016296D01*
X0048179Y0016373D01*
X0048053Y0016454D01*
X0047930Y0016537D01*
X0047809Y0016624D01*
X0047691Y0016715D01*
X0047575Y0016808D01*
X0047461Y0016904D01*
X0047350Y0017003D01*
X0047241Y0017105D01*
X0047136Y0017210D01*
X0047033Y0017318D01*
X0046933Y0017428D01*
X0046836Y0017541D01*
X0046742Y0017656D01*
X0046651Y0017774D01*
X0046563Y0017894D01*
X0046478Y0018017D01*
X0046397Y0018141D01*
X0046318Y0018268D01*
X0046244Y0018397D01*
X0046172Y0018528D01*
X0046104Y0018660D01*
X0046040Y0018794D01*
X0045979Y0018930D01*
X0045922Y0019068D01*
X0045868Y0019207D01*
X0045818Y0019347D01*
X0045772Y0019489D01*
X0045730Y0019631D01*
X0045691Y0019775D01*
X0045656Y0019920D01*
X0045625Y0020065D01*
X0045598Y0020212D01*
X0045574Y0020359D01*
X0045555Y0020506D01*
X0045539Y0020655D01*
X0045527Y0020803D01*
X0045519Y0020952D01*
X0045515Y0021101D01*
X0045515Y0021249D01*
X0045519Y0021398D01*
X0045527Y0021547D01*
X0045539Y0021695D01*
X0045555Y0021844D01*
X0045574Y0021991D01*
X0045598Y0022138D01*
X0045625Y0022285D01*
X0045656Y0022430D01*
X0045691Y0022575D01*
X0045730Y0022719D01*
X0045772Y0022861D01*
X0045818Y0023003D01*
X0045868Y0023143D01*
X0045922Y0023282D01*
X0045979Y0023420D01*
X0046040Y0023556D01*
X0046104Y0023690D01*
X0046172Y0023822D01*
X0046244Y0023953D01*
X0046318Y0024082D01*
X0046397Y0024209D01*
X0046478Y0024333D01*
X0046563Y0024456D01*
X0046651Y0024576D01*
X0046742Y0024694D01*
X0046836Y0024809D01*
X0046933Y0024922D01*
X0047033Y0025032D01*
X0047136Y0025140D01*
X0047241Y0025245D01*
X0047350Y0025347D01*
X0047461Y0025446D01*
X0047575Y0025542D01*
X0047691Y0025635D01*
X0047809Y0025726D01*
X0047930Y0025813D01*
X0048053Y0025896D01*
X0048179Y0025977D01*
X0048306Y0026054D01*
X0048435Y0026128D01*
X0048566Y0026198D01*
X0048699Y0026265D01*
X0048834Y0026328D01*
X0048971Y0026388D01*
X0049109Y0026444D01*
X0049248Y0026497D01*
X0049388Y0026546D01*
X0049530Y0026591D01*
X0049673Y0026632D01*
X0049818Y0026670D01*
X0049963Y0026704D01*
X0050108Y0026734D01*
X0050255Y0026760D01*
X0050402Y0026782D01*
X0050550Y0026800D01*
X0140550Y0026800D01*
X0140698Y0026782D01*
X0140845Y0026760D01*
X0140992Y0026734D01*
X0141137Y0026704D01*
X0141282Y0026670D01*
X0141427Y0026632D01*
X0141570Y0026591D01*
X0141712Y0026546D01*
X0141852Y0026497D01*
X0141991Y0026444D01*
X0142129Y0026388D01*
X0142266Y0026328D01*
X0142401Y0026265D01*
X0142534Y0026198D01*
X0142665Y0026128D01*
X0142794Y0026054D01*
X0142921Y0025977D01*
X0143047Y0025896D01*
X0143170Y0025813D01*
X0143291Y0025726D01*
X0143409Y0025635D01*
X0143525Y0025542D01*
X0143639Y0025446D01*
X0143750Y0025347D01*
X0143859Y0025245D01*
X0143964Y0025140D01*
X0144067Y0025032D01*
X0144167Y0024922D01*
X0144264Y0024809D01*
X0144358Y0024694D01*
X0144449Y0024576D01*
X0144537Y0024456D01*
X0144622Y0024333D01*
X0144703Y0024209D01*
X0144782Y0024082D01*
X0144856Y0023953D01*
X0144928Y0023822D01*
X0144996Y0023690D01*
X0145060Y0023556D01*
X0145121Y0023420D01*
X0145178Y0023282D01*
X0145232Y0023143D01*
X0145282Y0023003D01*
X0145328Y0022861D01*
X0145370Y0022719D01*
X0145409Y0022575D01*
X0145444Y0022430D01*
X0145475Y0022285D01*
X0145502Y0022138D01*
X0145526Y0021991D01*
X0145545Y0021844D01*
X0145561Y0021695D01*
X0145573Y0021547D01*
X0145581Y0021398D01*
X0145585Y0021249D01*
X0145585Y0021101D01*
X0145581Y0020952D01*
X0145573Y0020803D01*
X0145561Y0020655D01*
X0145545Y0020506D01*
X0145526Y0020359D01*
X0145502Y0020212D01*
X0145475Y0020065D01*
X0145444Y0019920D01*
X0145409Y0019775D01*
X0145370Y0019631D01*
X0145328Y0019489D01*
X0145282Y0019347D01*
X0145232Y0019207D01*
X0145178Y0019068D01*
X0145121Y0018930D01*
X0145060Y0018794D01*
X0144996Y0018660D01*
X0144928Y0018528D01*
X0144856Y0018397D01*
X0144782Y0018268D01*
X0144703Y0018141D01*
X0144622Y0018017D01*
X0144537Y0017894D01*
X0144449Y0017774D01*
X0144358Y0017656D01*
X0144264Y0017541D01*
X0144167Y0017428D01*
X0144067Y0017318D01*
X0143964Y0017210D01*
X0143859Y0017105D01*
X0143750Y0017003D01*
X0143639Y0016904D01*
X0143525Y0016808D01*
X0143409Y0016715D01*
X0143291Y0016624D01*
X0143170Y0016537D01*
X0143047Y0016454D01*
X0142921Y0016373D01*
X0142794Y0016296D01*
X0142665Y0016222D01*
X0142534Y0016152D01*
X0142401Y0016085D01*
X0142266Y0016022D01*
X0142129Y0015962D01*
X0141991Y0015906D01*
X0141852Y0015853D01*
X0141712Y0015804D01*
X0141570Y0015759D01*
X0141427Y0015718D01*
X0141282Y0015680D01*
X0141137Y0015646D01*
X0140992Y0015616D01*
X0140845Y0015590D01*
X0140698Y0015568D01*
X0140550Y0015550D01*
D14*
X0109100Y0107050D02*
X0094500Y0107050D01*
X0094500Y0114050D01*
X0109100Y0114050D01*
X0109100Y0107050D01*
X0293250Y0107050D02*
X0293250Y0114050D01*
X0307850Y0114050D01*
X0307850Y0107050D01*
X0293250Y0107050D01*
M02*
