M48
INCH,LZ
;FILE_FORMAT=2:4
;TYPE=PLATED
;Layer: PTH_Through
;EasyEDA v6.5.22, 2023-03-23 22:40:55
;3627553c056445a1abe21900e2fb236e,da1fd6cafd0d43568a8352192e737843,10
;Gerber Generator version 0.2
;Holesize 1 = 0.0350 inch
T01C0.0350
;Holesize 2 = 0.0360 inch
T02C0.0360
%
G05
G90
T01
X032000Y017996
X033000Y017996
X034000Y017996
X035000Y017996
X036000Y017996
X037000Y017996
X038000Y017996
X039000Y017996
X040000Y017996
X041000Y017996
X042000Y017996
X043000Y017996
X044000Y017996
X045000Y017996
X046000Y017996
X032000Y027996
X033000Y027996
X034000Y027996
X035000Y027996
X036000Y027996
X037000Y027996
X038000Y027996
X039000Y027996
X040000Y027996
X041000Y027996
X042000Y027996
X043000Y027996
X044000Y027996
X045000Y027996
X046000Y027996
X030000Y011996
X031000Y011996
X032000Y011996
X033000Y011996
X034000Y011996
X035000Y011996
X036000Y011996
X037000Y011996
X038000Y011996
X039000Y011996
X040000Y011996
X041000Y011996
X042000Y011996
X043000Y011996
X044000Y011996
X045000Y011996
X046000Y011996
X047000Y011996
X048000Y011996
X049000Y011996
X035000Y007996
X043000Y007996
T02
X041950Y014996
X039000Y014996
X038000Y013996
X042000Y013996
X036950Y006000
X036000Y007000
X033000Y009996
X034000Y008996
X042000Y008996
X041000Y009996
X044000Y007000
X044950Y006000
M30
