G04 Layer: TopSolderMaskLayer*
G04 EasyEDA v6.5.22, 2023-03-23 22:40:55*
G04 3627553c056445a1abe21900e2fb236e,da1fd6cafd0d43568a8352192e737843,10*
G04 Gerber Generator version 0.2*
G04 Scale: 100 percent, Rotated: No, Reflected: No *
G04 Dimensions in inches *
G04 leading zeros omitted , absolute positions ,3 integer and 6 decimal *
%FSLAX36Y36*%
%MOIN*%

%AMMACRO1*1,1,$1,$2,$3*1,1,$1,$4,$5*1,1,$1,0-$2,0-$3*1,1,$1,0-$4,0-$5*20,1,$1,$2,$3,$4,$5,0*20,1,$1,$4,$5,0-$2,0-$3,0*20,1,$1,0-$2,0-$3,0-$4,0-$5,0*20,1,$1,0-$4,0-$5,$2,$3,0*4,1,4,$2,$3,$4,$5,0-$2,0-$3,0-$4,0-$5,$2,$3,0*%
%ADD10C,0.0660*%
%ADD11MACRO1,0.004X0.031X-0.031X-0.031X-0.031*%
%ADD12C,0.0680*%

%LPD*%
D10*
G01*
X3200000Y1799580D03*
G01*
X3300000Y1799580D03*
G01*
X3400000Y1799580D03*
G01*
X3500000Y1799580D03*
G01*
X3600000Y1799580D03*
G01*
X3700000Y1799580D03*
G01*
X3800000Y1799580D03*
G01*
X3900000Y1799580D03*
G01*
X4000000Y1799580D03*
G01*
X4100000Y1799580D03*
G01*
X4200000Y1799580D03*
G01*
X4300000Y1799580D03*
G01*
X4400000Y1799580D03*
G01*
X4500000Y1799580D03*
D11*
G01*
X4600000Y1799580D03*
D10*
G01*
X3200000Y2799580D03*
G01*
X3300000Y2799580D03*
G01*
X3400000Y2799580D03*
G01*
X3500000Y2799580D03*
G01*
X3600000Y2799580D03*
G01*
X3700000Y2799580D03*
G01*
X3800000Y2799580D03*
G01*
X3900000Y2799580D03*
G01*
X4000000Y2799580D03*
G01*
X4100000Y2799580D03*
G01*
X4200000Y2799580D03*
G01*
X4300000Y2799580D03*
G01*
X4400000Y2799580D03*
G01*
X4500000Y2799580D03*
D11*
G01*
X4600000Y2799580D03*
D10*
G01*
X3000000Y1199580D03*
G01*
X3100000Y1199580D03*
G01*
X3200000Y1199580D03*
G01*
X3300000Y1199580D03*
G01*
X3400000Y1199580D03*
G01*
X3500000Y1199580D03*
G01*
X3600000Y1199580D03*
G01*
X3700000Y1199580D03*
G01*
X3800000Y1199580D03*
G01*
X3900000Y1199580D03*
G01*
X4000000Y1199580D03*
G01*
X4100000Y1199580D03*
G01*
X4200000Y1199580D03*
G01*
X4300000Y1199580D03*
G01*
X4400000Y1199580D03*
G01*
X4500000Y1199580D03*
G01*
X4600000Y1199580D03*
G01*
X4700000Y1199580D03*
G01*
X4800000Y1199580D03*
D11*
G01*
X4900000Y1199580D03*
D12*
G01*
X4195000Y1499580D03*
G01*
X3900000Y1499580D03*
G01*
X3800000Y1399580D03*
G01*
X4200000Y1399580D03*
G01*
X3695000Y600000D03*
G01*
X3600000Y700000D03*
D10*
G01*
X3500000Y799580D03*
D12*
G01*
X3300000Y999580D03*
G01*
X3400000Y899580D03*
G01*
X4200000Y899580D03*
G01*
X4100000Y999580D03*
D10*
G01*
X4300000Y799580D03*
D12*
G01*
X4400000Y700000D03*
G01*
X4495000Y600000D03*
M02*
