G04 Layer: TopSilkscreenLayer*
G04 EasyEDA v6.5.22, 2023-03-23 22:40:55*
G04 3627553c056445a1abe21900e2fb236e,da1fd6cafd0d43568a8352192e737843,10*
G04 Gerber Generator version 0.2*
G04 Scale: 100 percent, Rotated: No, Reflected: No *
G04 Dimensions in inches *
G04 leading zeros omitted , absolute positions ,3 integer and 6 decimal *
%FSLAX36Y36*%
%MOIN*%

%ADD10C,0.0060*%
%ADD11C,0.0080*%
%ADD12C,0.0080*%

%LPD*%
D10*
X3910000Y1684180D02*
G01*
X3910000Y1727080D01*
X3881400Y1684180D02*
G01*
X3881400Y1727080D01*
X3910000Y1704580D02*
G01*
X3881400Y1704580D01*
X3867899Y1692379D02*
G01*
X3863800Y1690279D01*
X3857600Y1684180D01*
X3857600Y1727080D01*
X3910000Y2684180D02*
G01*
X3910000Y2727080D01*
X3881400Y2684180D02*
G01*
X3881400Y2727080D01*
X3910000Y2704580D02*
G01*
X3881400Y2704580D01*
X3865799Y2694380D02*
G01*
X3865799Y2692379D01*
X3863800Y2688279D01*
X3861700Y2686179D01*
X3857600Y2684180D01*
X3849499Y2684180D01*
X3845399Y2686179D01*
X3843299Y2688279D01*
X3841300Y2692379D01*
X3841300Y2696480D01*
X3843299Y2700580D01*
X3847399Y2706680D01*
X3867899Y2727080D01*
X3839200Y2727080D01*
X3960000Y1094180D02*
G01*
X3960000Y1137080D01*
X3931400Y1094180D02*
G01*
X3931400Y1137080D01*
X3960000Y1114580D02*
G01*
X3931400Y1114580D01*
X3913800Y1094180D02*
G01*
X3891300Y1094180D01*
X3903500Y1110580D01*
X3897399Y1110580D01*
X3893299Y1112579D01*
X3891300Y1114580D01*
X3889200Y1120779D01*
X3889200Y1124879D01*
X3891300Y1130979D01*
X3895399Y1135079D01*
X3901499Y1137080D01*
X3907600Y1137080D01*
X3913800Y1135079D01*
X3915799Y1133080D01*
X3917899Y1128980D01*
D11*
X3150000Y1749580D02*
G01*
X3150000Y1749580D01*
X3150000Y1849580D01*
X4650000Y1849580D01*
X4650000Y1749580D01*
X4575000Y1749580D01*
D12*
X3150000Y1749580D02*
G01*
X4575000Y1749580D01*
D11*
X3150000Y2749580D02*
G01*
X3150000Y2749580D01*
X3150000Y2849580D01*
X4650000Y2849580D01*
X4650000Y2749580D01*
X4575000Y2749580D01*
D12*
X3150000Y2749580D02*
G01*
X4575000Y2749580D01*
D11*
X2950000Y1152080D02*
G01*
X2950000Y1147080D01*
X4950000Y1147080D01*
X4950000Y1252080D01*
X2950000Y1252080D01*
X2950000Y1152080D01*
M02*
