G04 Layer: BottomLayer*
G04 EasyEDA v6.5.22, 2023-03-23 22:40:55*
G04 3627553c056445a1abe21900e2fb236e,da1fd6cafd0d43568a8352192e737843,10*
G04 Gerber Generator version 0.2*
G04 Scale: 100 percent, Rotated: No, Reflected: No *
G04 Dimensions in inches *
G04 leading zeros omitted , absolute positions ,3 integer and 6 decimal *
%FSLAX36Y36*%
%MOIN*%

%ADD10C,0.0100*%
%ADD11C,0.0620*%
%ADD12R,0.0620X0.0620*%
%ADD13C,0.0600*%

%LPD*%
D10*
X4195001Y1499580D02*
G01*
X3900001Y1499580D01*
X4200001Y1399580D02*
G01*
X3800001Y1399580D01*
X4100001Y999580D02*
G01*
X3300001Y999580D01*
X4200001Y899580D02*
G01*
X3400001Y899580D01*
X4300001Y799580D02*
G01*
X3500001Y799580D01*
X4400001Y700000D02*
G01*
X3600001Y700000D01*
X4495001Y600000D02*
G01*
X3695001Y600000D01*
D11*
G01*
X3200000Y1799580D03*
G01*
X3300000Y1799580D03*
G01*
X3400000Y1799580D03*
G01*
X3500000Y1799580D03*
G01*
X3600000Y1799580D03*
G01*
X3700000Y1799580D03*
G01*
X3800000Y1799580D03*
G01*
X3900000Y1799580D03*
G01*
X4000000Y1799580D03*
G01*
X4100000Y1799580D03*
G01*
X4200000Y1799580D03*
G01*
X4300000Y1799580D03*
G01*
X4400000Y1799580D03*
G01*
X4500000Y1799580D03*
D12*
G01*
X4600000Y1799580D03*
D11*
G01*
X3200000Y2799580D03*
G01*
X3300000Y2799580D03*
G01*
X3400000Y2799580D03*
G01*
X3500000Y2799580D03*
G01*
X3600000Y2799580D03*
G01*
X3700000Y2799580D03*
G01*
X3800000Y2799580D03*
G01*
X3900000Y2799580D03*
G01*
X4000000Y2799580D03*
G01*
X4100000Y2799580D03*
G01*
X4200000Y2799580D03*
G01*
X4300000Y2799580D03*
G01*
X4400000Y2799580D03*
G01*
X4500000Y2799580D03*
D12*
G01*
X4600000Y2799580D03*
D11*
G01*
X3000000Y1199580D03*
G01*
X3100000Y1199580D03*
G01*
X3200000Y1199580D03*
G01*
X3300000Y1199580D03*
G01*
X3400000Y1199580D03*
G01*
X3500000Y1199580D03*
G01*
X3600000Y1199580D03*
G01*
X3700000Y1199580D03*
G01*
X3800000Y1199580D03*
G01*
X3900000Y1199580D03*
G01*
X4000000Y1199580D03*
G01*
X4100000Y1199580D03*
G01*
X4200000Y1199580D03*
G01*
X4300000Y1199580D03*
G01*
X4400000Y1199580D03*
G01*
X4500000Y1199580D03*
G01*
X4600000Y1199580D03*
G01*
X4700000Y1199580D03*
G01*
X4800000Y1199580D03*
D12*
G01*
X4900000Y1199580D03*
D13*
G01*
X4195000Y1499580D03*
G01*
X3900000Y1499580D03*
G01*
X3800000Y1399580D03*
G01*
X4200000Y1399580D03*
G01*
X3695000Y600000D03*
G01*
X3600000Y700000D03*
D11*
G01*
X3500000Y799580D03*
D13*
G01*
X3300000Y999580D03*
G01*
X3400000Y899580D03*
G01*
X4200000Y899580D03*
G01*
X4100000Y999580D03*
D11*
G01*
X4300000Y799580D03*
D13*
G01*
X4400000Y700000D03*
G01*
X4495000Y600000D03*
M02*
