G04 Layer: TopLayer*
G04 EasyEDA v6.5.22, 2023-03-23 22:40:55*
G04 3627553c056445a1abe21900e2fb236e,da1fd6cafd0d43568a8352192e737843,10*
G04 Gerber Generator version 0.2*
G04 Scale: 100 percent, Rotated: No, Reflected: No *
G04 Dimensions in inches *
G04 leading zeros omitted , absolute positions ,3 integer and 6 decimal *
%FSLAX36Y36*%
%MOIN*%

%ADD10C,0.0100*%
%ADD11C,0.0620*%
%ADD12R,0.0620X0.0620*%
%ADD13C,0.0600*%

%LPD*%
G36*
X2496440Y495000D02*
G01*
X2494920Y495300D01*
X2493620Y496160D01*
X2492760Y497420D01*
X2492420Y498940D01*
X2477500Y1305060D01*
X2499940Y2996060D01*
X2500260Y2997559D01*
X2501140Y2998840D01*
X2502420Y2999700D01*
X2503940Y3000000D01*
X4996000Y3000000D01*
X4997540Y2999700D01*
X4998820Y2998820D01*
X4999700Y2997540D01*
X5000000Y2996000D01*
X5000000Y504000D01*
X4999700Y502460D01*
X4998840Y501160D01*
X4997540Y500300D01*
X4996000Y500000D01*
G37*

%LPC*%
G36*
X4495000Y559800D02*
G01*
X4500360Y560160D01*
X4505620Y561240D01*
X4510700Y563000D01*
X4515480Y565420D01*
X4519900Y568460D01*
X4523900Y572060D01*
X4527360Y576160D01*
X4530240Y580680D01*
X4532500Y585560D01*
X4534100Y590680D01*
X4534980Y595980D01*
X4535160Y601340D01*
X4534640Y606680D01*
X4533380Y611900D01*
X4531460Y616920D01*
X4528880Y621620D01*
X4525700Y625940D01*
X4521960Y629800D01*
X4516120Y634380D01*
X4515440Y635560D01*
X4515200Y636920D01*
X4515200Y1158760D01*
X4515480Y1160200D01*
X4516260Y1161460D01*
X4517440Y1162340D01*
X4520600Y1163900D01*
X4525080Y1166900D01*
X4529120Y1170460D01*
X4532680Y1174500D01*
X4535680Y1178980D01*
X4538060Y1183820D01*
X4539780Y1188920D01*
X4540840Y1194200D01*
X4541200Y1199580D01*
X4540840Y1204960D01*
X4539780Y1210240D01*
X4538060Y1215340D01*
X4535680Y1220180D01*
X4532680Y1224660D01*
X4529120Y1228700D01*
X4525080Y1232260D01*
X4520600Y1235260D01*
X4515760Y1237640D01*
X4510660Y1239360D01*
X4505380Y1240420D01*
X4500000Y1240780D01*
X4494620Y1240420D01*
X4489340Y1239360D01*
X4484240Y1237640D01*
X4479400Y1235260D01*
X4474920Y1232260D01*
X4470880Y1228700D01*
X4467320Y1224660D01*
X4464320Y1220180D01*
X4461940Y1215340D01*
X4460220Y1210240D01*
X4459160Y1204960D01*
X4458800Y1199580D01*
X4459160Y1194200D01*
X4460220Y1188920D01*
X4461940Y1183820D01*
X4464320Y1178980D01*
X4467320Y1174500D01*
X4470880Y1170460D01*
X4474920Y1166900D01*
X4479400Y1163900D01*
X4482580Y1162340D01*
X4483760Y1161460D01*
X4484520Y1160200D01*
X4484800Y1158760D01*
X4484800Y641840D01*
X4484420Y640160D01*
X4483380Y638780D01*
X4481820Y637960D01*
X4476880Y635880D01*
X4472260Y633140D01*
X4468040Y629800D01*
X4464300Y625940D01*
X4461120Y621620D01*
X4458540Y616920D01*
X4456620Y611900D01*
X4455360Y606680D01*
X4454840Y601340D01*
X4455020Y595980D01*
X4455900Y590680D01*
X4457500Y585560D01*
X4459760Y580680D01*
X4462640Y576160D01*
X4466100Y572060D01*
X4470100Y568460D01*
X4474520Y565420D01*
X4479300Y563000D01*
X4484380Y561240D01*
X4489640Y560160D01*
G37*
G36*
X3695000Y559800D02*
G01*
X3700360Y560160D01*
X3705620Y561240D01*
X3710700Y563000D01*
X3715480Y565420D01*
X3719900Y568460D01*
X3723900Y572060D01*
X3727360Y576160D01*
X3730240Y580680D01*
X3732500Y585560D01*
X3734100Y590680D01*
X3734980Y595980D01*
X3735160Y601340D01*
X3734640Y606680D01*
X3733380Y611900D01*
X3731460Y616920D01*
X3728880Y621620D01*
X3725700Y625940D01*
X3721960Y629800D01*
X3717740Y633140D01*
X3711360Y636940D01*
X3710500Y638240D01*
X3710200Y639760D01*
X3710200Y1156760D01*
X3710539Y1158380D01*
X3711500Y1159720D01*
X3712919Y1160560D01*
X3715760Y1161520D01*
X3720600Y1163900D01*
X3725080Y1166900D01*
X3729120Y1170460D01*
X3732679Y1174500D01*
X3735680Y1178980D01*
X3738060Y1183820D01*
X3739780Y1188920D01*
X3740840Y1194200D01*
X3741200Y1199580D01*
X3740840Y1204960D01*
X3739780Y1210240D01*
X3738060Y1215340D01*
X3735680Y1220180D01*
X3732679Y1224660D01*
X3729120Y1228700D01*
X3725080Y1232260D01*
X3720600Y1235260D01*
X3717440Y1236820D01*
X3716259Y1237700D01*
X3715480Y1238960D01*
X3715200Y1240400D01*
X3715200Y1499800D01*
X3714880Y1502960D01*
X3714020Y1505800D01*
X3712620Y1508440D01*
X3710600Y1510880D01*
X3610880Y1610600D01*
X3608440Y1612620D01*
X3605800Y1614019D01*
X3602960Y1614880D01*
X3599800Y1615200D01*
X3207960Y1615200D01*
X3206420Y1615500D01*
X3205120Y1616380D01*
X3116380Y1705120D01*
X3115500Y1706420D01*
X3115200Y1707960D01*
X3115200Y1991639D01*
X3115500Y1993180D01*
X3116380Y1994480D01*
X3881860Y2759980D01*
X3883080Y2760800D01*
X3884520Y2761139D01*
X3885980Y2760940D01*
X3889340Y2759800D01*
X3894620Y2758740D01*
X3900000Y2758380D01*
X3905380Y2758740D01*
X3910659Y2759800D01*
X3915760Y2761520D01*
X3920600Y2763900D01*
X3925080Y2766900D01*
X3929120Y2770460D01*
X3932679Y2774500D01*
X3935680Y2778980D01*
X3938060Y2783820D01*
X3939780Y2788920D01*
X3940840Y2794200D01*
X3941200Y2799580D01*
X3940840Y2804960D01*
X3939780Y2810240D01*
X3938060Y2815340D01*
X3935680Y2820179D01*
X3932679Y2824660D01*
X3929120Y2828700D01*
X3925080Y2832260D01*
X3920600Y2835260D01*
X3915760Y2837640D01*
X3910659Y2839360D01*
X3905380Y2840419D01*
X3900000Y2840779D01*
X3894620Y2840419D01*
X3889340Y2839360D01*
X3884240Y2837640D01*
X3879400Y2835260D01*
X3874920Y2832260D01*
X3870880Y2828700D01*
X3867320Y2824660D01*
X3864320Y2820179D01*
X3861940Y2815340D01*
X3860220Y2810240D01*
X3859160Y2804960D01*
X3858800Y2799580D01*
X3859160Y2794200D01*
X3860220Y2788920D01*
X3861340Y2785600D01*
X3861540Y2784140D01*
X3861220Y2782700D01*
X3860380Y2781480D01*
X3089400Y2010480D01*
X3087380Y2008040D01*
X3085980Y2005400D01*
X3085120Y2002560D01*
X3084800Y1999400D01*
X3084800Y1700200D01*
X3085120Y1697040D01*
X3085980Y1694199D01*
X3087380Y1691560D01*
X3089400Y1689120D01*
X3189120Y1589400D01*
X3191560Y1587380D01*
X3194200Y1585980D01*
X3197040Y1585120D01*
X3200200Y1584800D01*
X3592040Y1584800D01*
X3593580Y1584500D01*
X3594880Y1583620D01*
X3683620Y1494880D01*
X3684500Y1493580D01*
X3684800Y1492040D01*
X3684800Y1240400D01*
X3684520Y1238960D01*
X3683740Y1237700D01*
X3682559Y1236820D01*
X3679400Y1235260D01*
X3674920Y1232260D01*
X3670880Y1228700D01*
X3667320Y1224660D01*
X3664320Y1220180D01*
X3661940Y1215340D01*
X3660220Y1210240D01*
X3659160Y1204960D01*
X3658800Y1199580D01*
X3659160Y1194200D01*
X3660220Y1188920D01*
X3661940Y1183820D01*
X3664320Y1178980D01*
X3667320Y1174500D01*
X3670880Y1170460D01*
X3674920Y1166900D01*
X3678020Y1164820D01*
X3678980Y1163940D01*
X3679580Y1162780D01*
X3679800Y1161500D01*
X3679800Y639760D01*
X3679500Y638240D01*
X3678639Y636940D01*
X3672260Y633140D01*
X3668039Y629800D01*
X3664300Y625940D01*
X3661120Y621620D01*
X3658540Y616920D01*
X3656620Y611900D01*
X3655360Y606680D01*
X3654840Y601340D01*
X3655020Y595980D01*
X3655899Y590680D01*
X3657500Y585560D01*
X3659760Y580680D01*
X3662640Y576160D01*
X3666100Y572060D01*
X3670100Y568460D01*
X3674520Y565420D01*
X3679300Y563000D01*
X3684380Y561240D01*
X3689640Y560160D01*
G37*
G36*
X4400000Y659800D02*
G01*
X4405360Y660160D01*
X4410620Y661240D01*
X4415700Y663000D01*
X4420480Y665420D01*
X4424900Y668460D01*
X4428900Y672060D01*
X4432360Y676160D01*
X4435240Y680680D01*
X4437500Y685560D01*
X4439100Y690680D01*
X4439980Y695980D01*
X4440160Y701340D01*
X4439640Y706680D01*
X4438380Y711900D01*
X4436460Y716919D01*
X4433880Y721620D01*
X4430700Y725939D01*
X4426960Y729800D01*
X4422740Y733139D01*
X4416360Y736940D01*
X4415500Y738240D01*
X4415200Y739760D01*
X4415200Y1158760D01*
X4415480Y1160200D01*
X4416260Y1161460D01*
X4417440Y1162340D01*
X4420600Y1163900D01*
X4425080Y1166900D01*
X4429120Y1170460D01*
X4432680Y1174500D01*
X4435680Y1178980D01*
X4438060Y1183820D01*
X4439780Y1188920D01*
X4440840Y1194200D01*
X4441200Y1199580D01*
X4440840Y1204960D01*
X4439780Y1210240D01*
X4438060Y1215340D01*
X4435680Y1220180D01*
X4432680Y1224660D01*
X4429120Y1228700D01*
X4425080Y1232260D01*
X4420600Y1235260D01*
X4415760Y1237640D01*
X4410660Y1239360D01*
X4405380Y1240420D01*
X4400000Y1240780D01*
X4394620Y1240420D01*
X4389340Y1239360D01*
X4384240Y1237640D01*
X4379400Y1235260D01*
X4374920Y1232260D01*
X4370880Y1228700D01*
X4367320Y1224660D01*
X4364320Y1220180D01*
X4361940Y1215340D01*
X4360220Y1210240D01*
X4359160Y1204960D01*
X4358800Y1199580D01*
X4359160Y1194200D01*
X4360220Y1188920D01*
X4361940Y1183820D01*
X4364320Y1178980D01*
X4367320Y1174500D01*
X4370880Y1170460D01*
X4374920Y1166900D01*
X4379400Y1163900D01*
X4382580Y1162340D01*
X4383760Y1161460D01*
X4384520Y1160200D01*
X4384800Y1158760D01*
X4384800Y739760D01*
X4384500Y738240D01*
X4383640Y736940D01*
X4377260Y733139D01*
X4373040Y729800D01*
X4369300Y725939D01*
X4366120Y721620D01*
X4363540Y716919D01*
X4361620Y711900D01*
X4360360Y706680D01*
X4359840Y701340D01*
X4360020Y695980D01*
X4360900Y690680D01*
X4362500Y685560D01*
X4364760Y680680D01*
X4367640Y676160D01*
X4371100Y672060D01*
X4375100Y668460D01*
X4379520Y665420D01*
X4384300Y663000D01*
X4389380Y661240D01*
X4394640Y660160D01*
G37*
G36*
X3600000Y659800D02*
G01*
X3605360Y660160D01*
X3610620Y661240D01*
X3615700Y663000D01*
X3620480Y665420D01*
X3624900Y668460D01*
X3628900Y672060D01*
X3632360Y676160D01*
X3635240Y680680D01*
X3637500Y685560D01*
X3639100Y690680D01*
X3639980Y695980D01*
X3640160Y701340D01*
X3639640Y706680D01*
X3638380Y711900D01*
X3636460Y716919D01*
X3633880Y721620D01*
X3630700Y725939D01*
X3626960Y729800D01*
X3622740Y733139D01*
X3616360Y736940D01*
X3615500Y738240D01*
X3615200Y739760D01*
X3615200Y1158760D01*
X3615480Y1160200D01*
X3616259Y1161460D01*
X3617440Y1162340D01*
X3620600Y1163900D01*
X3625080Y1166900D01*
X3629120Y1170460D01*
X3632679Y1174500D01*
X3635680Y1178980D01*
X3638060Y1183820D01*
X3639780Y1188920D01*
X3640840Y1194200D01*
X3641200Y1199580D01*
X3640840Y1204960D01*
X3639780Y1210240D01*
X3638060Y1215340D01*
X3635680Y1220180D01*
X3632679Y1224660D01*
X3629120Y1228700D01*
X3625080Y1232260D01*
X3620600Y1235260D01*
X3617440Y1236820D01*
X3616259Y1237700D01*
X3615480Y1238960D01*
X3615200Y1240400D01*
X3615200Y1399800D01*
X3614880Y1402960D01*
X3614020Y1405800D01*
X3612620Y1408440D01*
X3610600Y1410880D01*
X3510880Y1510600D01*
X3508440Y1512620D01*
X3505800Y1514019D01*
X3502960Y1514880D01*
X3499800Y1515200D01*
X3207960Y1515200D01*
X3206420Y1515500D01*
X3205120Y1516380D01*
X3016380Y1705120D01*
X3015500Y1706420D01*
X3015200Y1707960D01*
X3015200Y1991639D01*
X3015500Y1993180D01*
X3016380Y1994480D01*
X3781860Y2759980D01*
X3783080Y2760800D01*
X3784520Y2761139D01*
X3785980Y2760940D01*
X3789340Y2759800D01*
X3794620Y2758740D01*
X3800000Y2758380D01*
X3805380Y2758740D01*
X3810659Y2759800D01*
X3815760Y2761520D01*
X3820600Y2763900D01*
X3825080Y2766900D01*
X3829120Y2770460D01*
X3832679Y2774500D01*
X3835680Y2778980D01*
X3838060Y2783820D01*
X3839780Y2788920D01*
X3840840Y2794200D01*
X3841200Y2799580D01*
X3840840Y2804960D01*
X3839780Y2810240D01*
X3838060Y2815340D01*
X3835680Y2820179D01*
X3832679Y2824660D01*
X3829120Y2828700D01*
X3825080Y2832260D01*
X3820600Y2835260D01*
X3815760Y2837640D01*
X3810659Y2839360D01*
X3805380Y2840419D01*
X3800000Y2840779D01*
X3794620Y2840419D01*
X3789340Y2839360D01*
X3784240Y2837640D01*
X3779400Y2835260D01*
X3774920Y2832260D01*
X3770880Y2828700D01*
X3767320Y2824660D01*
X3764320Y2820179D01*
X3761940Y2815340D01*
X3760220Y2810240D01*
X3759160Y2804960D01*
X3758800Y2799580D01*
X3759160Y2794200D01*
X3760220Y2788920D01*
X3761340Y2785600D01*
X3761540Y2784140D01*
X3761220Y2782700D01*
X3760380Y2781480D01*
X2989400Y2010480D01*
X2987380Y2008040D01*
X2985980Y2005400D01*
X2985120Y2002560D01*
X2984800Y1999400D01*
X2984800Y1700200D01*
X2985120Y1697040D01*
X2985980Y1694199D01*
X2987380Y1691560D01*
X2989400Y1689120D01*
X3189120Y1489400D01*
X3191560Y1487380D01*
X3194200Y1485980D01*
X3197040Y1485120D01*
X3200200Y1484800D01*
X3492040Y1484800D01*
X3493580Y1484500D01*
X3494880Y1483620D01*
X3583620Y1394880D01*
X3584500Y1393580D01*
X3584800Y1392040D01*
X3584800Y1240400D01*
X3584520Y1238960D01*
X3583740Y1237700D01*
X3582559Y1236820D01*
X3579400Y1235260D01*
X3574920Y1232260D01*
X3570880Y1228700D01*
X3567320Y1224660D01*
X3564320Y1220180D01*
X3561940Y1215340D01*
X3560220Y1210240D01*
X3559160Y1204960D01*
X3558800Y1199580D01*
X3559160Y1194200D01*
X3560220Y1188920D01*
X3561940Y1183820D01*
X3564320Y1178980D01*
X3567320Y1174500D01*
X3570880Y1170460D01*
X3574920Y1166900D01*
X3579400Y1163900D01*
X3582580Y1162340D01*
X3583759Y1161460D01*
X3584520Y1160200D01*
X3584800Y1158760D01*
X3584800Y739760D01*
X3584500Y738240D01*
X3583639Y736940D01*
X3577260Y733139D01*
X3573039Y729800D01*
X3569300Y725939D01*
X3566120Y721620D01*
X3563540Y716919D01*
X3561620Y711900D01*
X3560360Y706680D01*
X3559840Y701340D01*
X3560020Y695980D01*
X3560899Y690680D01*
X3562500Y685560D01*
X3564760Y680680D01*
X3567640Y676160D01*
X3571100Y672060D01*
X3575100Y668460D01*
X3579520Y665420D01*
X3584300Y663000D01*
X3589380Y661240D01*
X3594640Y660160D01*
G37*
G36*
X4300000Y758379D02*
G01*
X4305380Y758740D01*
X4310660Y759800D01*
X4315760Y761520D01*
X4320600Y763900D01*
X4325080Y766900D01*
X4329120Y770460D01*
X4332680Y774500D01*
X4335680Y778980D01*
X4338060Y783820D01*
X4339780Y788920D01*
X4340840Y794200D01*
X4341200Y799580D01*
X4340840Y804960D01*
X4339780Y810240D01*
X4338060Y815340D01*
X4335680Y820180D01*
X4332680Y824659D01*
X4329120Y828700D01*
X4325080Y832260D01*
X4320600Y835260D01*
X4317440Y836820D01*
X4316260Y837700D01*
X4315480Y838960D01*
X4315200Y840400D01*
X4315200Y1158760D01*
X4315480Y1160200D01*
X4316260Y1161460D01*
X4317440Y1162340D01*
X4320600Y1163900D01*
X4325080Y1166900D01*
X4329120Y1170460D01*
X4332680Y1174500D01*
X4335680Y1178980D01*
X4338060Y1183820D01*
X4339780Y1188920D01*
X4340840Y1194200D01*
X4341200Y1199580D01*
X4340840Y1204960D01*
X4339780Y1210240D01*
X4338060Y1215340D01*
X4335680Y1220180D01*
X4332680Y1224660D01*
X4329120Y1228700D01*
X4325080Y1232260D01*
X4320600Y1235260D01*
X4315760Y1237640D01*
X4310660Y1239360D01*
X4305380Y1240420D01*
X4300000Y1240780D01*
X4294620Y1240420D01*
X4289340Y1239360D01*
X4284240Y1237640D01*
X4279400Y1235260D01*
X4274920Y1232260D01*
X4270880Y1228700D01*
X4267320Y1224660D01*
X4264320Y1220180D01*
X4261940Y1215340D01*
X4260220Y1210240D01*
X4259160Y1204960D01*
X4258800Y1199580D01*
X4259160Y1194200D01*
X4260220Y1188920D01*
X4261940Y1183820D01*
X4264320Y1178980D01*
X4267320Y1174500D01*
X4270880Y1170460D01*
X4274920Y1166900D01*
X4279400Y1163900D01*
X4282580Y1162340D01*
X4283760Y1161460D01*
X4284520Y1160200D01*
X4284800Y1158760D01*
X4284800Y840400D01*
X4284520Y838960D01*
X4283760Y837700D01*
X4282580Y836820D01*
X4279400Y835260D01*
X4274920Y832260D01*
X4270880Y828700D01*
X4267320Y824659D01*
X4264320Y820180D01*
X4261940Y815340D01*
X4260220Y810240D01*
X4259160Y804960D01*
X4258800Y799580D01*
X4259160Y794200D01*
X4260220Y788920D01*
X4261940Y783820D01*
X4264320Y778980D01*
X4267320Y774500D01*
X4270880Y770460D01*
X4274920Y766900D01*
X4279400Y763900D01*
X4284240Y761520D01*
X4289340Y759800D01*
X4294620Y758740D01*
G37*
G36*
X3500000Y758379D02*
G01*
X3505380Y758740D01*
X3510659Y759800D01*
X3515760Y761520D01*
X3520600Y763900D01*
X3525080Y766900D01*
X3529120Y770460D01*
X3532679Y774500D01*
X3535680Y778980D01*
X3538060Y783820D01*
X3539780Y788920D01*
X3540840Y794200D01*
X3541200Y799580D01*
X3540840Y804960D01*
X3539780Y810240D01*
X3538060Y815340D01*
X3535680Y820180D01*
X3532679Y824659D01*
X3529120Y828700D01*
X3525080Y832260D01*
X3520600Y835260D01*
X3517440Y836820D01*
X3516259Y837700D01*
X3515480Y838960D01*
X3515200Y840400D01*
X3515200Y1158760D01*
X3515480Y1160200D01*
X3516259Y1161460D01*
X3517440Y1162340D01*
X3520600Y1163900D01*
X3525080Y1166900D01*
X3529120Y1170460D01*
X3532679Y1174500D01*
X3535680Y1178980D01*
X3538060Y1183820D01*
X3539780Y1188920D01*
X3540840Y1194200D01*
X3541200Y1199580D01*
X3540840Y1204960D01*
X3539780Y1210240D01*
X3538060Y1215340D01*
X3535680Y1220180D01*
X3532679Y1224660D01*
X3529120Y1228700D01*
X3525080Y1232260D01*
X3520600Y1235260D01*
X3517440Y1236820D01*
X3516259Y1237700D01*
X3515480Y1238960D01*
X3515200Y1240400D01*
X3515200Y1299800D01*
X3514880Y1302960D01*
X3514020Y1305800D01*
X3512620Y1308440D01*
X3510600Y1310880D01*
X3410880Y1410600D01*
X3408440Y1412620D01*
X3405800Y1414019D01*
X3402960Y1414880D01*
X3399800Y1415200D01*
X3207960Y1415200D01*
X3206420Y1415500D01*
X3205120Y1416380D01*
X2916380Y1705120D01*
X2915500Y1706420D01*
X2915200Y1707960D01*
X2915200Y1991639D01*
X2915500Y1993180D01*
X2916380Y1994480D01*
X3681860Y2759980D01*
X3683080Y2760800D01*
X3684520Y2761139D01*
X3685980Y2760940D01*
X3689340Y2759800D01*
X3694620Y2758740D01*
X3700000Y2758380D01*
X3705380Y2758740D01*
X3710659Y2759800D01*
X3715760Y2761520D01*
X3720600Y2763900D01*
X3725080Y2766900D01*
X3729120Y2770460D01*
X3732679Y2774500D01*
X3735680Y2778980D01*
X3738060Y2783820D01*
X3739780Y2788920D01*
X3740840Y2794200D01*
X3741200Y2799580D01*
X3740840Y2804960D01*
X3739780Y2810240D01*
X3738060Y2815340D01*
X3735680Y2820179D01*
X3732679Y2824660D01*
X3729120Y2828700D01*
X3725080Y2832260D01*
X3720600Y2835260D01*
X3715760Y2837640D01*
X3710659Y2839360D01*
X3705380Y2840419D01*
X3700000Y2840779D01*
X3694620Y2840419D01*
X3689340Y2839360D01*
X3684240Y2837640D01*
X3679400Y2835260D01*
X3674920Y2832260D01*
X3670880Y2828700D01*
X3667320Y2824660D01*
X3664320Y2820179D01*
X3661940Y2815340D01*
X3660220Y2810240D01*
X3659160Y2804960D01*
X3658800Y2799580D01*
X3659160Y2794200D01*
X3660220Y2788920D01*
X3661340Y2785600D01*
X3661540Y2784140D01*
X3661220Y2782700D01*
X3660380Y2781480D01*
X2889400Y2010480D01*
X2887380Y2008040D01*
X2885980Y2005400D01*
X2885120Y2002560D01*
X2884800Y1999400D01*
X2884800Y1700200D01*
X2885120Y1697040D01*
X2885980Y1694199D01*
X2887380Y1691560D01*
X2889400Y1689120D01*
X3189120Y1389400D01*
X3191560Y1387380D01*
X3194200Y1385980D01*
X3197040Y1385120D01*
X3200200Y1384800D01*
X3392040Y1384800D01*
X3393580Y1384500D01*
X3394880Y1383620D01*
X3483620Y1294880D01*
X3484500Y1293580D01*
X3484800Y1292040D01*
X3484800Y1240400D01*
X3484520Y1238960D01*
X3483740Y1237700D01*
X3482559Y1236820D01*
X3479400Y1235260D01*
X3474920Y1232260D01*
X3470880Y1228700D01*
X3467320Y1224660D01*
X3464320Y1220180D01*
X3461940Y1215340D01*
X3460220Y1210240D01*
X3459160Y1204960D01*
X3458800Y1199580D01*
X3459160Y1194200D01*
X3460220Y1188920D01*
X3461940Y1183820D01*
X3464320Y1178980D01*
X3467320Y1174500D01*
X3470880Y1170460D01*
X3474920Y1166900D01*
X3479400Y1163900D01*
X3482580Y1162340D01*
X3483759Y1161460D01*
X3484520Y1160200D01*
X3484800Y1158760D01*
X3484800Y840400D01*
X3484520Y838960D01*
X3483759Y837700D01*
X3482580Y836820D01*
X3479400Y835260D01*
X3474920Y832260D01*
X3470880Y828700D01*
X3467320Y824659D01*
X3464320Y820180D01*
X3461940Y815340D01*
X3460220Y810240D01*
X3459160Y804960D01*
X3458800Y799580D01*
X3459160Y794200D01*
X3460220Y788920D01*
X3461940Y783820D01*
X3464320Y778980D01*
X3467320Y774500D01*
X3470880Y770460D01*
X3474920Y766900D01*
X3479400Y763900D01*
X3484240Y761520D01*
X3489340Y759800D01*
X3494620Y758740D01*
G37*
G36*
X4200000Y859380D02*
G01*
X4205360Y859740D01*
X4210620Y860819D01*
X4215700Y862580D01*
X4220480Y865000D01*
X4224900Y868040D01*
X4228900Y871640D01*
X4232360Y875740D01*
X4235240Y880260D01*
X4237500Y885140D01*
X4239100Y890260D01*
X4239980Y895560D01*
X4240160Y900920D01*
X4239640Y906260D01*
X4238380Y911480D01*
X4236460Y916500D01*
X4233880Y921200D01*
X4230700Y925520D01*
X4226960Y929380D01*
X4222740Y932720D01*
X4216360Y936520D01*
X4215500Y937820D01*
X4215200Y939340D01*
X4215200Y1158760D01*
X4215480Y1160200D01*
X4216260Y1161460D01*
X4217440Y1162340D01*
X4220600Y1163900D01*
X4225080Y1166900D01*
X4229120Y1170460D01*
X4232680Y1174500D01*
X4235680Y1178980D01*
X4238060Y1183820D01*
X4239780Y1188920D01*
X4240840Y1194200D01*
X4241200Y1199580D01*
X4240840Y1204960D01*
X4239780Y1210240D01*
X4238060Y1215340D01*
X4235680Y1220180D01*
X4232680Y1224660D01*
X4229120Y1228700D01*
X4225080Y1232260D01*
X4220600Y1235260D01*
X4215760Y1237640D01*
X4210660Y1239360D01*
X4205380Y1240420D01*
X4200000Y1240780D01*
X4194620Y1240420D01*
X4189340Y1239360D01*
X4184240Y1237640D01*
X4179400Y1235260D01*
X4174920Y1232260D01*
X4170880Y1228700D01*
X4167320Y1224660D01*
X4164320Y1220180D01*
X4161940Y1215340D01*
X4160220Y1210240D01*
X4159160Y1204960D01*
X4158800Y1199580D01*
X4159160Y1194200D01*
X4160220Y1188920D01*
X4161940Y1183820D01*
X4164320Y1178980D01*
X4167320Y1174500D01*
X4170880Y1170460D01*
X4174920Y1166900D01*
X4179400Y1163900D01*
X4182580Y1162340D01*
X4183759Y1161460D01*
X4184520Y1160200D01*
X4184800Y1158760D01*
X4184800Y939340D01*
X4184500Y937820D01*
X4183639Y936520D01*
X4177260Y932720D01*
X4173039Y929380D01*
X4169300Y925520D01*
X4166120Y921200D01*
X4163540Y916500D01*
X4161620Y911480D01*
X4160360Y906260D01*
X4159840Y900920D01*
X4160020Y895560D01*
X4160899Y890260D01*
X4162500Y885140D01*
X4164760Y880260D01*
X4167640Y875740D01*
X4171100Y871640D01*
X4175100Y868040D01*
X4179520Y865000D01*
X4184300Y862580D01*
X4189380Y860819D01*
X4194640Y859740D01*
G37*
G36*
X3400000Y859380D02*
G01*
X3405360Y859740D01*
X3410620Y860819D01*
X3415700Y862580D01*
X3420480Y865000D01*
X3424900Y868040D01*
X3428900Y871640D01*
X3432360Y875740D01*
X3435240Y880260D01*
X3437500Y885140D01*
X3439100Y890260D01*
X3439980Y895560D01*
X3440160Y900920D01*
X3439640Y906260D01*
X3438380Y911480D01*
X3436460Y916500D01*
X3433880Y921200D01*
X3430700Y925520D01*
X3426960Y929380D01*
X3422740Y932720D01*
X3416360Y936520D01*
X3415500Y937820D01*
X3415200Y939340D01*
X3415200Y1158760D01*
X3415480Y1160200D01*
X3416259Y1161460D01*
X3417440Y1162340D01*
X3420600Y1163900D01*
X3425080Y1166900D01*
X3429120Y1170460D01*
X3432679Y1174500D01*
X3435680Y1178980D01*
X3438060Y1183820D01*
X3439780Y1188920D01*
X3440840Y1194200D01*
X3441200Y1199580D01*
X3440840Y1204960D01*
X3439780Y1210240D01*
X3438060Y1215340D01*
X3435680Y1220180D01*
X3432679Y1224660D01*
X3429120Y1228700D01*
X3425080Y1232260D01*
X3420600Y1235260D01*
X3415760Y1237640D01*
X3410659Y1239360D01*
X3405380Y1240420D01*
X3400000Y1240780D01*
X3394620Y1240420D01*
X3389340Y1239360D01*
X3386019Y1238240D01*
X3384560Y1238040D01*
X3383120Y1238360D01*
X3381900Y1239200D01*
X3310480Y1310600D01*
X3308039Y1312620D01*
X3305400Y1314019D01*
X3302559Y1314880D01*
X3299400Y1315200D01*
X3207960Y1315200D01*
X3206420Y1315500D01*
X3205120Y1316380D01*
X2816380Y1705120D01*
X2815500Y1706420D01*
X2815200Y1707960D01*
X2815200Y1991639D01*
X2815500Y1993180D01*
X2816380Y1994480D01*
X3581860Y2759980D01*
X3583080Y2760800D01*
X3584520Y2761139D01*
X3585980Y2760940D01*
X3589340Y2759800D01*
X3594620Y2758740D01*
X3600000Y2758380D01*
X3605380Y2758740D01*
X3610659Y2759800D01*
X3615760Y2761520D01*
X3620600Y2763900D01*
X3625080Y2766900D01*
X3629120Y2770460D01*
X3632679Y2774500D01*
X3635680Y2778980D01*
X3638060Y2783820D01*
X3639780Y2788920D01*
X3640840Y2794200D01*
X3641200Y2799580D01*
X3640840Y2804960D01*
X3639780Y2810240D01*
X3638060Y2815340D01*
X3635680Y2820179D01*
X3632679Y2824660D01*
X3629120Y2828700D01*
X3625080Y2832260D01*
X3620600Y2835260D01*
X3615760Y2837640D01*
X3610659Y2839360D01*
X3605380Y2840419D01*
X3600000Y2840779D01*
X3594620Y2840419D01*
X3589340Y2839360D01*
X3584240Y2837640D01*
X3579400Y2835260D01*
X3574920Y2832260D01*
X3570880Y2828700D01*
X3567320Y2824660D01*
X3564320Y2820179D01*
X3561940Y2815340D01*
X3560220Y2810240D01*
X3559160Y2804960D01*
X3558800Y2799580D01*
X3559160Y2794200D01*
X3560220Y2788920D01*
X3561340Y2785600D01*
X3561540Y2784140D01*
X3561220Y2782700D01*
X3560380Y2781480D01*
X2789400Y2010480D01*
X2787380Y2008040D01*
X2785980Y2005400D01*
X2785120Y2002560D01*
X2784800Y1999400D01*
X2784800Y1700200D01*
X2785120Y1697040D01*
X2785980Y1694199D01*
X2787380Y1691560D01*
X2789400Y1689120D01*
X3189120Y1289400D01*
X3191560Y1287380D01*
X3194200Y1285980D01*
X3197040Y1285120D01*
X3200200Y1284800D01*
X3291640Y1284800D01*
X3293180Y1284500D01*
X3294480Y1283620D01*
X3360400Y1217720D01*
X3361220Y1216500D01*
X3361560Y1215060D01*
X3361360Y1213600D01*
X3360220Y1210240D01*
X3359160Y1204960D01*
X3358800Y1199580D01*
X3359160Y1194200D01*
X3360220Y1188920D01*
X3361940Y1183820D01*
X3364320Y1178980D01*
X3367320Y1174500D01*
X3370880Y1170460D01*
X3374920Y1166900D01*
X3379400Y1163900D01*
X3382580Y1162340D01*
X3383759Y1161460D01*
X3384520Y1160200D01*
X3384800Y1158760D01*
X3384800Y939340D01*
X3384500Y937820D01*
X3383639Y936520D01*
X3377260Y932720D01*
X3373039Y929380D01*
X3369300Y925520D01*
X3366120Y921200D01*
X3363540Y916500D01*
X3361620Y911480D01*
X3360360Y906260D01*
X3359840Y900920D01*
X3360020Y895560D01*
X3360899Y890260D01*
X3362500Y885140D01*
X3364760Y880260D01*
X3367640Y875740D01*
X3371100Y871640D01*
X3375100Y868040D01*
X3379520Y865000D01*
X3384300Y862580D01*
X3389380Y860819D01*
X3394640Y859740D01*
G37*
G36*
X4100000Y959380D02*
G01*
X4105360Y959740D01*
X4110620Y960819D01*
X4115700Y962580D01*
X4120480Y965000D01*
X4124900Y968040D01*
X4128900Y971640D01*
X4132360Y975740D01*
X4135240Y980260D01*
X4137500Y985140D01*
X4139100Y990260D01*
X4139980Y995560D01*
X4140160Y1000920D01*
X4139640Y1006260D01*
X4138380Y1011480D01*
X4136460Y1016500D01*
X4133880Y1021200D01*
X4130700Y1025520D01*
X4126960Y1029380D01*
X4122740Y1032720D01*
X4116360Y1036520D01*
X4115500Y1037820D01*
X4115200Y1039340D01*
X4115200Y1158760D01*
X4115480Y1160200D01*
X4116259Y1161460D01*
X4117440Y1162340D01*
X4120600Y1163900D01*
X4125080Y1166900D01*
X4129120Y1170460D01*
X4132679Y1174500D01*
X4135680Y1178980D01*
X4138060Y1183820D01*
X4139780Y1188920D01*
X4140840Y1194200D01*
X4141200Y1199580D01*
X4140840Y1204960D01*
X4139780Y1210240D01*
X4138060Y1215340D01*
X4135680Y1220180D01*
X4132679Y1224660D01*
X4129120Y1228700D01*
X4125080Y1232260D01*
X4120600Y1235260D01*
X4115760Y1237640D01*
X4110659Y1239360D01*
X4105380Y1240420D01*
X4100000Y1240780D01*
X4094620Y1240420D01*
X4089340Y1239360D01*
X4084240Y1237640D01*
X4079400Y1235260D01*
X4074920Y1232260D01*
X4070880Y1228700D01*
X4067320Y1224660D01*
X4064320Y1220180D01*
X4061940Y1215340D01*
X4060220Y1210240D01*
X4059160Y1204960D01*
X4058800Y1199580D01*
X4059160Y1194200D01*
X4060220Y1188920D01*
X4061940Y1183820D01*
X4064320Y1178980D01*
X4067320Y1174500D01*
X4070880Y1170460D01*
X4074920Y1166900D01*
X4079400Y1163900D01*
X4082580Y1162340D01*
X4083759Y1161460D01*
X4084520Y1160200D01*
X4084800Y1158760D01*
X4084800Y1039340D01*
X4084500Y1037820D01*
X4083639Y1036520D01*
X4077260Y1032720D01*
X4073039Y1029380D01*
X4069300Y1025520D01*
X4066120Y1021200D01*
X4063540Y1016500D01*
X4061620Y1011480D01*
X4060360Y1006260D01*
X4059840Y1000920D01*
X4060020Y995560D01*
X4060899Y990260D01*
X4062500Y985140D01*
X4064760Y980260D01*
X4067640Y975740D01*
X4071100Y971640D01*
X4075100Y968040D01*
X4079520Y965000D01*
X4084300Y962580D01*
X4089380Y960819D01*
X4094640Y959740D01*
G37*
G36*
X3300000Y959380D02*
G01*
X3305360Y959740D01*
X3310620Y960819D01*
X3315700Y962580D01*
X3320480Y965000D01*
X3324900Y968040D01*
X3328900Y971640D01*
X3332360Y975740D01*
X3335240Y980260D01*
X3337500Y985140D01*
X3339100Y990260D01*
X3339980Y995560D01*
X3340160Y1000920D01*
X3339640Y1006260D01*
X3338380Y1011480D01*
X3336460Y1016500D01*
X3333880Y1021200D01*
X3330700Y1025520D01*
X3326960Y1029380D01*
X3322740Y1032720D01*
X3316360Y1036520D01*
X3315500Y1037820D01*
X3315200Y1039340D01*
X3315200Y1158760D01*
X3315480Y1160200D01*
X3316259Y1161460D01*
X3317440Y1162340D01*
X3320600Y1163900D01*
X3325080Y1166900D01*
X3329120Y1170460D01*
X3332679Y1174500D01*
X3335680Y1178980D01*
X3338060Y1183820D01*
X3339780Y1188920D01*
X3340840Y1194200D01*
X3341200Y1199580D01*
X3340840Y1204960D01*
X3339780Y1210240D01*
X3338060Y1215340D01*
X3335680Y1220180D01*
X3332679Y1224660D01*
X3329120Y1228700D01*
X3325080Y1232260D01*
X3320600Y1235260D01*
X3315760Y1237640D01*
X3310659Y1239360D01*
X3305380Y1240420D01*
X3300000Y1240780D01*
X3294620Y1240420D01*
X3289340Y1239360D01*
X3284240Y1237640D01*
X3279400Y1235260D01*
X3274920Y1232260D01*
X3270880Y1228700D01*
X3267320Y1224660D01*
X3264320Y1220180D01*
X3261940Y1215340D01*
X3260220Y1210240D01*
X3259160Y1204960D01*
X3258800Y1199580D01*
X3259160Y1194200D01*
X3260220Y1188920D01*
X3261940Y1183820D01*
X3264320Y1178980D01*
X3267320Y1174500D01*
X3270880Y1170460D01*
X3274920Y1166900D01*
X3279400Y1163900D01*
X3282580Y1162340D01*
X3283759Y1161460D01*
X3284520Y1160200D01*
X3284800Y1158760D01*
X3284800Y1039340D01*
X3284500Y1037820D01*
X3283639Y1036520D01*
X3277260Y1032720D01*
X3273039Y1029380D01*
X3269300Y1025520D01*
X3266120Y1021200D01*
X3263759Y1016880D01*
X3262860Y1015780D01*
X3261640Y1015060D01*
X3260240Y1014800D01*
X2963360Y1014800D01*
X2961820Y1015100D01*
X2960520Y1015980D01*
X2716380Y1260120D01*
X2715500Y1261420D01*
X2715200Y1262960D01*
X2715200Y1991639D01*
X2715500Y1993180D01*
X2716380Y1994480D01*
X3481860Y2759980D01*
X3483080Y2760800D01*
X3484520Y2761139D01*
X3485980Y2760940D01*
X3489340Y2759800D01*
X3494620Y2758740D01*
X3500000Y2758380D01*
X3505380Y2758740D01*
X3510659Y2759800D01*
X3515760Y2761520D01*
X3520600Y2763900D01*
X3525080Y2766900D01*
X3529120Y2770460D01*
X3532679Y2774500D01*
X3535680Y2778980D01*
X3538060Y2783820D01*
X3539780Y2788920D01*
X3540840Y2794200D01*
X3541200Y2799580D01*
X3540840Y2804960D01*
X3539780Y2810240D01*
X3538060Y2815340D01*
X3535680Y2820179D01*
X3532679Y2824660D01*
X3529120Y2828700D01*
X3525080Y2832260D01*
X3520600Y2835260D01*
X3515760Y2837640D01*
X3510659Y2839360D01*
X3505380Y2840419D01*
X3500000Y2840779D01*
X3494620Y2840419D01*
X3489340Y2839360D01*
X3484240Y2837640D01*
X3479400Y2835260D01*
X3474920Y2832260D01*
X3470880Y2828700D01*
X3467320Y2824660D01*
X3464320Y2820179D01*
X3461940Y2815340D01*
X3460220Y2810240D01*
X3459160Y2804960D01*
X3458800Y2799580D01*
X3459160Y2794200D01*
X3460220Y2788920D01*
X3461340Y2785600D01*
X3461540Y2784140D01*
X3461220Y2782700D01*
X3460380Y2781480D01*
X2689400Y2010480D01*
X2687380Y2008040D01*
X2685980Y2005400D01*
X2685120Y2002560D01*
X2684800Y1999400D01*
X2684800Y1255200D01*
X2685120Y1252040D01*
X2685980Y1249200D01*
X2687380Y1246560D01*
X2689400Y1244120D01*
X2944520Y989000D01*
X2946960Y986979D01*
X2949600Y985580D01*
X2952440Y984720D01*
X2955600Y984400D01*
X3260280Y984400D01*
X3261760Y984120D01*
X3263039Y983300D01*
X3263920Y982080D01*
X3264760Y980260D01*
X3267640Y975740D01*
X3271100Y971640D01*
X3275100Y968040D01*
X3279520Y965000D01*
X3284300Y962580D01*
X3289380Y960819D01*
X3294640Y959740D01*
G37*
G36*
X3000000Y1158380D02*
G01*
X3005380Y1158740D01*
X3010659Y1159800D01*
X3015760Y1161520D01*
X3020600Y1163900D01*
X3025080Y1166900D01*
X3029120Y1170460D01*
X3032679Y1174500D01*
X3035680Y1178980D01*
X3038060Y1183820D01*
X3039780Y1188920D01*
X3040840Y1194200D01*
X3041200Y1199580D01*
X3040840Y1204960D01*
X3039780Y1210240D01*
X3038060Y1215340D01*
X3035680Y1220180D01*
X3032679Y1224660D01*
X3029120Y1228700D01*
X3025080Y1232260D01*
X3020600Y1235260D01*
X3015760Y1237640D01*
X3010659Y1239360D01*
X3005380Y1240420D01*
X3000000Y1240780D01*
X2994620Y1240420D01*
X2989340Y1239360D01*
X2984240Y1237640D01*
X2979400Y1235260D01*
X2974920Y1232260D01*
X2970880Y1228700D01*
X2967320Y1224660D01*
X2964320Y1220180D01*
X2961940Y1215340D01*
X2960220Y1210240D01*
X2959160Y1204960D01*
X2958800Y1199580D01*
X2959160Y1194200D01*
X2960220Y1188920D01*
X2961940Y1183820D01*
X2964320Y1178980D01*
X2967320Y1174500D01*
X2970880Y1170460D01*
X2974920Y1166900D01*
X2979400Y1163900D01*
X2984240Y1161520D01*
X2989340Y1159800D01*
X2994620Y1158740D01*
G37*
G36*
X3100000Y1158380D02*
G01*
X3105380Y1158740D01*
X3110659Y1159800D01*
X3115760Y1161520D01*
X3120600Y1163900D01*
X3125080Y1166900D01*
X3129120Y1170460D01*
X3132679Y1174500D01*
X3135680Y1178980D01*
X3138060Y1183820D01*
X3139780Y1188920D01*
X3140840Y1194200D01*
X3141200Y1199580D01*
X3140840Y1204960D01*
X3139780Y1210240D01*
X3138060Y1215340D01*
X3135680Y1220180D01*
X3132679Y1224660D01*
X3129120Y1228700D01*
X3125080Y1232260D01*
X3120600Y1235260D01*
X3115760Y1237640D01*
X3110659Y1239360D01*
X3105380Y1240420D01*
X3100000Y1240780D01*
X3094620Y1240420D01*
X3089340Y1239360D01*
X3084240Y1237640D01*
X3079400Y1235260D01*
X3074920Y1232260D01*
X3070880Y1228700D01*
X3067320Y1224660D01*
X3064320Y1220180D01*
X3061940Y1215340D01*
X3060220Y1210240D01*
X3059160Y1204960D01*
X3058800Y1199580D01*
X3059160Y1194200D01*
X3060220Y1188920D01*
X3061940Y1183820D01*
X3064320Y1178980D01*
X3067320Y1174500D01*
X3070880Y1170460D01*
X3074920Y1166900D01*
X3079400Y1163900D01*
X3084240Y1161520D01*
X3089340Y1159800D01*
X3094620Y1158740D01*
G37*
G36*
X3800000Y1158380D02*
G01*
X3805380Y1158740D01*
X3810659Y1159800D01*
X3815760Y1161520D01*
X3820600Y1163900D01*
X3825080Y1166900D01*
X3829120Y1170460D01*
X3832679Y1174500D01*
X3835680Y1178980D01*
X3838060Y1183820D01*
X3839780Y1188920D01*
X3840840Y1194200D01*
X3841200Y1199580D01*
X3840840Y1204960D01*
X3839780Y1210240D01*
X3838060Y1215340D01*
X3835680Y1220180D01*
X3832679Y1224660D01*
X3829120Y1228700D01*
X3825080Y1232260D01*
X3820600Y1235260D01*
X3817440Y1236820D01*
X3816259Y1237700D01*
X3815480Y1238960D01*
X3815200Y1240400D01*
X3815200Y1359880D01*
X3815460Y1361300D01*
X3816240Y1362560D01*
X3817400Y1363440D01*
X3820480Y1365000D01*
X3824900Y1368040D01*
X3828900Y1371639D01*
X3832360Y1375740D01*
X3835240Y1380260D01*
X3837500Y1385140D01*
X3839100Y1390260D01*
X3839980Y1395560D01*
X3840160Y1400920D01*
X3839640Y1406260D01*
X3838380Y1411480D01*
X3836460Y1416500D01*
X3833880Y1421200D01*
X3830700Y1425520D01*
X3826960Y1429379D01*
X3822740Y1432720D01*
X3816360Y1436519D01*
X3815500Y1437820D01*
X3815200Y1439340D01*
X3815200Y1758760D01*
X3815480Y1760200D01*
X3816259Y1761459D01*
X3817440Y1762340D01*
X3820600Y1763899D01*
X3825080Y1766900D01*
X3829120Y1770460D01*
X3832679Y1774500D01*
X3835680Y1778980D01*
X3838060Y1783820D01*
X3839780Y1788920D01*
X3840840Y1794199D01*
X3841200Y1799580D01*
X3840840Y1804960D01*
X3839780Y1810240D01*
X3838060Y1815340D01*
X3835680Y1820180D01*
X3832679Y1824660D01*
X3829120Y1828700D01*
X3825080Y1832260D01*
X3820600Y1835260D01*
X3815760Y1837640D01*
X3810659Y1839360D01*
X3805380Y1840420D01*
X3800000Y1840780D01*
X3794620Y1840420D01*
X3789340Y1839360D01*
X3784240Y1837640D01*
X3779400Y1835260D01*
X3774920Y1832260D01*
X3770880Y1828700D01*
X3767320Y1824660D01*
X3764320Y1820180D01*
X3761940Y1815340D01*
X3760220Y1810240D01*
X3759160Y1804960D01*
X3758800Y1799580D01*
X3759160Y1794199D01*
X3760220Y1788920D01*
X3761940Y1783820D01*
X3764320Y1778980D01*
X3767320Y1774500D01*
X3770880Y1770460D01*
X3774920Y1766900D01*
X3779400Y1763899D01*
X3782580Y1762340D01*
X3783759Y1761459D01*
X3784520Y1760200D01*
X3784800Y1758760D01*
X3784800Y1439340D01*
X3784500Y1437820D01*
X3783639Y1436519D01*
X3777260Y1432720D01*
X3773039Y1429379D01*
X3769300Y1425520D01*
X3766120Y1421200D01*
X3763540Y1416500D01*
X3761620Y1411480D01*
X3760360Y1406260D01*
X3759840Y1400920D01*
X3760020Y1395560D01*
X3760899Y1390260D01*
X3762500Y1385140D01*
X3764760Y1380260D01*
X3767640Y1375740D01*
X3771100Y1371639D01*
X3775100Y1368040D01*
X3779520Y1365000D01*
X3782600Y1363440D01*
X3783759Y1362560D01*
X3784540Y1361300D01*
X3784800Y1359860D01*
X3784800Y1240400D01*
X3784520Y1238960D01*
X3783759Y1237700D01*
X3782580Y1236820D01*
X3779400Y1235260D01*
X3774920Y1232260D01*
X3770880Y1228700D01*
X3767320Y1224660D01*
X3764320Y1220180D01*
X3761940Y1215340D01*
X3760220Y1210240D01*
X3759160Y1204960D01*
X3758800Y1199580D01*
X3759160Y1194200D01*
X3760220Y1188920D01*
X3761940Y1183820D01*
X3764320Y1178980D01*
X3767320Y1174500D01*
X3770880Y1170460D01*
X3774920Y1166900D01*
X3779400Y1163900D01*
X3784240Y1161520D01*
X3789340Y1159800D01*
X3794620Y1158740D01*
G37*
G36*
X3900000Y1158380D02*
G01*
X3905380Y1158740D01*
X3910659Y1159800D01*
X3915760Y1161520D01*
X3920600Y1163900D01*
X3925080Y1166900D01*
X3929120Y1170460D01*
X3932679Y1174500D01*
X3935680Y1178980D01*
X3938060Y1183820D01*
X3939780Y1188920D01*
X3940840Y1194200D01*
X3941200Y1199580D01*
X3940840Y1204960D01*
X3939780Y1210240D01*
X3938060Y1215340D01*
X3935680Y1220180D01*
X3932679Y1224660D01*
X3929120Y1228700D01*
X3925080Y1232260D01*
X3920600Y1235260D01*
X3917440Y1236820D01*
X3916259Y1237700D01*
X3915480Y1238960D01*
X3915200Y1240400D01*
X3915200Y1459880D01*
X3915460Y1461300D01*
X3916240Y1462560D01*
X3917400Y1463440D01*
X3920480Y1465000D01*
X3924900Y1468040D01*
X3928900Y1471639D01*
X3932360Y1475740D01*
X3935240Y1480260D01*
X3937500Y1485140D01*
X3939100Y1490260D01*
X3939980Y1495560D01*
X3940160Y1500920D01*
X3939640Y1506260D01*
X3938380Y1511480D01*
X3936460Y1516500D01*
X3933880Y1521200D01*
X3930700Y1525520D01*
X3926960Y1529379D01*
X3922740Y1532720D01*
X3916360Y1536519D01*
X3915500Y1537820D01*
X3915200Y1539340D01*
X3915200Y1758760D01*
X3915480Y1760200D01*
X3916259Y1761459D01*
X3917440Y1762340D01*
X3920600Y1763899D01*
X3925080Y1766900D01*
X3929120Y1770460D01*
X3932679Y1774500D01*
X3935680Y1778980D01*
X3938060Y1783820D01*
X3939780Y1788920D01*
X3940840Y1794199D01*
X3941200Y1799580D01*
X3940840Y1804960D01*
X3939780Y1810240D01*
X3938060Y1815340D01*
X3935680Y1820180D01*
X3932679Y1824660D01*
X3929120Y1828700D01*
X3925080Y1832260D01*
X3920600Y1835260D01*
X3915760Y1837640D01*
X3910659Y1839360D01*
X3905380Y1840420D01*
X3900000Y1840780D01*
X3894620Y1840420D01*
X3889340Y1839360D01*
X3884240Y1837640D01*
X3879400Y1835260D01*
X3874920Y1832260D01*
X3870880Y1828700D01*
X3867320Y1824660D01*
X3864320Y1820180D01*
X3861940Y1815340D01*
X3860220Y1810240D01*
X3859160Y1804960D01*
X3858800Y1799580D01*
X3859160Y1794199D01*
X3860220Y1788920D01*
X3861940Y1783820D01*
X3864320Y1778980D01*
X3867320Y1774500D01*
X3870880Y1770460D01*
X3874920Y1766900D01*
X3879400Y1763899D01*
X3882580Y1762340D01*
X3883759Y1761459D01*
X3884520Y1760200D01*
X3884800Y1758760D01*
X3884800Y1539340D01*
X3884500Y1537820D01*
X3883639Y1536519D01*
X3877260Y1532720D01*
X3873039Y1529379D01*
X3869300Y1525520D01*
X3866120Y1521200D01*
X3863540Y1516500D01*
X3861620Y1511480D01*
X3860360Y1506260D01*
X3859840Y1500920D01*
X3860020Y1495560D01*
X3860899Y1490260D01*
X3862500Y1485140D01*
X3864760Y1480260D01*
X3867640Y1475740D01*
X3871100Y1471639D01*
X3875100Y1468040D01*
X3879520Y1465000D01*
X3882600Y1463440D01*
X3883759Y1462560D01*
X3884540Y1461300D01*
X3884800Y1459860D01*
X3884800Y1240400D01*
X3884520Y1238960D01*
X3883759Y1237700D01*
X3882580Y1236820D01*
X3879400Y1235260D01*
X3874920Y1232260D01*
X3870880Y1228700D01*
X3867320Y1224660D01*
X3864320Y1220180D01*
X3861940Y1215340D01*
X3860220Y1210240D01*
X3859160Y1204960D01*
X3858800Y1199580D01*
X3859160Y1194200D01*
X3860220Y1188920D01*
X3861940Y1183820D01*
X3864320Y1178980D01*
X3867320Y1174500D01*
X3870880Y1170460D01*
X3874920Y1166900D01*
X3879400Y1163900D01*
X3884240Y1161520D01*
X3889340Y1159800D01*
X3894620Y1158740D01*
G37*
G36*
X4600000Y1158380D02*
G01*
X4605380Y1158740D01*
X4610660Y1159800D01*
X4615760Y1161520D01*
X4620600Y1163900D01*
X4625080Y1166900D01*
X4629120Y1170460D01*
X4632680Y1174500D01*
X4635680Y1178980D01*
X4638060Y1183820D01*
X4639780Y1188920D01*
X4640840Y1194200D01*
X4641200Y1199580D01*
X4640840Y1204960D01*
X4639780Y1210240D01*
X4638060Y1215340D01*
X4635680Y1220180D01*
X4632680Y1224660D01*
X4629120Y1228700D01*
X4625080Y1232260D01*
X4620600Y1235260D01*
X4615760Y1237640D01*
X4610660Y1239360D01*
X4605380Y1240420D01*
X4600000Y1240780D01*
X4594620Y1240420D01*
X4589340Y1239360D01*
X4586000Y1238240D01*
X4584540Y1238020D01*
X4583100Y1238360D01*
X4581880Y1239200D01*
X4410880Y1410180D01*
X4408440Y1412200D01*
X4405820Y1413600D01*
X4402960Y1414460D01*
X4399800Y1414780D01*
X4239760Y1414780D01*
X4238380Y1415040D01*
X4237160Y1415760D01*
X4236260Y1416860D01*
X4233880Y1421200D01*
X4230700Y1425520D01*
X4226960Y1429379D01*
X4222740Y1432720D01*
X4218120Y1435460D01*
X4213180Y1437540D01*
X4208000Y1438959D01*
X4202680Y1439680D01*
X4197320Y1439680D01*
X4192000Y1438959D01*
X4186820Y1437540D01*
X4181880Y1435460D01*
X4177260Y1432720D01*
X4173039Y1429379D01*
X4169300Y1425520D01*
X4166120Y1421200D01*
X4163540Y1416500D01*
X4161620Y1411480D01*
X4160360Y1406260D01*
X4159840Y1400920D01*
X4160020Y1395560D01*
X4160899Y1390260D01*
X4162500Y1385140D01*
X4164760Y1380260D01*
X4167640Y1375740D01*
X4171100Y1371639D01*
X4175100Y1368040D01*
X4179520Y1365000D01*
X4184300Y1362580D01*
X4189380Y1360820D01*
X4194640Y1359740D01*
X4200000Y1359379D01*
X4205360Y1359740D01*
X4210620Y1360820D01*
X4215700Y1362580D01*
X4220480Y1365000D01*
X4224900Y1368040D01*
X4228900Y1371639D01*
X4232360Y1375740D01*
X4235240Y1380260D01*
X4236080Y1382060D01*
X4236960Y1383280D01*
X4238220Y1384100D01*
X4239700Y1384379D01*
X4392040Y1384379D01*
X4393580Y1384079D01*
X4394880Y1383200D01*
X4560380Y1217700D01*
X4561220Y1216480D01*
X4561560Y1215040D01*
X4561340Y1213580D01*
X4560220Y1210240D01*
X4559160Y1204960D01*
X4558800Y1199580D01*
X4559160Y1194200D01*
X4560220Y1188920D01*
X4561940Y1183820D01*
X4564320Y1178980D01*
X4567320Y1174500D01*
X4570880Y1170460D01*
X4574920Y1166900D01*
X4579400Y1163900D01*
X4584240Y1161520D01*
X4589340Y1159800D01*
X4594620Y1158740D01*
G37*
G36*
X4700000Y1158380D02*
G01*
X4705380Y1158740D01*
X4710660Y1159800D01*
X4715760Y1161520D01*
X4720600Y1163900D01*
X4725080Y1166900D01*
X4729120Y1170460D01*
X4732680Y1174500D01*
X4735680Y1178980D01*
X4738060Y1183820D01*
X4739780Y1188920D01*
X4740840Y1194200D01*
X4741200Y1199580D01*
X4740840Y1204960D01*
X4739780Y1210240D01*
X4738060Y1215340D01*
X4735680Y1220180D01*
X4732680Y1224660D01*
X4729120Y1228700D01*
X4725080Y1232260D01*
X4720600Y1235260D01*
X4715760Y1237640D01*
X4710660Y1239360D01*
X4705380Y1240420D01*
X4700000Y1240780D01*
X4694620Y1240420D01*
X4689340Y1239360D01*
X4686000Y1238240D01*
X4684540Y1238020D01*
X4683100Y1238360D01*
X4681880Y1239200D01*
X4410880Y1510180D01*
X4408440Y1512200D01*
X4405820Y1513600D01*
X4402960Y1514460D01*
X4399800Y1514780D01*
X4234760Y1514780D01*
X4233380Y1515040D01*
X4232160Y1515760D01*
X4231260Y1516860D01*
X4228880Y1521200D01*
X4225700Y1525520D01*
X4221960Y1529379D01*
X4217740Y1532720D01*
X4213120Y1535460D01*
X4208180Y1537540D01*
X4203000Y1538959D01*
X4197680Y1539680D01*
X4192320Y1539680D01*
X4187000Y1538959D01*
X4181820Y1537540D01*
X4176880Y1535460D01*
X4172260Y1532720D01*
X4168039Y1529379D01*
X4164300Y1525520D01*
X4161120Y1521200D01*
X4158540Y1516500D01*
X4156620Y1511480D01*
X4155360Y1506260D01*
X4154840Y1500920D01*
X4155020Y1495560D01*
X4155899Y1490260D01*
X4157500Y1485140D01*
X4159760Y1480260D01*
X4162640Y1475740D01*
X4166100Y1471639D01*
X4170100Y1468040D01*
X4174520Y1465000D01*
X4179300Y1462580D01*
X4184380Y1460820D01*
X4189640Y1459740D01*
X4195000Y1459379D01*
X4200360Y1459740D01*
X4205620Y1460820D01*
X4210700Y1462580D01*
X4215480Y1465000D01*
X4219900Y1468040D01*
X4223900Y1471639D01*
X4227360Y1475740D01*
X4230240Y1480260D01*
X4231080Y1482060D01*
X4231960Y1483280D01*
X4233220Y1484100D01*
X4234700Y1484379D01*
X4392040Y1484379D01*
X4393580Y1484079D01*
X4394880Y1483200D01*
X4660380Y1217700D01*
X4661220Y1216480D01*
X4661560Y1215040D01*
X4661340Y1213580D01*
X4660220Y1210240D01*
X4659160Y1204960D01*
X4658800Y1199580D01*
X4659160Y1194200D01*
X4660220Y1188920D01*
X4661940Y1183820D01*
X4664320Y1178980D01*
X4667320Y1174500D01*
X4670880Y1170460D01*
X4674920Y1166900D01*
X4679400Y1163900D01*
X4684240Y1161520D01*
X4689340Y1159800D01*
X4694620Y1158740D01*
G37*
G36*
X4000000Y1158380D02*
G01*
X4005380Y1158740D01*
X4010659Y1159800D01*
X4015760Y1161520D01*
X4020600Y1163900D01*
X4025080Y1166900D01*
X4029120Y1170460D01*
X4032679Y1174500D01*
X4035680Y1178980D01*
X4038060Y1183820D01*
X4039780Y1188920D01*
X4040840Y1194200D01*
X4041200Y1199580D01*
X4040840Y1204960D01*
X4039780Y1210240D01*
X4038660Y1213580D01*
X4038440Y1215040D01*
X4038780Y1216480D01*
X4039620Y1217700D01*
X4110620Y1288700D01*
X4112620Y1291140D01*
X4114020Y1293779D01*
X4114900Y1296620D01*
X4115200Y1299780D01*
X4115200Y1579760D01*
X4115500Y1581300D01*
X4116380Y1582580D01*
X4117679Y1583460D01*
X4119200Y1583760D01*
X4392660Y1583760D01*
X4394200Y1583460D01*
X4395500Y1582580D01*
X4760380Y1217700D01*
X4761220Y1216480D01*
X4761560Y1215040D01*
X4761340Y1213580D01*
X4760220Y1210240D01*
X4759160Y1204960D01*
X4758800Y1199580D01*
X4759160Y1194200D01*
X4760220Y1188920D01*
X4761940Y1183820D01*
X4764320Y1178980D01*
X4767320Y1174500D01*
X4770880Y1170460D01*
X4774920Y1166900D01*
X4779400Y1163900D01*
X4784240Y1161520D01*
X4789340Y1159800D01*
X4794620Y1158740D01*
X4800000Y1158380D01*
X4805380Y1158740D01*
X4810660Y1159800D01*
X4815760Y1161520D01*
X4820600Y1163900D01*
X4825080Y1166900D01*
X4829120Y1170460D01*
X4832680Y1174500D01*
X4835680Y1178980D01*
X4838060Y1183820D01*
X4839780Y1188920D01*
X4840840Y1194200D01*
X4841200Y1199580D01*
X4840840Y1204960D01*
X4839780Y1210240D01*
X4838060Y1215340D01*
X4835680Y1220180D01*
X4832680Y1224660D01*
X4829120Y1228700D01*
X4825080Y1232260D01*
X4820600Y1235260D01*
X4815760Y1237640D01*
X4810660Y1239360D01*
X4805380Y1240420D01*
X4800000Y1240780D01*
X4794620Y1240420D01*
X4789340Y1239360D01*
X4786000Y1238240D01*
X4784540Y1238020D01*
X4783100Y1238360D01*
X4781880Y1239200D01*
X4411500Y1609560D01*
X4409060Y1611579D01*
X4406440Y1612980D01*
X4403580Y1613839D01*
X4400420Y1614160D01*
X4119200Y1614160D01*
X4117679Y1614460D01*
X4116380Y1615340D01*
X4115500Y1616620D01*
X4115200Y1618160D01*
X4115200Y1758760D01*
X4115480Y1760200D01*
X4116259Y1761459D01*
X4117440Y1762340D01*
X4120600Y1763899D01*
X4125080Y1766900D01*
X4129120Y1770460D01*
X4132679Y1774500D01*
X4135680Y1778980D01*
X4138060Y1783820D01*
X4139780Y1788920D01*
X4140840Y1794199D01*
X4141200Y1799580D01*
X4140840Y1804960D01*
X4139780Y1810240D01*
X4138060Y1815340D01*
X4135680Y1820180D01*
X4132679Y1824660D01*
X4129120Y1828700D01*
X4125080Y1832260D01*
X4120600Y1835260D01*
X4115760Y1837640D01*
X4110659Y1839360D01*
X4105380Y1840420D01*
X4100000Y1840780D01*
X4094620Y1840420D01*
X4089340Y1839360D01*
X4084240Y1837640D01*
X4079400Y1835260D01*
X4074920Y1832260D01*
X4070880Y1828700D01*
X4067320Y1824660D01*
X4064320Y1820180D01*
X4061940Y1815340D01*
X4060220Y1810240D01*
X4059160Y1804960D01*
X4058800Y1799580D01*
X4059160Y1794199D01*
X4060220Y1788920D01*
X4061940Y1783820D01*
X4064320Y1778980D01*
X4067320Y1774500D01*
X4070880Y1770460D01*
X4074920Y1766900D01*
X4079400Y1763899D01*
X4082580Y1762340D01*
X4083759Y1761459D01*
X4084520Y1760200D01*
X4084800Y1758760D01*
X4084800Y1307540D01*
X4084500Y1306000D01*
X4083620Y1304700D01*
X4018120Y1239200D01*
X4016900Y1238360D01*
X4015460Y1238020D01*
X4014000Y1238240D01*
X4010659Y1239360D01*
X4005380Y1240420D01*
X4000000Y1240780D01*
X3994620Y1240420D01*
X3989340Y1239360D01*
X3984240Y1237640D01*
X3979400Y1235260D01*
X3974920Y1232260D01*
X3970880Y1228700D01*
X3967320Y1224660D01*
X3964320Y1220180D01*
X3961940Y1215340D01*
X3960220Y1210240D01*
X3959160Y1204960D01*
X3958800Y1199580D01*
X3959160Y1194200D01*
X3960220Y1188920D01*
X3961940Y1183820D01*
X3964320Y1178980D01*
X3967320Y1174500D01*
X3970880Y1170460D01*
X3974920Y1166900D01*
X3979400Y1163900D01*
X3984240Y1161520D01*
X3989340Y1159800D01*
X3994620Y1158740D01*
G37*
G36*
X4869220Y1158380D02*
G01*
X4930780Y1158380D01*
X4933260Y1158660D01*
X4935420Y1159420D01*
X4937340Y1160620D01*
X4938960Y1162240D01*
X4940160Y1164160D01*
X4940920Y1166320D01*
X4941200Y1168800D01*
X4941200Y1230360D01*
X4940920Y1232840D01*
X4940160Y1235000D01*
X4938960Y1236920D01*
X4937340Y1238540D01*
X4935420Y1239740D01*
X4933260Y1240500D01*
X4930780Y1240780D01*
X4919200Y1240780D01*
X4917680Y1241080D01*
X4916380Y1241960D01*
X4915500Y1243240D01*
X4915200Y1244780D01*
X4915200Y2499380D01*
X4914900Y2502540D01*
X4914020Y2505380D01*
X4912620Y2508020D01*
X4910620Y2510460D01*
X4642380Y2778700D01*
X4641500Y2780000D01*
X4641200Y2781540D01*
X4641200Y2830360D01*
X4640920Y2832840D01*
X4640160Y2835000D01*
X4638960Y2836920D01*
X4637340Y2838540D01*
X4635420Y2839740D01*
X4633260Y2840500D01*
X4630780Y2840779D01*
X4569220Y2840779D01*
X4566740Y2840500D01*
X4564580Y2839740D01*
X4562660Y2838540D01*
X4561040Y2836920D01*
X4559840Y2835000D01*
X4559080Y2832840D01*
X4558800Y2830360D01*
X4558800Y2768800D01*
X4559080Y2766320D01*
X4559840Y2764160D01*
X4561040Y2762240D01*
X4562660Y2760620D01*
X4564580Y2759420D01*
X4566740Y2758660D01*
X4569220Y2758380D01*
X4618040Y2758380D01*
X4619580Y2758080D01*
X4620880Y2757200D01*
X4883620Y2494460D01*
X4884500Y2493160D01*
X4884800Y2491620D01*
X4884800Y1244780D01*
X4884500Y1243240D01*
X4883620Y1241960D01*
X4882340Y1241080D01*
X4880800Y1240780D01*
X4869220Y1240780D01*
X4866740Y1240500D01*
X4864580Y1239740D01*
X4862660Y1238540D01*
X4861040Y1236920D01*
X4859840Y1235000D01*
X4859080Y1232840D01*
X4858800Y1230360D01*
X4858800Y1168800D01*
X4859080Y1166320D01*
X4859840Y1164160D01*
X4861040Y1162240D01*
X4862660Y1160620D01*
X4864580Y1159420D01*
X4866740Y1158660D01*
G37*
G36*
X3218000Y1162620D02*
G01*
X3220600Y1163900D01*
X3225080Y1166900D01*
X3229120Y1170460D01*
X3232679Y1174500D01*
X3235680Y1178980D01*
X3236960Y1181580D01*
X3218000Y1181580D01*
G37*
G36*
X3182000Y1162620D02*
G01*
X3182000Y1181580D01*
X3163039Y1181580D01*
X3164320Y1178980D01*
X3167320Y1174500D01*
X3170880Y1170460D01*
X3174920Y1166900D01*
X3179400Y1163900D01*
G37*
G36*
X3163039Y1217580D02*
G01*
X3182000Y1217580D01*
X3182000Y1236540D01*
X3179400Y1235260D01*
X3174920Y1232260D01*
X3170880Y1228700D01*
X3167320Y1224660D01*
X3164320Y1220180D01*
G37*
G36*
X3218000Y1217580D02*
G01*
X3236960Y1217580D01*
X3235680Y1220180D01*
X3232679Y1224660D01*
X3229120Y1228700D01*
X3225080Y1232260D01*
X3220600Y1235260D01*
X3218000Y1236540D01*
G37*
G36*
X4618000Y1758380D02*
G01*
X4630780Y1758380D01*
X4633260Y1758660D01*
X4635420Y1759420D01*
X4637340Y1760620D01*
X4638960Y1762240D01*
X4640160Y1764160D01*
X4640920Y1766320D01*
X4641200Y1768800D01*
X4641200Y1781579D01*
X4618000Y1781579D01*
G37*
G36*
X4569220Y1758380D02*
G01*
X4582000Y1758380D01*
X4582000Y1781579D01*
X4558800Y1781579D01*
X4558800Y1768800D01*
X4559080Y1766320D01*
X4559840Y1764160D01*
X4561040Y1762240D01*
X4562660Y1760620D01*
X4564580Y1759420D01*
X4566740Y1758660D01*
G37*
G36*
X4400000Y1758380D02*
G01*
X4405380Y1758740D01*
X4410660Y1759800D01*
X4415760Y1761519D01*
X4420600Y1763899D01*
X4425080Y1766900D01*
X4429120Y1770460D01*
X4432680Y1774500D01*
X4435680Y1778980D01*
X4438060Y1783820D01*
X4439780Y1788920D01*
X4440840Y1794199D01*
X4441200Y1799580D01*
X4440840Y1804960D01*
X4439780Y1810240D01*
X4438060Y1815340D01*
X4435680Y1820180D01*
X4432680Y1824660D01*
X4429120Y1828700D01*
X4425080Y1832260D01*
X4420600Y1835260D01*
X4415760Y1837640D01*
X4410660Y1839360D01*
X4405380Y1840420D01*
X4400000Y1840780D01*
X4394620Y1840420D01*
X4389340Y1839360D01*
X4384240Y1837640D01*
X4379400Y1835260D01*
X4374920Y1832260D01*
X4370880Y1828700D01*
X4367320Y1824660D01*
X4364320Y1820180D01*
X4361940Y1815340D01*
X4360220Y1810240D01*
X4359160Y1804960D01*
X4358800Y1799580D01*
X4359160Y1794199D01*
X4360220Y1788920D01*
X4361940Y1783820D01*
X4364320Y1778980D01*
X4367320Y1774500D01*
X4370880Y1770460D01*
X4374920Y1766900D01*
X4379400Y1763899D01*
X4384240Y1761519D01*
X4389340Y1759800D01*
X4394620Y1758740D01*
G37*
G36*
X4000000Y1758380D02*
G01*
X4005380Y1758740D01*
X4010659Y1759800D01*
X4015760Y1761519D01*
X4020600Y1763899D01*
X4025080Y1766900D01*
X4029120Y1770460D01*
X4032679Y1774500D01*
X4035680Y1778980D01*
X4038060Y1783820D01*
X4039780Y1788920D01*
X4040840Y1794199D01*
X4041200Y1799580D01*
X4040840Y1804960D01*
X4039780Y1810240D01*
X4038060Y1815340D01*
X4035680Y1820180D01*
X4032679Y1824660D01*
X4029120Y1828700D01*
X4025080Y1832260D01*
X4020600Y1835260D01*
X4015760Y1837640D01*
X4010659Y1839360D01*
X4005380Y1840420D01*
X4000000Y1840780D01*
X3994620Y1840420D01*
X3989340Y1839360D01*
X3984240Y1837640D01*
X3979400Y1835260D01*
X3974920Y1832260D01*
X3970880Y1828700D01*
X3967320Y1824660D01*
X3964320Y1820180D01*
X3961940Y1815340D01*
X3960220Y1810240D01*
X3959160Y1804960D01*
X3958800Y1799580D01*
X3959160Y1794199D01*
X3960220Y1788920D01*
X3961940Y1783820D01*
X3964320Y1778980D01*
X3967320Y1774500D01*
X3970880Y1770460D01*
X3974920Y1766900D01*
X3979400Y1763899D01*
X3984240Y1761519D01*
X3989340Y1759800D01*
X3994620Y1758740D01*
G37*
G36*
X4200000Y1758380D02*
G01*
X4205380Y1758740D01*
X4210660Y1759800D01*
X4215760Y1761519D01*
X4220600Y1763899D01*
X4225080Y1766900D01*
X4229120Y1770460D01*
X4232680Y1774500D01*
X4235680Y1778980D01*
X4238060Y1783820D01*
X4239780Y1788920D01*
X4240840Y1794199D01*
X4241200Y1799580D01*
X4240840Y1804960D01*
X4239780Y1810240D01*
X4238060Y1815340D01*
X4235680Y1820180D01*
X4232680Y1824660D01*
X4229120Y1828700D01*
X4225080Y1832260D01*
X4220600Y1835260D01*
X4215760Y1837640D01*
X4210660Y1839360D01*
X4205380Y1840420D01*
X4200000Y1840780D01*
X4194620Y1840420D01*
X4189340Y1839360D01*
X4184240Y1837640D01*
X4179400Y1835260D01*
X4174920Y1832260D01*
X4170880Y1828700D01*
X4167320Y1824660D01*
X4164320Y1820180D01*
X4161940Y1815340D01*
X4160220Y1810240D01*
X4159160Y1804960D01*
X4158800Y1799580D01*
X4159160Y1794199D01*
X4160220Y1788920D01*
X4161940Y1783820D01*
X4164320Y1778980D01*
X4167320Y1774500D01*
X4170880Y1770460D01*
X4174920Y1766900D01*
X4179400Y1763899D01*
X4184240Y1761519D01*
X4189340Y1759800D01*
X4194620Y1758740D01*
G37*
G36*
X4300000Y1758380D02*
G01*
X4305380Y1758740D01*
X4310660Y1759800D01*
X4315760Y1761519D01*
X4320600Y1763899D01*
X4325080Y1766900D01*
X4329120Y1770460D01*
X4332680Y1774500D01*
X4335680Y1778980D01*
X4338060Y1783820D01*
X4339780Y1788920D01*
X4340840Y1794199D01*
X4341200Y1799580D01*
X4340840Y1804960D01*
X4339780Y1810240D01*
X4338060Y1815340D01*
X4335680Y1820180D01*
X4332680Y1824660D01*
X4329120Y1828700D01*
X4325080Y1832260D01*
X4320600Y1835260D01*
X4315760Y1837640D01*
X4310660Y1839360D01*
X4305380Y1840420D01*
X4300000Y1840780D01*
X4294620Y1840420D01*
X4289340Y1839360D01*
X4284240Y1837640D01*
X4279400Y1835260D01*
X4274920Y1832260D01*
X4270880Y1828700D01*
X4267320Y1824660D01*
X4264320Y1820180D01*
X4261940Y1815340D01*
X4260220Y1810240D01*
X4259160Y1804960D01*
X4258800Y1799580D01*
X4259160Y1794199D01*
X4260220Y1788920D01*
X4261940Y1783820D01*
X4264320Y1778980D01*
X4267320Y1774500D01*
X4270880Y1770460D01*
X4274920Y1766900D01*
X4279400Y1763899D01*
X4284240Y1761519D01*
X4289340Y1759800D01*
X4294620Y1758740D01*
G37*
G36*
X3300000Y1758380D02*
G01*
X3305380Y1758740D01*
X3310659Y1759800D01*
X3315760Y1761519D01*
X3320600Y1763899D01*
X3325080Y1766900D01*
X3329120Y1770460D01*
X3332679Y1774500D01*
X3335680Y1778980D01*
X3338060Y1783820D01*
X3339780Y1788920D01*
X3340840Y1794199D01*
X3341200Y1799580D01*
X3340840Y1804960D01*
X3339780Y1810240D01*
X3338060Y1815340D01*
X3335680Y1820180D01*
X3332679Y1824660D01*
X3329120Y1828700D01*
X3325080Y1832260D01*
X3320600Y1835260D01*
X3315760Y1837640D01*
X3310659Y1839360D01*
X3305380Y1840420D01*
X3300000Y1840780D01*
X3294620Y1840420D01*
X3289340Y1839360D01*
X3284240Y1837640D01*
X3279400Y1835260D01*
X3274920Y1832260D01*
X3270880Y1828700D01*
X3267320Y1824660D01*
X3264320Y1820180D01*
X3261940Y1815340D01*
X3260220Y1810240D01*
X3259160Y1804960D01*
X3258800Y1799580D01*
X3259160Y1794199D01*
X3260220Y1788920D01*
X3261940Y1783820D01*
X3264320Y1778980D01*
X3267320Y1774500D01*
X3270880Y1770460D01*
X3274920Y1766900D01*
X3279400Y1763899D01*
X3284240Y1761519D01*
X3289340Y1759800D01*
X3294620Y1758740D01*
G37*
G36*
X3700000Y1758380D02*
G01*
X3705380Y1758740D01*
X3710659Y1759800D01*
X3715760Y1761519D01*
X3720600Y1763899D01*
X3725080Y1766900D01*
X3729120Y1770460D01*
X3732679Y1774500D01*
X3735680Y1778980D01*
X3738060Y1783820D01*
X3739780Y1788920D01*
X3740840Y1794199D01*
X3741200Y1799580D01*
X3740840Y1804960D01*
X3739780Y1810240D01*
X3738060Y1815340D01*
X3735680Y1820180D01*
X3732679Y1824660D01*
X3729120Y1828700D01*
X3725080Y1832260D01*
X3720600Y1835260D01*
X3715760Y1837640D01*
X3710659Y1839360D01*
X3705380Y1840420D01*
X3700000Y1840780D01*
X3694620Y1840420D01*
X3689340Y1839360D01*
X3684240Y1837640D01*
X3679400Y1835260D01*
X3674920Y1832260D01*
X3670880Y1828700D01*
X3667320Y1824660D01*
X3664320Y1820180D01*
X3661940Y1815340D01*
X3660220Y1810240D01*
X3659160Y1804960D01*
X3658800Y1799580D01*
X3659160Y1794199D01*
X3660220Y1788920D01*
X3661940Y1783820D01*
X3664320Y1778980D01*
X3667320Y1774500D01*
X3670880Y1770460D01*
X3674920Y1766900D01*
X3679400Y1763899D01*
X3684240Y1761519D01*
X3689340Y1759800D01*
X3694620Y1758740D01*
G37*
G36*
X3600000Y1758380D02*
G01*
X3605380Y1758740D01*
X3610659Y1759800D01*
X3615760Y1761519D01*
X3620600Y1763899D01*
X3625080Y1766900D01*
X3629120Y1770460D01*
X3632679Y1774500D01*
X3635680Y1778980D01*
X3638060Y1783820D01*
X3639780Y1788920D01*
X3640840Y1794199D01*
X3641200Y1799580D01*
X3640840Y1804960D01*
X3639780Y1810240D01*
X3638060Y1815340D01*
X3635680Y1820180D01*
X3632679Y1824660D01*
X3629120Y1828700D01*
X3625080Y1832260D01*
X3620600Y1835260D01*
X3615760Y1837640D01*
X3610659Y1839360D01*
X3605380Y1840420D01*
X3600000Y1840780D01*
X3594620Y1840420D01*
X3589340Y1839360D01*
X3584240Y1837640D01*
X3579400Y1835260D01*
X3574920Y1832260D01*
X3570880Y1828700D01*
X3567320Y1824660D01*
X3564320Y1820180D01*
X3561940Y1815340D01*
X3560220Y1810240D01*
X3559160Y1804960D01*
X3558800Y1799580D01*
X3559160Y1794199D01*
X3560220Y1788920D01*
X3561940Y1783820D01*
X3564320Y1778980D01*
X3567320Y1774500D01*
X3570880Y1770460D01*
X3574920Y1766900D01*
X3579400Y1763899D01*
X3584240Y1761519D01*
X3589340Y1759800D01*
X3594620Y1758740D01*
G37*
G36*
X4500000Y1758380D02*
G01*
X4505380Y1758740D01*
X4510660Y1759800D01*
X4515760Y1761519D01*
X4520600Y1763899D01*
X4525080Y1766900D01*
X4529120Y1770460D01*
X4532680Y1774500D01*
X4535680Y1778980D01*
X4538060Y1783820D01*
X4539780Y1788920D01*
X4540840Y1794199D01*
X4541200Y1799580D01*
X4540840Y1804960D01*
X4539780Y1810240D01*
X4538060Y1815340D01*
X4535680Y1820180D01*
X4532680Y1824660D01*
X4529120Y1828700D01*
X4525080Y1832260D01*
X4520600Y1835260D01*
X4515760Y1837640D01*
X4510660Y1839360D01*
X4505380Y1840420D01*
X4500000Y1840780D01*
X4494620Y1840420D01*
X4489340Y1839360D01*
X4484240Y1837640D01*
X4479400Y1835260D01*
X4474920Y1832260D01*
X4470880Y1828700D01*
X4467320Y1824660D01*
X4464320Y1820180D01*
X4461940Y1815340D01*
X4460220Y1810240D01*
X4459160Y1804960D01*
X4458800Y1799580D01*
X4459160Y1794199D01*
X4460220Y1788920D01*
X4461940Y1783820D01*
X4464320Y1778980D01*
X4467320Y1774500D01*
X4470880Y1770460D01*
X4474920Y1766900D01*
X4479400Y1763899D01*
X4484240Y1761519D01*
X4489340Y1759800D01*
X4494620Y1758740D01*
G37*
G36*
X3400000Y1758380D02*
G01*
X3405380Y1758740D01*
X3410659Y1759800D01*
X3415760Y1761519D01*
X3420600Y1763899D01*
X3425080Y1766900D01*
X3429120Y1770460D01*
X3432679Y1774500D01*
X3435680Y1778980D01*
X3438060Y1783820D01*
X3439780Y1788920D01*
X3440840Y1794199D01*
X3441200Y1799580D01*
X3440840Y1804960D01*
X3439780Y1810240D01*
X3438060Y1815340D01*
X3435680Y1820180D01*
X3432679Y1824660D01*
X3429120Y1828700D01*
X3425080Y1832260D01*
X3420600Y1835260D01*
X3415760Y1837640D01*
X3410659Y1839360D01*
X3405380Y1840420D01*
X3400000Y1840780D01*
X3394620Y1840420D01*
X3389340Y1839360D01*
X3384240Y1837640D01*
X3379400Y1835260D01*
X3374920Y1832260D01*
X3370880Y1828700D01*
X3367320Y1824660D01*
X3364320Y1820180D01*
X3361940Y1815340D01*
X3360220Y1810240D01*
X3359160Y1804960D01*
X3358800Y1799580D01*
X3359160Y1794199D01*
X3360220Y1788920D01*
X3361940Y1783820D01*
X3364320Y1778980D01*
X3367320Y1774500D01*
X3370880Y1770460D01*
X3374920Y1766900D01*
X3379400Y1763899D01*
X3384240Y1761519D01*
X3389340Y1759800D01*
X3394620Y1758740D01*
G37*
G36*
X3200000Y1758380D02*
G01*
X3205380Y1758740D01*
X3210659Y1759800D01*
X3215760Y1761519D01*
X3220600Y1763899D01*
X3225080Y1766900D01*
X3229120Y1770460D01*
X3232679Y1774500D01*
X3235680Y1778980D01*
X3238060Y1783820D01*
X3239780Y1788920D01*
X3240840Y1794199D01*
X3241200Y1799580D01*
X3240840Y1804960D01*
X3239780Y1810240D01*
X3238060Y1815340D01*
X3235680Y1820180D01*
X3232679Y1824660D01*
X3229120Y1828700D01*
X3225080Y1832260D01*
X3220600Y1835260D01*
X3215760Y1837640D01*
X3210659Y1839360D01*
X3205380Y1840420D01*
X3200000Y1840780D01*
X3194620Y1840420D01*
X3189340Y1839360D01*
X3184240Y1837640D01*
X3179400Y1835260D01*
X3174920Y1832260D01*
X3170880Y1828700D01*
X3167320Y1824660D01*
X3164320Y1820180D01*
X3161940Y1815340D01*
X3160220Y1810240D01*
X3159160Y1804960D01*
X3158800Y1799580D01*
X3159160Y1794199D01*
X3160220Y1788920D01*
X3161940Y1783820D01*
X3164320Y1778980D01*
X3167320Y1774500D01*
X3170880Y1770460D01*
X3174920Y1766900D01*
X3179400Y1763899D01*
X3184240Y1761519D01*
X3189340Y1759800D01*
X3194620Y1758740D01*
G37*
G36*
X3500000Y1758380D02*
G01*
X3505380Y1758740D01*
X3510659Y1759800D01*
X3515760Y1761519D01*
X3520600Y1763899D01*
X3525080Y1766900D01*
X3529120Y1770460D01*
X3532679Y1774500D01*
X3535680Y1778980D01*
X3538060Y1783820D01*
X3539780Y1788920D01*
X3540840Y1794199D01*
X3541200Y1799580D01*
X3540840Y1804960D01*
X3539780Y1810240D01*
X3538060Y1815340D01*
X3535680Y1820180D01*
X3532679Y1824660D01*
X3529120Y1828700D01*
X3525080Y1832260D01*
X3520600Y1835260D01*
X3515760Y1837640D01*
X3510659Y1839360D01*
X3505380Y1840420D01*
X3500000Y1840780D01*
X3494620Y1840420D01*
X3489340Y1839360D01*
X3484240Y1837640D01*
X3479400Y1835260D01*
X3474920Y1832260D01*
X3470880Y1828700D01*
X3467320Y1824660D01*
X3464320Y1820180D01*
X3461940Y1815340D01*
X3460220Y1810240D01*
X3459160Y1804960D01*
X3458800Y1799580D01*
X3459160Y1794199D01*
X3460220Y1788920D01*
X3461940Y1783820D01*
X3464320Y1778980D01*
X3467320Y1774500D01*
X3470880Y1770460D01*
X3474920Y1766900D01*
X3479400Y1763899D01*
X3484240Y1761519D01*
X3489340Y1759800D01*
X3494620Y1758740D01*
G37*
G36*
X4618000Y1817580D02*
G01*
X4641200Y1817580D01*
X4641200Y1830360D01*
X4640920Y1832840D01*
X4640160Y1835000D01*
X4638960Y1836920D01*
X4637340Y1838540D01*
X4635420Y1839740D01*
X4633260Y1840500D01*
X4630780Y1840780D01*
X4618000Y1840780D01*
G37*
G36*
X4558800Y1817580D02*
G01*
X4582000Y1817580D01*
X4582000Y1840780D01*
X4569220Y1840780D01*
X4566740Y1840500D01*
X4564580Y1839740D01*
X4562660Y1838540D01*
X4561040Y1836920D01*
X4559840Y1835000D01*
X4559080Y1832840D01*
X4558800Y1830360D01*
G37*
G36*
X4400000Y2758380D02*
G01*
X4405380Y2758740D01*
X4410660Y2759800D01*
X4415760Y2761520D01*
X4420600Y2763900D01*
X4425080Y2766900D01*
X4429120Y2770460D01*
X4432680Y2774500D01*
X4435680Y2778980D01*
X4438060Y2783820D01*
X4439780Y2788920D01*
X4440840Y2794200D01*
X4441200Y2799580D01*
X4440840Y2804960D01*
X4439780Y2810240D01*
X4438060Y2815340D01*
X4435680Y2820179D01*
X4432680Y2824660D01*
X4429120Y2828700D01*
X4425080Y2832260D01*
X4420600Y2835260D01*
X4415760Y2837640D01*
X4410660Y2839360D01*
X4405380Y2840419D01*
X4400000Y2840779D01*
X4394620Y2840419D01*
X4389340Y2839360D01*
X4384240Y2837640D01*
X4379400Y2835260D01*
X4374920Y2832260D01*
X4370880Y2828700D01*
X4367320Y2824660D01*
X4364320Y2820179D01*
X4361940Y2815340D01*
X4360220Y2810240D01*
X4359160Y2804960D01*
X4358800Y2799580D01*
X4359160Y2794200D01*
X4360220Y2788920D01*
X4361940Y2783820D01*
X4364320Y2778980D01*
X4367320Y2774500D01*
X4370880Y2770460D01*
X4374920Y2766900D01*
X4379400Y2763900D01*
X4384240Y2761520D01*
X4389340Y2759800D01*
X4394620Y2758740D01*
G37*
G36*
X4200000Y2758380D02*
G01*
X4205380Y2758740D01*
X4210660Y2759800D01*
X4215760Y2761520D01*
X4220600Y2763900D01*
X4225080Y2766900D01*
X4229120Y2770460D01*
X4232680Y2774500D01*
X4235680Y2778980D01*
X4238060Y2783820D01*
X4239780Y2788920D01*
X4240840Y2794200D01*
X4241200Y2799580D01*
X4240840Y2804960D01*
X4239780Y2810240D01*
X4238060Y2815340D01*
X4235680Y2820179D01*
X4232680Y2824660D01*
X4229120Y2828700D01*
X4225080Y2832260D01*
X4220600Y2835260D01*
X4215760Y2837640D01*
X4210660Y2839360D01*
X4205380Y2840419D01*
X4200000Y2840779D01*
X4194620Y2840419D01*
X4189340Y2839360D01*
X4184240Y2837640D01*
X4179400Y2835260D01*
X4174920Y2832260D01*
X4170880Y2828700D01*
X4167320Y2824660D01*
X4164320Y2820179D01*
X4161940Y2815340D01*
X4160220Y2810240D01*
X4159160Y2804960D01*
X4158800Y2799580D01*
X4159160Y2794200D01*
X4160220Y2788920D01*
X4161940Y2783820D01*
X4164320Y2778980D01*
X4167320Y2774500D01*
X4170880Y2770460D01*
X4174920Y2766900D01*
X4179400Y2763900D01*
X4184240Y2761520D01*
X4189340Y2759800D01*
X4194620Y2758740D01*
G37*
G36*
X3200000Y2758380D02*
G01*
X3205380Y2758740D01*
X3210659Y2759800D01*
X3215760Y2761520D01*
X3220600Y2763900D01*
X3225080Y2766900D01*
X3229120Y2770460D01*
X3232679Y2774500D01*
X3235680Y2778980D01*
X3238060Y2783820D01*
X3239780Y2788920D01*
X3240840Y2794200D01*
X3241200Y2799580D01*
X3240840Y2804960D01*
X3239780Y2810240D01*
X3238060Y2815340D01*
X3235680Y2820179D01*
X3232679Y2824660D01*
X3229120Y2828700D01*
X3225080Y2832260D01*
X3220600Y2835260D01*
X3215760Y2837640D01*
X3210659Y2839360D01*
X3205380Y2840419D01*
X3200000Y2840779D01*
X3194620Y2840419D01*
X3189340Y2839360D01*
X3184240Y2837640D01*
X3179400Y2835260D01*
X3174920Y2832260D01*
X3170880Y2828700D01*
X3167320Y2824660D01*
X3164320Y2820179D01*
X3161940Y2815340D01*
X3160220Y2810240D01*
X3159160Y2804960D01*
X3158800Y2799580D01*
X3159160Y2794200D01*
X3160220Y2788920D01*
X3161940Y2783820D01*
X3164320Y2778980D01*
X3167320Y2774500D01*
X3170880Y2770460D01*
X3174920Y2766900D01*
X3179400Y2763900D01*
X3184240Y2761520D01*
X3189340Y2759800D01*
X3194620Y2758740D01*
G37*
G36*
X4100000Y2758380D02*
G01*
X4105380Y2758740D01*
X4110659Y2759800D01*
X4115760Y2761520D01*
X4120600Y2763900D01*
X4125080Y2766900D01*
X4129120Y2770460D01*
X4132679Y2774500D01*
X4135680Y2778980D01*
X4138060Y2783820D01*
X4139780Y2788920D01*
X4140840Y2794200D01*
X4141200Y2799580D01*
X4140840Y2804960D01*
X4139780Y2810240D01*
X4138060Y2815340D01*
X4135680Y2820179D01*
X4132679Y2824660D01*
X4129120Y2828700D01*
X4125080Y2832260D01*
X4120600Y2835260D01*
X4115760Y2837640D01*
X4110659Y2839360D01*
X4105380Y2840419D01*
X4100000Y2840779D01*
X4094620Y2840419D01*
X4089340Y2839360D01*
X4084240Y2837640D01*
X4079400Y2835260D01*
X4074920Y2832260D01*
X4070880Y2828700D01*
X4067320Y2824660D01*
X4064320Y2820179D01*
X4061940Y2815340D01*
X4060220Y2810240D01*
X4059160Y2804960D01*
X4058800Y2799580D01*
X4059160Y2794200D01*
X4060220Y2788920D01*
X4061940Y2783820D01*
X4064320Y2778980D01*
X4067320Y2774500D01*
X4070880Y2770460D01*
X4074920Y2766900D01*
X4079400Y2763900D01*
X4084240Y2761520D01*
X4089340Y2759800D01*
X4094620Y2758740D01*
G37*
G36*
X4300000Y2758380D02*
G01*
X4305380Y2758740D01*
X4310660Y2759800D01*
X4315760Y2761520D01*
X4320600Y2763900D01*
X4325080Y2766900D01*
X4329120Y2770460D01*
X4332680Y2774500D01*
X4335680Y2778980D01*
X4338060Y2783820D01*
X4339780Y2788920D01*
X4340840Y2794200D01*
X4341200Y2799580D01*
X4340840Y2804960D01*
X4339780Y2810240D01*
X4338060Y2815340D01*
X4335680Y2820179D01*
X4332680Y2824660D01*
X4329120Y2828700D01*
X4325080Y2832260D01*
X4320600Y2835260D01*
X4315760Y2837640D01*
X4310660Y2839360D01*
X4305380Y2840419D01*
X4300000Y2840779D01*
X4294620Y2840419D01*
X4289340Y2839360D01*
X4284240Y2837640D01*
X4279400Y2835260D01*
X4274920Y2832260D01*
X4270880Y2828700D01*
X4267320Y2824660D01*
X4264320Y2820179D01*
X4261940Y2815340D01*
X4260220Y2810240D01*
X4259160Y2804960D01*
X4258800Y2799580D01*
X4259160Y2794200D01*
X4260220Y2788920D01*
X4261940Y2783820D01*
X4264320Y2778980D01*
X4267320Y2774500D01*
X4270880Y2770460D01*
X4274920Y2766900D01*
X4279400Y2763900D01*
X4284240Y2761520D01*
X4289340Y2759800D01*
X4294620Y2758740D01*
G37*
G36*
X3300000Y2758380D02*
G01*
X3305380Y2758740D01*
X3310659Y2759800D01*
X3315760Y2761520D01*
X3320600Y2763900D01*
X3325080Y2766900D01*
X3329120Y2770460D01*
X3332679Y2774500D01*
X3335680Y2778980D01*
X3338060Y2783820D01*
X3339780Y2788920D01*
X3340840Y2794200D01*
X3341200Y2799580D01*
X3340840Y2804960D01*
X3339780Y2810240D01*
X3338060Y2815340D01*
X3335680Y2820179D01*
X3332679Y2824660D01*
X3329120Y2828700D01*
X3325080Y2832260D01*
X3320600Y2835260D01*
X3315760Y2837640D01*
X3310659Y2839360D01*
X3305380Y2840419D01*
X3300000Y2840779D01*
X3294620Y2840419D01*
X3289340Y2839360D01*
X3284240Y2837640D01*
X3279400Y2835260D01*
X3274920Y2832260D01*
X3270880Y2828700D01*
X3267320Y2824660D01*
X3264320Y2820179D01*
X3261940Y2815340D01*
X3260220Y2810240D01*
X3259160Y2804960D01*
X3258800Y2799580D01*
X3259160Y2794200D01*
X3260220Y2788920D01*
X3261940Y2783820D01*
X3264320Y2778980D01*
X3267320Y2774500D01*
X3270880Y2770460D01*
X3274920Y2766900D01*
X3279400Y2763900D01*
X3284240Y2761520D01*
X3289340Y2759800D01*
X3294620Y2758740D01*
G37*
G36*
X4500000Y2758380D02*
G01*
X4505380Y2758740D01*
X4510660Y2759800D01*
X4515760Y2761520D01*
X4520600Y2763900D01*
X4525080Y2766900D01*
X4529120Y2770460D01*
X4532680Y2774500D01*
X4535680Y2778980D01*
X4538060Y2783820D01*
X4539780Y2788920D01*
X4540840Y2794200D01*
X4541200Y2799580D01*
X4540840Y2804960D01*
X4539780Y2810240D01*
X4538060Y2815340D01*
X4535680Y2820179D01*
X4532680Y2824660D01*
X4529120Y2828700D01*
X4525080Y2832260D01*
X4520600Y2835260D01*
X4515760Y2837640D01*
X4510660Y2839360D01*
X4505380Y2840419D01*
X4500000Y2840779D01*
X4494620Y2840419D01*
X4489340Y2839360D01*
X4484240Y2837640D01*
X4479400Y2835260D01*
X4474920Y2832260D01*
X4470880Y2828700D01*
X4467320Y2824660D01*
X4464320Y2820179D01*
X4461940Y2815340D01*
X4460220Y2810240D01*
X4459160Y2804960D01*
X4458800Y2799580D01*
X4459160Y2794200D01*
X4460220Y2788920D01*
X4461940Y2783820D01*
X4464320Y2778980D01*
X4467320Y2774500D01*
X4470880Y2770460D01*
X4474920Y2766900D01*
X4479400Y2763900D01*
X4484240Y2761520D01*
X4489340Y2759800D01*
X4494620Y2758740D01*
G37*
G36*
X3400000Y2758380D02*
G01*
X3405380Y2758740D01*
X3410659Y2759800D01*
X3415760Y2761520D01*
X3420600Y2763900D01*
X3425080Y2766900D01*
X3429120Y2770460D01*
X3432679Y2774500D01*
X3435680Y2778980D01*
X3438060Y2783820D01*
X3439780Y2788920D01*
X3440840Y2794200D01*
X3441200Y2799580D01*
X3440840Y2804960D01*
X3439780Y2810240D01*
X3438060Y2815340D01*
X3435680Y2820179D01*
X3432679Y2824660D01*
X3429120Y2828700D01*
X3425080Y2832260D01*
X3420600Y2835260D01*
X3415760Y2837640D01*
X3410659Y2839360D01*
X3405380Y2840419D01*
X3400000Y2840779D01*
X3394620Y2840419D01*
X3389340Y2839360D01*
X3384240Y2837640D01*
X3379400Y2835260D01*
X3374920Y2832260D01*
X3370880Y2828700D01*
X3367320Y2824660D01*
X3364320Y2820179D01*
X3361940Y2815340D01*
X3360220Y2810240D01*
X3359160Y2804960D01*
X3358800Y2799580D01*
X3359160Y2794200D01*
X3360220Y2788920D01*
X3361940Y2783820D01*
X3364320Y2778980D01*
X3367320Y2774500D01*
X3370880Y2770460D01*
X3374920Y2766900D01*
X3379400Y2763900D01*
X3384240Y2761520D01*
X3389340Y2759800D01*
X3394620Y2758740D01*
G37*
G36*
X4000000Y2758380D02*
G01*
X4005380Y2758740D01*
X4010659Y2759800D01*
X4015760Y2761520D01*
X4020600Y2763900D01*
X4025080Y2766900D01*
X4029120Y2770460D01*
X4032679Y2774500D01*
X4035680Y2778980D01*
X4038060Y2783820D01*
X4039780Y2788920D01*
X4040840Y2794200D01*
X4041200Y2799580D01*
X4040840Y2804960D01*
X4039780Y2810240D01*
X4038060Y2815340D01*
X4035680Y2820179D01*
X4032679Y2824660D01*
X4029120Y2828700D01*
X4025080Y2832260D01*
X4020600Y2835260D01*
X4015760Y2837640D01*
X4010659Y2839360D01*
X4005380Y2840419D01*
X4000000Y2840779D01*
X3994620Y2840419D01*
X3989340Y2839360D01*
X3984240Y2837640D01*
X3979400Y2835260D01*
X3974920Y2832260D01*
X3970880Y2828700D01*
X3967320Y2824660D01*
X3964320Y2820179D01*
X3961940Y2815340D01*
X3960220Y2810240D01*
X3959160Y2804960D01*
X3958800Y2799580D01*
X3959160Y2794200D01*
X3960220Y2788920D01*
X3961940Y2783820D01*
X3964320Y2778980D01*
X3967320Y2774500D01*
X3970880Y2770460D01*
X3974920Y2766900D01*
X3979400Y2763900D01*
X3984240Y2761520D01*
X3989340Y2759800D01*
X3994620Y2758740D01*
G37*

%LPD*%
D10*
X4600001Y2799580D02*
G01*
X4900001Y2499580D01*
X4900001Y1199580D01*
X4100001Y1799580D02*
G01*
X4100001Y1299580D01*
X4000001Y1199580D01*
X3900001Y1499580D02*
G01*
X3900001Y1199580D01*
X3900001Y1799580D02*
G01*
X3900001Y1499580D01*
X3800001Y1399580D02*
G01*
X3800001Y1199580D01*
X3800001Y1799580D02*
G01*
X3800001Y1399580D01*
X4700001Y1199580D02*
G01*
X4400001Y1499580D01*
X4195001Y1499580D01*
X4600001Y1199580D02*
G01*
X4400001Y1399580D01*
X4200001Y1399580D01*
X3700001Y1199580D02*
G01*
X3695001Y1194580D01*
X3695001Y600000D01*
X3600001Y1199580D02*
G01*
X3600001Y700000D01*
X3500001Y1199580D02*
G01*
X3500001Y799580D01*
X4800001Y1199580D02*
G01*
X4400621Y1598960D01*
X4100001Y1598960D01*
X3400001Y1199580D02*
G01*
X3400001Y899580D01*
X3300001Y999580D02*
G01*
X3300001Y1199580D01*
X4500001Y1199580D02*
G01*
X4500001Y605000D01*
X4495001Y600000D01*
X4400001Y700000D02*
G01*
X4400001Y1199580D01*
X4300001Y1199580D02*
G01*
X4300001Y799580D01*
X4200001Y899580D02*
G01*
X4200001Y1199580D01*
X4100001Y1199580D02*
G01*
X4100001Y999580D01*
X3900000Y2799600D02*
G01*
X3100000Y1999600D01*
X3100000Y1700000D01*
X3200000Y1600000D01*
X3600000Y1600000D01*
X3700000Y1500000D01*
X3700000Y1199600D01*
X3600000Y1199600D02*
G01*
X3600000Y1400000D01*
X3500000Y1500000D01*
X3200000Y1500000D01*
X3000000Y1700000D01*
X3000000Y1999600D01*
X3800000Y2799600D01*
X3700000Y2799600D02*
G01*
X2900000Y1999600D01*
X2900000Y1700000D01*
X3200000Y1400000D01*
X3400000Y1400000D01*
X3500000Y1300000D01*
X3500000Y1199600D01*
X3600000Y2799600D02*
G01*
X2800000Y1999600D01*
X2800000Y1700000D01*
X3200000Y1300000D01*
X3299600Y1300000D01*
X3400000Y1199600D01*
X3500000Y2799600D02*
G01*
X2700000Y1999600D01*
X2700000Y1255000D01*
X2955399Y999600D01*
X3300000Y999600D01*
D11*
G01*
X3200000Y1799580D03*
G01*
X3300000Y1799580D03*
G01*
X3400000Y1799580D03*
G01*
X3500000Y1799580D03*
G01*
X3600000Y1799580D03*
G01*
X3700000Y1799580D03*
G01*
X3800000Y1799580D03*
G01*
X3900000Y1799580D03*
G01*
X4000000Y1799580D03*
G01*
X4100000Y1799580D03*
G01*
X4200000Y1799580D03*
G01*
X4300000Y1799580D03*
G01*
X4400000Y1799580D03*
G01*
X4500000Y1799580D03*
D12*
G01*
X4600000Y1799580D03*
D11*
G01*
X3200000Y2799580D03*
G01*
X3300000Y2799580D03*
G01*
X3400000Y2799580D03*
G01*
X3500000Y2799580D03*
G01*
X3600000Y2799580D03*
G01*
X3700000Y2799580D03*
G01*
X3800000Y2799580D03*
G01*
X3900000Y2799580D03*
G01*
X4000000Y2799580D03*
G01*
X4100000Y2799580D03*
G01*
X4200000Y2799580D03*
G01*
X4300000Y2799580D03*
G01*
X4400000Y2799580D03*
G01*
X4500000Y2799580D03*
D12*
G01*
X4600000Y2799580D03*
D11*
G01*
X3000000Y1199580D03*
G01*
X3100000Y1199580D03*
G01*
X3200000Y1199580D03*
G01*
X3300000Y1199580D03*
G01*
X3400000Y1199580D03*
G01*
X3500000Y1199580D03*
G01*
X3600000Y1199580D03*
G01*
X3700000Y1199580D03*
G01*
X3800000Y1199580D03*
G01*
X3900000Y1199580D03*
G01*
X4000000Y1199580D03*
G01*
X4100000Y1199580D03*
G01*
X4200000Y1199580D03*
G01*
X4300000Y1199580D03*
G01*
X4400000Y1199580D03*
G01*
X4500000Y1199580D03*
G01*
X4600000Y1199580D03*
G01*
X4700000Y1199580D03*
G01*
X4800000Y1199580D03*
D12*
G01*
X4900000Y1199580D03*
D13*
G01*
X4195000Y1499580D03*
G01*
X3900000Y1499580D03*
G01*
X3800000Y1399580D03*
G01*
X4200000Y1399580D03*
G01*
X3695000Y600000D03*
G01*
X3600000Y700000D03*
D11*
G01*
X3500000Y799580D03*
D13*
G01*
X3300000Y999580D03*
G01*
X3400000Y899580D03*
G01*
X4200000Y899580D03*
G01*
X4100000Y999580D03*
D11*
G01*
X4300000Y799580D03*
D13*
G01*
X4400000Y700000D03*
G01*
X4495000Y600000D03*
M02*
