%
M48
M72
T01C0.01400
T02C0.02362
T03C0.04400
T04C0.08661
%
T01
X321800Y41800
X314300Y88050
X296800Y88050
X293050Y95550
X314300Y95550
X208050Y89300
X198050Y96800
X158050Y79300
X114300Y109300
X203050Y41800
T02
X113800Y42300
X311800Y42300
T03
X228300Y63550
X218300Y63550
X208300Y63550
X198300Y63550
X188300Y63550
X178300Y63550
X168300Y63550
X158300Y63550
T04
X363050Y141800
X25550Y16800
X363050Y16800
X25550Y141800
M30
